G04 #@! TF.GenerationSoftware,KiCad,Pcbnew,5.0.2+dfsg1-1*
G04 #@! TF.CreationDate,2020-11-04T14:27:09+01:00*
G04 #@! TF.ProjectId,CoreSchematic,436f7265-5363-4686-956d-617469632e6b,rev?*
G04 #@! TF.SameCoordinates,Original*
G04 #@! TF.FileFunction,Soldermask,Bot*
G04 #@! TF.FilePolarity,Negative*
%FSLAX46Y46*%
G04 Gerber Fmt 4.6, Leading zero omitted, Abs format (unit mm)*
G04 Created by KiCad (PCBNEW 5.0.2+dfsg1-1) date Wed 04 Nov 2020 14:27:09 CET*
%MOMM*%
%LPD*%
G01*
G04 APERTURE LIST*
%ADD10C,0.100000*%
G04 APERTURE END LIST*
D10*
G36*
X185292239Y-116826467D02*
X185606282Y-116888934D01*
X186197926Y-117134001D01*
X186487523Y-117327504D01*
X186730395Y-117489786D01*
X187183214Y-117942605D01*
X187183216Y-117942608D01*
X187538999Y-118475074D01*
X187660724Y-118768944D01*
X187784066Y-119066719D01*
X187909000Y-119694803D01*
X187909000Y-120335197D01*
X187846533Y-120649239D01*
X187784066Y-120963282D01*
X187538999Y-121554926D01*
X187291265Y-121925685D01*
X187183214Y-122087395D01*
X186730395Y-122540214D01*
X186730392Y-122540216D01*
X186197926Y-122895999D01*
X185606282Y-123141066D01*
X185292239Y-123203533D01*
X184978197Y-123266000D01*
X184337803Y-123266000D01*
X184023761Y-123203533D01*
X183709718Y-123141066D01*
X183118074Y-122895999D01*
X182585608Y-122540216D01*
X182585605Y-122540214D01*
X182132786Y-122087395D01*
X182024735Y-121925685D01*
X181777001Y-121554926D01*
X181531934Y-120963282D01*
X181469467Y-120649239D01*
X181407000Y-120335197D01*
X181407000Y-119694803D01*
X181531934Y-119066719D01*
X181655276Y-118768944D01*
X181777001Y-118475074D01*
X182132784Y-117942608D01*
X182132786Y-117942605D01*
X182585605Y-117489786D01*
X182828477Y-117327504D01*
X183118074Y-117134001D01*
X183709718Y-116888934D01*
X184023761Y-116826467D01*
X184337803Y-116764000D01*
X184978197Y-116764000D01*
X185292239Y-116826467D01*
X185292239Y-116826467D01*
G37*
G36*
X98043239Y-116826467D02*
X98357282Y-116888934D01*
X98948926Y-117134001D01*
X99238523Y-117327504D01*
X99481395Y-117489786D01*
X99934214Y-117942605D01*
X99934216Y-117942608D01*
X100289999Y-118475074D01*
X100411724Y-118768944D01*
X100535066Y-119066719D01*
X100660000Y-119694803D01*
X100660000Y-120335197D01*
X100597533Y-120649239D01*
X100535066Y-120963282D01*
X100289999Y-121554926D01*
X100042265Y-121925685D01*
X99934214Y-122087395D01*
X99481395Y-122540214D01*
X99481392Y-122540216D01*
X98948926Y-122895999D01*
X98357282Y-123141066D01*
X98043239Y-123203533D01*
X97729197Y-123266000D01*
X97088803Y-123266000D01*
X96774761Y-123203533D01*
X96460718Y-123141066D01*
X95869074Y-122895999D01*
X95336608Y-122540216D01*
X95336605Y-122540214D01*
X94883786Y-122087395D01*
X94775735Y-121925685D01*
X94528001Y-121554926D01*
X94282934Y-120963282D01*
X94220467Y-120649239D01*
X94158000Y-120335197D01*
X94158000Y-119694803D01*
X94282934Y-119066719D01*
X94406276Y-118768944D01*
X94528001Y-118475074D01*
X94883784Y-117942608D01*
X94883786Y-117942605D01*
X95336605Y-117489786D01*
X95579477Y-117327504D01*
X95869074Y-117134001D01*
X96460718Y-116888934D01*
X96774761Y-116826467D01*
X97088803Y-116764000D01*
X97729197Y-116764000D01*
X98043239Y-116826467D01*
X98043239Y-116826467D01*
G37*
G36*
X151855252Y-109724318D02*
X151855254Y-109724319D01*
X151855255Y-109724319D01*
X152228513Y-109878927D01*
X152559905Y-110100357D01*
X152564439Y-110103386D01*
X152850114Y-110389061D01*
X152850116Y-110389064D01*
X153074573Y-110724987D01*
X153103780Y-110795500D01*
X153229182Y-111098248D01*
X153308000Y-111494493D01*
X153308000Y-111898507D01*
X153233936Y-112270854D01*
X153229181Y-112294755D01*
X153074573Y-112668013D01*
X153074572Y-112668014D01*
X152850114Y-113003939D01*
X152564439Y-113289614D01*
X152564436Y-113289616D01*
X152228513Y-113514073D01*
X151855255Y-113668681D01*
X151855254Y-113668681D01*
X151855252Y-113668682D01*
X151459007Y-113747500D01*
X151054993Y-113747500D01*
X150658748Y-113668682D01*
X150658746Y-113668681D01*
X150658745Y-113668681D01*
X150285487Y-113514073D01*
X149949564Y-113289616D01*
X149949561Y-113289614D01*
X149663886Y-113003939D01*
X149439428Y-112668014D01*
X149439427Y-112668013D01*
X149284819Y-112294755D01*
X149280065Y-112270854D01*
X149206000Y-111898507D01*
X149206000Y-111494493D01*
X149284818Y-111098248D01*
X149410220Y-110795500D01*
X149439427Y-110724987D01*
X149663884Y-110389064D01*
X149663886Y-110389061D01*
X149949561Y-110103386D01*
X149954095Y-110100357D01*
X150285487Y-109878927D01*
X150658745Y-109724319D01*
X150658746Y-109724319D01*
X150658748Y-109724318D01*
X151054993Y-109645500D01*
X151459007Y-109645500D01*
X151855252Y-109724318D01*
X151855252Y-109724318D01*
G37*
G36*
X171857752Y-109724318D02*
X171857754Y-109724319D01*
X171857755Y-109724319D01*
X172231013Y-109878927D01*
X172562405Y-110100357D01*
X172566939Y-110103386D01*
X172852614Y-110389061D01*
X172852616Y-110389064D01*
X173077073Y-110724987D01*
X173106280Y-110795500D01*
X173231682Y-111098248D01*
X173310500Y-111494493D01*
X173310500Y-111898507D01*
X173236436Y-112270854D01*
X173231681Y-112294755D01*
X173077073Y-112668013D01*
X173077072Y-112668014D01*
X172852614Y-113003939D01*
X172566939Y-113289614D01*
X172566936Y-113289616D01*
X172231013Y-113514073D01*
X171857755Y-113668681D01*
X171857754Y-113668681D01*
X171857752Y-113668682D01*
X171461507Y-113747500D01*
X171057493Y-113747500D01*
X170661248Y-113668682D01*
X170661246Y-113668681D01*
X170661245Y-113668681D01*
X170287987Y-113514073D01*
X169952064Y-113289616D01*
X169952061Y-113289614D01*
X169666386Y-113003939D01*
X169441928Y-112668014D01*
X169441927Y-112668013D01*
X169287319Y-112294755D01*
X169282565Y-112270854D01*
X169208500Y-111898507D01*
X169208500Y-111494493D01*
X169287318Y-111098248D01*
X169412720Y-110795500D01*
X169441927Y-110724987D01*
X169666384Y-110389064D01*
X169666386Y-110389061D01*
X169952061Y-110103386D01*
X169956595Y-110100357D01*
X170287987Y-109878927D01*
X170661245Y-109724319D01*
X170661246Y-109724319D01*
X170661248Y-109724318D01*
X171057493Y-109645500D01*
X171461507Y-109645500D01*
X171857752Y-109724318D01*
X171857752Y-109724318D01*
G37*
G36*
X131852752Y-109724318D02*
X131852754Y-109724319D01*
X131852755Y-109724319D01*
X132226013Y-109878927D01*
X132557405Y-110100357D01*
X132561939Y-110103386D01*
X132847614Y-110389061D01*
X132847616Y-110389064D01*
X133072073Y-110724987D01*
X133101280Y-110795500D01*
X133226682Y-111098248D01*
X133305500Y-111494493D01*
X133305500Y-111898507D01*
X133231436Y-112270854D01*
X133226681Y-112294755D01*
X133072073Y-112668013D01*
X133072072Y-112668014D01*
X132847614Y-113003939D01*
X132561939Y-113289614D01*
X132561936Y-113289616D01*
X132226013Y-113514073D01*
X131852755Y-113668681D01*
X131852754Y-113668681D01*
X131852752Y-113668682D01*
X131456507Y-113747500D01*
X131052493Y-113747500D01*
X130656248Y-113668682D01*
X130656246Y-113668681D01*
X130656245Y-113668681D01*
X130282987Y-113514073D01*
X129947064Y-113289616D01*
X129947061Y-113289614D01*
X129661386Y-113003939D01*
X129436928Y-112668014D01*
X129436927Y-112668013D01*
X129282319Y-112294755D01*
X129277565Y-112270854D01*
X129203500Y-111898507D01*
X129203500Y-111494493D01*
X129282318Y-111098248D01*
X129407720Y-110795500D01*
X129436927Y-110724987D01*
X129661384Y-110389064D01*
X129661386Y-110389061D01*
X129947061Y-110103386D01*
X129951595Y-110100357D01*
X130282987Y-109878927D01*
X130656245Y-109724319D01*
X130656246Y-109724319D01*
X130656248Y-109724318D01*
X131052493Y-109645500D01*
X131456507Y-109645500D01*
X131852752Y-109724318D01*
X131852752Y-109724318D01*
G37*
G36*
X176602312Y-110830124D02*
X176766284Y-110898044D01*
X176913854Y-110996647D01*
X177039353Y-111122146D01*
X177137956Y-111269716D01*
X177205876Y-111433688D01*
X177240500Y-111607759D01*
X177240500Y-111785241D01*
X177205876Y-111959312D01*
X177137956Y-112123284D01*
X177039353Y-112270854D01*
X176913854Y-112396353D01*
X176766284Y-112494956D01*
X176602312Y-112562876D01*
X176428241Y-112597500D01*
X176250759Y-112597500D01*
X176076688Y-112562876D01*
X175912716Y-112494956D01*
X175765146Y-112396353D01*
X175639647Y-112270854D01*
X175541044Y-112123284D01*
X175473124Y-111959312D01*
X175438500Y-111785241D01*
X175438500Y-111607759D01*
X175473124Y-111433688D01*
X175541044Y-111269716D01*
X175639647Y-111122146D01*
X175765146Y-110996647D01*
X175912716Y-110898044D01*
X176076688Y-110830124D01*
X176250759Y-110795500D01*
X176428241Y-110795500D01*
X176602312Y-110830124D01*
X176602312Y-110830124D01*
G37*
G36*
X166442312Y-110830124D02*
X166606284Y-110898044D01*
X166753854Y-110996647D01*
X166879353Y-111122146D01*
X166977956Y-111269716D01*
X167045876Y-111433688D01*
X167080500Y-111607759D01*
X167080500Y-111785241D01*
X167045876Y-111959312D01*
X166977956Y-112123284D01*
X166879353Y-112270854D01*
X166753854Y-112396353D01*
X166606284Y-112494956D01*
X166442312Y-112562876D01*
X166268241Y-112597500D01*
X166090759Y-112597500D01*
X165916688Y-112562876D01*
X165752716Y-112494956D01*
X165605146Y-112396353D01*
X165479647Y-112270854D01*
X165381044Y-112123284D01*
X165313124Y-111959312D01*
X165278500Y-111785241D01*
X165278500Y-111607759D01*
X165313124Y-111433688D01*
X165381044Y-111269716D01*
X165479647Y-111122146D01*
X165605146Y-110996647D01*
X165752716Y-110898044D01*
X165916688Y-110830124D01*
X166090759Y-110795500D01*
X166268241Y-110795500D01*
X166442312Y-110830124D01*
X166442312Y-110830124D01*
G37*
G36*
X156599812Y-110830124D02*
X156763784Y-110898044D01*
X156911354Y-110996647D01*
X157036853Y-111122146D01*
X157135456Y-111269716D01*
X157203376Y-111433688D01*
X157238000Y-111607759D01*
X157238000Y-111785241D01*
X157203376Y-111959312D01*
X157135456Y-112123284D01*
X157036853Y-112270854D01*
X156911354Y-112396353D01*
X156763784Y-112494956D01*
X156599812Y-112562876D01*
X156425741Y-112597500D01*
X156248259Y-112597500D01*
X156074188Y-112562876D01*
X155910216Y-112494956D01*
X155762646Y-112396353D01*
X155637147Y-112270854D01*
X155538544Y-112123284D01*
X155470624Y-111959312D01*
X155436000Y-111785241D01*
X155436000Y-111607759D01*
X155470624Y-111433688D01*
X155538544Y-111269716D01*
X155637147Y-111122146D01*
X155762646Y-110996647D01*
X155910216Y-110898044D01*
X156074188Y-110830124D01*
X156248259Y-110795500D01*
X156425741Y-110795500D01*
X156599812Y-110830124D01*
X156599812Y-110830124D01*
G37*
G36*
X146439812Y-110830124D02*
X146603784Y-110898044D01*
X146751354Y-110996647D01*
X146876853Y-111122146D01*
X146975456Y-111269716D01*
X147043376Y-111433688D01*
X147078000Y-111607759D01*
X147078000Y-111785241D01*
X147043376Y-111959312D01*
X146975456Y-112123284D01*
X146876853Y-112270854D01*
X146751354Y-112396353D01*
X146603784Y-112494956D01*
X146439812Y-112562876D01*
X146265741Y-112597500D01*
X146088259Y-112597500D01*
X145914188Y-112562876D01*
X145750216Y-112494956D01*
X145602646Y-112396353D01*
X145477147Y-112270854D01*
X145378544Y-112123284D01*
X145310624Y-111959312D01*
X145276000Y-111785241D01*
X145276000Y-111607759D01*
X145310624Y-111433688D01*
X145378544Y-111269716D01*
X145477147Y-111122146D01*
X145602646Y-110996647D01*
X145750216Y-110898044D01*
X145914188Y-110830124D01*
X146088259Y-110795500D01*
X146265741Y-110795500D01*
X146439812Y-110830124D01*
X146439812Y-110830124D01*
G37*
G36*
X136597312Y-110830124D02*
X136761284Y-110898044D01*
X136908854Y-110996647D01*
X137034353Y-111122146D01*
X137132956Y-111269716D01*
X137200876Y-111433688D01*
X137235500Y-111607759D01*
X137235500Y-111785241D01*
X137200876Y-111959312D01*
X137132956Y-112123284D01*
X137034353Y-112270854D01*
X136908854Y-112396353D01*
X136761284Y-112494956D01*
X136597312Y-112562876D01*
X136423241Y-112597500D01*
X136245759Y-112597500D01*
X136071688Y-112562876D01*
X135907716Y-112494956D01*
X135760146Y-112396353D01*
X135634647Y-112270854D01*
X135536044Y-112123284D01*
X135468124Y-111959312D01*
X135433500Y-111785241D01*
X135433500Y-111607759D01*
X135468124Y-111433688D01*
X135536044Y-111269716D01*
X135634647Y-111122146D01*
X135760146Y-110996647D01*
X135907716Y-110898044D01*
X136071688Y-110830124D01*
X136245759Y-110795500D01*
X136423241Y-110795500D01*
X136597312Y-110830124D01*
X136597312Y-110830124D01*
G37*
G36*
X126437312Y-110830124D02*
X126601284Y-110898044D01*
X126748854Y-110996647D01*
X126874353Y-111122146D01*
X126972956Y-111269716D01*
X127040876Y-111433688D01*
X127075500Y-111607759D01*
X127075500Y-111785241D01*
X127040876Y-111959312D01*
X126972956Y-112123284D01*
X126874353Y-112270854D01*
X126748854Y-112396353D01*
X126601284Y-112494956D01*
X126437312Y-112562876D01*
X126263241Y-112597500D01*
X126085759Y-112597500D01*
X125911688Y-112562876D01*
X125747716Y-112494956D01*
X125600146Y-112396353D01*
X125474647Y-112270854D01*
X125376044Y-112123284D01*
X125308124Y-111959312D01*
X125273500Y-111785241D01*
X125273500Y-111607759D01*
X125308124Y-111433688D01*
X125376044Y-111269716D01*
X125474647Y-111122146D01*
X125600146Y-110996647D01*
X125747716Y-110898044D01*
X125911688Y-110830124D01*
X126085759Y-110795500D01*
X126263241Y-110795500D01*
X126437312Y-110830124D01*
X126437312Y-110830124D01*
G37*
G36*
X147782734Y-108049732D02*
X147992202Y-108136496D01*
X148180723Y-108262462D01*
X148341038Y-108422777D01*
X148467004Y-108611298D01*
X148553768Y-108820766D01*
X148598000Y-109043135D01*
X148598000Y-109269865D01*
X148553768Y-109492234D01*
X148467004Y-109701702D01*
X148341038Y-109890223D01*
X148180723Y-110050538D01*
X147992202Y-110176504D01*
X147782734Y-110263268D01*
X147560365Y-110307500D01*
X147333635Y-110307500D01*
X147111266Y-110263268D01*
X146901798Y-110176504D01*
X146713277Y-110050538D01*
X146552962Y-109890223D01*
X146426996Y-109701702D01*
X146340232Y-109492234D01*
X146296000Y-109269865D01*
X146296000Y-109043135D01*
X146340232Y-108820766D01*
X146426996Y-108611298D01*
X146552962Y-108422777D01*
X146713277Y-108262462D01*
X146901798Y-108136496D01*
X147111266Y-108049732D01*
X147333635Y-108005500D01*
X147560365Y-108005500D01*
X147782734Y-108049732D01*
X147782734Y-108049732D01*
G37*
G36*
X127780234Y-108049732D02*
X127989702Y-108136496D01*
X128178223Y-108262462D01*
X128338538Y-108422777D01*
X128464504Y-108611298D01*
X128551268Y-108820766D01*
X128595500Y-109043135D01*
X128595500Y-109269865D01*
X128551268Y-109492234D01*
X128464504Y-109701702D01*
X128338538Y-109890223D01*
X128178223Y-110050538D01*
X127989702Y-110176504D01*
X127780234Y-110263268D01*
X127557865Y-110307500D01*
X127331135Y-110307500D01*
X127108766Y-110263268D01*
X126899298Y-110176504D01*
X126710777Y-110050538D01*
X126550462Y-109890223D01*
X126424496Y-109701702D01*
X126337732Y-109492234D01*
X126293500Y-109269865D01*
X126293500Y-109043135D01*
X126337732Y-108820766D01*
X126424496Y-108611298D01*
X126550462Y-108422777D01*
X126710777Y-108262462D01*
X126899298Y-108136496D01*
X127108766Y-108049732D01*
X127331135Y-108005500D01*
X127557865Y-108005500D01*
X127780234Y-108049732D01*
X127780234Y-108049732D01*
G37*
G36*
X167785234Y-108049732D02*
X167994702Y-108136496D01*
X168183223Y-108262462D01*
X168343538Y-108422777D01*
X168469504Y-108611298D01*
X168556268Y-108820766D01*
X168600500Y-109043135D01*
X168600500Y-109269865D01*
X168556268Y-109492234D01*
X168469504Y-109701702D01*
X168343538Y-109890223D01*
X168183223Y-110050538D01*
X167994702Y-110176504D01*
X167785234Y-110263268D01*
X167562865Y-110307500D01*
X167336135Y-110307500D01*
X167113766Y-110263268D01*
X166904298Y-110176504D01*
X166715777Y-110050538D01*
X166555462Y-109890223D01*
X166429496Y-109701702D01*
X166342732Y-109492234D01*
X166298500Y-109269865D01*
X166298500Y-109043135D01*
X166342732Y-108820766D01*
X166429496Y-108611298D01*
X166555462Y-108422777D01*
X166715777Y-108262462D01*
X166904298Y-108136496D01*
X167113766Y-108049732D01*
X167336135Y-108005500D01*
X167562865Y-108005500D01*
X167785234Y-108049732D01*
X167785234Y-108049732D01*
G37*
G36*
X174135234Y-105509732D02*
X174344702Y-105596496D01*
X174533223Y-105722462D01*
X174693538Y-105882777D01*
X174819504Y-106071298D01*
X174906268Y-106280766D01*
X174950500Y-106503135D01*
X174950500Y-106729865D01*
X174906268Y-106952234D01*
X174819504Y-107161702D01*
X174693538Y-107350223D01*
X174533223Y-107510538D01*
X174344702Y-107636504D01*
X174135234Y-107723268D01*
X173912865Y-107767500D01*
X173686135Y-107767500D01*
X173463766Y-107723268D01*
X173254298Y-107636504D01*
X173065777Y-107510538D01*
X172905462Y-107350223D01*
X172779496Y-107161702D01*
X172692732Y-106952234D01*
X172648500Y-106729865D01*
X172648500Y-106503135D01*
X172692732Y-106280766D01*
X172779496Y-106071298D01*
X172905462Y-105882777D01*
X173065777Y-105722462D01*
X173254298Y-105596496D01*
X173463766Y-105509732D01*
X173686135Y-105465500D01*
X173912865Y-105465500D01*
X174135234Y-105509732D01*
X174135234Y-105509732D01*
G37*
G36*
X154132734Y-105509732D02*
X154342202Y-105596496D01*
X154530723Y-105722462D01*
X154691038Y-105882777D01*
X154817004Y-106071298D01*
X154903768Y-106280766D01*
X154948000Y-106503135D01*
X154948000Y-106729865D01*
X154903768Y-106952234D01*
X154817004Y-107161702D01*
X154691038Y-107350223D01*
X154530723Y-107510538D01*
X154342202Y-107636504D01*
X154132734Y-107723268D01*
X153910365Y-107767500D01*
X153683635Y-107767500D01*
X153461266Y-107723268D01*
X153251798Y-107636504D01*
X153063277Y-107510538D01*
X152902962Y-107350223D01*
X152776996Y-107161702D01*
X152690232Y-106952234D01*
X152646000Y-106729865D01*
X152646000Y-106503135D01*
X152690232Y-106280766D01*
X152776996Y-106071298D01*
X152902962Y-105882777D01*
X153063277Y-105722462D01*
X153251798Y-105596496D01*
X153461266Y-105509732D01*
X153683635Y-105465500D01*
X153910365Y-105465500D01*
X154132734Y-105509732D01*
X154132734Y-105509732D01*
G37*
G36*
X134130234Y-105509732D02*
X134339702Y-105596496D01*
X134528223Y-105722462D01*
X134688538Y-105882777D01*
X134814504Y-106071298D01*
X134901268Y-106280766D01*
X134945500Y-106503135D01*
X134945500Y-106729865D01*
X134901268Y-106952234D01*
X134814504Y-107161702D01*
X134688538Y-107350223D01*
X134528223Y-107510538D01*
X134339702Y-107636504D01*
X134130234Y-107723268D01*
X133907865Y-107767500D01*
X133681135Y-107767500D01*
X133458766Y-107723268D01*
X133249298Y-107636504D01*
X133060777Y-107510538D01*
X132900462Y-107350223D01*
X132774496Y-107161702D01*
X132687732Y-106952234D01*
X132643500Y-106729865D01*
X132643500Y-106503135D01*
X132687732Y-106280766D01*
X132774496Y-106071298D01*
X132900462Y-105882777D01*
X133060777Y-105722462D01*
X133249298Y-105596496D01*
X133458766Y-105509732D01*
X133681135Y-105465500D01*
X133907865Y-105465500D01*
X134130234Y-105509732D01*
X134130234Y-105509732D01*
G37*
G36*
X153856433Y-102733686D02*
X153896281Y-102745774D01*
X153933001Y-102765401D01*
X153965186Y-102791814D01*
X153991599Y-102823999D01*
X154011226Y-102860719D01*
X154023314Y-102900567D01*
X154028000Y-102948141D01*
X154028000Y-104061859D01*
X154023314Y-104109433D01*
X154011226Y-104149281D01*
X153991599Y-104186001D01*
X153965186Y-104218186D01*
X153933001Y-104244599D01*
X153896281Y-104264226D01*
X153856433Y-104276314D01*
X153808859Y-104281000D01*
X153145141Y-104281000D01*
X153097567Y-104276314D01*
X153057719Y-104264226D01*
X153020999Y-104244599D01*
X152988814Y-104218186D01*
X152962401Y-104186001D01*
X152942774Y-104149281D01*
X152930686Y-104109433D01*
X152926000Y-104061859D01*
X152926000Y-102948141D01*
X152930686Y-102900567D01*
X152942774Y-102860719D01*
X152962401Y-102823999D01*
X152988814Y-102791814D01*
X153020999Y-102765401D01*
X153057719Y-102745774D01*
X153097567Y-102733686D01*
X153145141Y-102729000D01*
X153808859Y-102729000D01*
X153856433Y-102733686D01*
X153856433Y-102733686D01*
G37*
G36*
X151956433Y-102733686D02*
X151996281Y-102745774D01*
X152033001Y-102765401D01*
X152065186Y-102791814D01*
X152091599Y-102823999D01*
X152111226Y-102860719D01*
X152123314Y-102900567D01*
X152128000Y-102948141D01*
X152128000Y-104061859D01*
X152123314Y-104109433D01*
X152111226Y-104149281D01*
X152091599Y-104186001D01*
X152065186Y-104218186D01*
X152033001Y-104244599D01*
X151996281Y-104264226D01*
X151956433Y-104276314D01*
X151908859Y-104281000D01*
X151245141Y-104281000D01*
X151197567Y-104276314D01*
X151157719Y-104264226D01*
X151120999Y-104244599D01*
X151088814Y-104218186D01*
X151062401Y-104186001D01*
X151042774Y-104149281D01*
X151030686Y-104109433D01*
X151026000Y-104061859D01*
X151026000Y-102948141D01*
X151030686Y-102900567D01*
X151042774Y-102860719D01*
X151062401Y-102823999D01*
X151088814Y-102791814D01*
X151120999Y-102765401D01*
X151157719Y-102745774D01*
X151197567Y-102733686D01*
X151245141Y-102729000D01*
X151908859Y-102729000D01*
X151956433Y-102733686D01*
X151956433Y-102733686D01*
G37*
G36*
X166464493Y-93936203D02*
X166528914Y-93955744D01*
X166588276Y-93987475D01*
X166640317Y-94030183D01*
X166683025Y-94082224D01*
X166714756Y-94141586D01*
X166734297Y-94206007D01*
X166741500Y-94279141D01*
X166741500Y-95204859D01*
X166734297Y-95277993D01*
X166714756Y-95342414D01*
X166683025Y-95401776D01*
X166640317Y-95453817D01*
X166588276Y-95496525D01*
X166528914Y-95528256D01*
X166464493Y-95547797D01*
X166391359Y-95555000D01*
X162989641Y-95555000D01*
X162916507Y-95547797D01*
X162852086Y-95528256D01*
X162792724Y-95496525D01*
X162740683Y-95453817D01*
X162697975Y-95401776D01*
X162666244Y-95342414D01*
X162646703Y-95277993D01*
X162639500Y-95204859D01*
X162639500Y-94279141D01*
X162646703Y-94206007D01*
X162666244Y-94141586D01*
X162697975Y-94082224D01*
X162740683Y-94030183D01*
X162792724Y-93987475D01*
X162852086Y-93955744D01*
X162916507Y-93936203D01*
X162989641Y-93929000D01*
X166391359Y-93929000D01*
X166464493Y-93936203D01*
X166464493Y-93936203D01*
G37*
G36*
X154964493Y-93936203D02*
X155028914Y-93955744D01*
X155088276Y-93987475D01*
X155140317Y-94030183D01*
X155183025Y-94082224D01*
X155214756Y-94141586D01*
X155234297Y-94206007D01*
X155241500Y-94279141D01*
X155241500Y-95204859D01*
X155234297Y-95277993D01*
X155214756Y-95342414D01*
X155183025Y-95401776D01*
X155140317Y-95453817D01*
X155088276Y-95496525D01*
X155028914Y-95528256D01*
X154964493Y-95547797D01*
X154891359Y-95555000D01*
X151489641Y-95555000D01*
X151416507Y-95547797D01*
X151352086Y-95528256D01*
X151292724Y-95496525D01*
X151240683Y-95453817D01*
X151197975Y-95401776D01*
X151166244Y-95342414D01*
X151146703Y-95277993D01*
X151139500Y-95204859D01*
X151139500Y-94279141D01*
X151146703Y-94206007D01*
X151166244Y-94141586D01*
X151197975Y-94082224D01*
X151240683Y-94030183D01*
X151292724Y-93987475D01*
X151352086Y-93955744D01*
X151416507Y-93936203D01*
X151489641Y-93929000D01*
X154891359Y-93929000D01*
X154964493Y-93936203D01*
X154964493Y-93936203D01*
G37*
G36*
X158116683Y-94219725D02*
X158147144Y-94228966D01*
X158175223Y-94243975D01*
X158199831Y-94264169D01*
X158220025Y-94288777D01*
X158235034Y-94316856D01*
X158244275Y-94347317D01*
X158248000Y-94385140D01*
X158248000Y-95098860D01*
X158244275Y-95136683D01*
X158235034Y-95167144D01*
X158220025Y-95195223D01*
X158199831Y-95219831D01*
X158175223Y-95240025D01*
X158147144Y-95255034D01*
X158116683Y-95264275D01*
X158078860Y-95268000D01*
X157515140Y-95268000D01*
X157477317Y-95264275D01*
X157446856Y-95255034D01*
X157418777Y-95240025D01*
X157394169Y-95219831D01*
X157373975Y-95195223D01*
X157358966Y-95167144D01*
X157349725Y-95136683D01*
X157346000Y-95098860D01*
X157346000Y-94385140D01*
X157349725Y-94347317D01*
X157358966Y-94316856D01*
X157373975Y-94288777D01*
X157394169Y-94264169D01*
X157418777Y-94243975D01*
X157446856Y-94228966D01*
X157477317Y-94219725D01*
X157515140Y-94216000D01*
X158078860Y-94216000D01*
X158116683Y-94219725D01*
X158116683Y-94219725D01*
G37*
G36*
X156466683Y-94219725D02*
X156497144Y-94228966D01*
X156525223Y-94243975D01*
X156549831Y-94264169D01*
X156570025Y-94288777D01*
X156585034Y-94316856D01*
X156594275Y-94347317D01*
X156598000Y-94385140D01*
X156598000Y-95098860D01*
X156594275Y-95136683D01*
X156585034Y-95167144D01*
X156570025Y-95195223D01*
X156549831Y-95219831D01*
X156525223Y-95240025D01*
X156497144Y-95255034D01*
X156466683Y-95264275D01*
X156428860Y-95268000D01*
X155865140Y-95268000D01*
X155827317Y-95264275D01*
X155796856Y-95255034D01*
X155768777Y-95240025D01*
X155744169Y-95219831D01*
X155723975Y-95195223D01*
X155708966Y-95167144D01*
X155699725Y-95136683D01*
X155696000Y-95098860D01*
X155696000Y-94385140D01*
X155699725Y-94347317D01*
X155708966Y-94316856D01*
X155723975Y-94288777D01*
X155744169Y-94264169D01*
X155768777Y-94243975D01*
X155796856Y-94228966D01*
X155827317Y-94219725D01*
X155865140Y-94216000D01*
X156428860Y-94216000D01*
X156466683Y-94219725D01*
X156466683Y-94219725D01*
G37*
G36*
X184272933Y-93653186D02*
X184312781Y-93665274D01*
X184349501Y-93684901D01*
X184381686Y-93711314D01*
X184408099Y-93743499D01*
X184427726Y-93780219D01*
X184439814Y-93820067D01*
X184444500Y-93867641D01*
X184444500Y-94981359D01*
X184439814Y-95028933D01*
X184427726Y-95068781D01*
X184408099Y-95105501D01*
X184381686Y-95137686D01*
X184349501Y-95164099D01*
X184312781Y-95183726D01*
X184272933Y-95195814D01*
X184225359Y-95200500D01*
X183561641Y-95200500D01*
X183514067Y-95195814D01*
X183474219Y-95183726D01*
X183437499Y-95164099D01*
X183405314Y-95137686D01*
X183378901Y-95105501D01*
X183359274Y-95068781D01*
X183347186Y-95028933D01*
X183342500Y-94981359D01*
X183342500Y-93867641D01*
X183347186Y-93820067D01*
X183359274Y-93780219D01*
X183378901Y-93743499D01*
X183405314Y-93711314D01*
X183437499Y-93684901D01*
X183474219Y-93665274D01*
X183514067Y-93653186D01*
X183561641Y-93648500D01*
X184225359Y-93648500D01*
X184272933Y-93653186D01*
X184272933Y-93653186D01*
G37*
G36*
X182372933Y-93653186D02*
X182412781Y-93665274D01*
X182449501Y-93684901D01*
X182481686Y-93711314D01*
X182508099Y-93743499D01*
X182527726Y-93780219D01*
X182539814Y-93820067D01*
X182544500Y-93867641D01*
X182544500Y-94981359D01*
X182539814Y-95028933D01*
X182527726Y-95068781D01*
X182508099Y-95105501D01*
X182481686Y-95137686D01*
X182449501Y-95164099D01*
X182412781Y-95183726D01*
X182372933Y-95195814D01*
X182325359Y-95200500D01*
X181661641Y-95200500D01*
X181614067Y-95195814D01*
X181574219Y-95183726D01*
X181537499Y-95164099D01*
X181505314Y-95137686D01*
X181478901Y-95105501D01*
X181459274Y-95068781D01*
X181447186Y-95028933D01*
X181442500Y-94981359D01*
X181442500Y-93867641D01*
X181447186Y-93820067D01*
X181459274Y-93780219D01*
X181478901Y-93743499D01*
X181505314Y-93711314D01*
X181537499Y-93684901D01*
X181574219Y-93665274D01*
X181614067Y-93653186D01*
X181661641Y-93648500D01*
X182325359Y-93648500D01*
X182372933Y-93653186D01*
X182372933Y-93653186D01*
G37*
G36*
X158116683Y-92746525D02*
X158147144Y-92755766D01*
X158175223Y-92770775D01*
X158199831Y-92790969D01*
X158220025Y-92815577D01*
X158235034Y-92843656D01*
X158244275Y-92874117D01*
X158248000Y-92911940D01*
X158248000Y-93625660D01*
X158244275Y-93663483D01*
X158235034Y-93693944D01*
X158220025Y-93722023D01*
X158199831Y-93746631D01*
X158175223Y-93766825D01*
X158147144Y-93781834D01*
X158116683Y-93791075D01*
X158078860Y-93794800D01*
X157515140Y-93794800D01*
X157477317Y-93791075D01*
X157446856Y-93781834D01*
X157418777Y-93766825D01*
X157394169Y-93746631D01*
X157373975Y-93722023D01*
X157358966Y-93693944D01*
X157349725Y-93663483D01*
X157346000Y-93625660D01*
X157346000Y-92911940D01*
X157349725Y-92874117D01*
X157358966Y-92843656D01*
X157373975Y-92815577D01*
X157394169Y-92790969D01*
X157418777Y-92770775D01*
X157446856Y-92755766D01*
X157477317Y-92746525D01*
X157515140Y-92742800D01*
X158078860Y-92742800D01*
X158116683Y-92746525D01*
X158116683Y-92746525D01*
G37*
G36*
X156466683Y-92746525D02*
X156497144Y-92755766D01*
X156525223Y-92770775D01*
X156549831Y-92790969D01*
X156570025Y-92815577D01*
X156585034Y-92843656D01*
X156594275Y-92874117D01*
X156598000Y-92911940D01*
X156598000Y-93625660D01*
X156594275Y-93663483D01*
X156585034Y-93693944D01*
X156570025Y-93722023D01*
X156549831Y-93746631D01*
X156525223Y-93766825D01*
X156497144Y-93781834D01*
X156466683Y-93791075D01*
X156428860Y-93794800D01*
X155865140Y-93794800D01*
X155827317Y-93791075D01*
X155796856Y-93781834D01*
X155768777Y-93766825D01*
X155744169Y-93746631D01*
X155723975Y-93722023D01*
X155708966Y-93693944D01*
X155699725Y-93663483D01*
X155696000Y-93625660D01*
X155696000Y-92911940D01*
X155699725Y-92874117D01*
X155708966Y-92843656D01*
X155723975Y-92815577D01*
X155744169Y-92790969D01*
X155768777Y-92770775D01*
X155796856Y-92755766D01*
X155827317Y-92746525D01*
X155865140Y-92742800D01*
X156428860Y-92742800D01*
X156466683Y-92746525D01*
X156466683Y-92746525D01*
G37*
G36*
X184322060Y-92124705D02*
X184357211Y-92135369D01*
X184389609Y-92152686D01*
X184418008Y-92175992D01*
X184441314Y-92204391D01*
X184458631Y-92236789D01*
X184469295Y-92271940D01*
X184473500Y-92314640D01*
X184473500Y-92978360D01*
X184469295Y-93021060D01*
X184458631Y-93056211D01*
X184441314Y-93088609D01*
X184418008Y-93117008D01*
X184389609Y-93140314D01*
X184357211Y-93157631D01*
X184322060Y-93168295D01*
X184279360Y-93172500D01*
X183665640Y-93172500D01*
X183622940Y-93168295D01*
X183587789Y-93157631D01*
X183555391Y-93140314D01*
X183526992Y-93117008D01*
X183503686Y-93088609D01*
X183486369Y-93056211D01*
X183475705Y-93021060D01*
X183471500Y-92978360D01*
X183471500Y-92314640D01*
X183475705Y-92271940D01*
X183486369Y-92236789D01*
X183503686Y-92204391D01*
X183526992Y-92175992D01*
X183555391Y-92152686D01*
X183587789Y-92135369D01*
X183622940Y-92124705D01*
X183665640Y-92120500D01*
X184279360Y-92120500D01*
X184322060Y-92124705D01*
X184322060Y-92124705D01*
G37*
G36*
X182772060Y-92124705D02*
X182807211Y-92135369D01*
X182839609Y-92152686D01*
X182868008Y-92175992D01*
X182891314Y-92204391D01*
X182908631Y-92236789D01*
X182919295Y-92271940D01*
X182923500Y-92314640D01*
X182923500Y-92978360D01*
X182919295Y-93021060D01*
X182908631Y-93056211D01*
X182891314Y-93088609D01*
X182868008Y-93117008D01*
X182839609Y-93140314D01*
X182807211Y-93157631D01*
X182772060Y-93168295D01*
X182729360Y-93172500D01*
X182115640Y-93172500D01*
X182072940Y-93168295D01*
X182037789Y-93157631D01*
X182005391Y-93140314D01*
X181976992Y-93117008D01*
X181953686Y-93088609D01*
X181936369Y-93056211D01*
X181925705Y-93021060D01*
X181921500Y-92978360D01*
X181921500Y-92314640D01*
X181925705Y-92271940D01*
X181936369Y-92236789D01*
X181953686Y-92204391D01*
X181976992Y-92175992D01*
X182005391Y-92152686D01*
X182037789Y-92135369D01*
X182072940Y-92124705D01*
X182115640Y-92120500D01*
X182729360Y-92120500D01*
X182772060Y-92124705D01*
X182772060Y-92124705D01*
G37*
G36*
X141486843Y-91155119D02*
X141553027Y-91161637D01*
X141666253Y-91195984D01*
X141722867Y-91213157D01*
X141861487Y-91287252D01*
X141879391Y-91296822D01*
X141915129Y-91326152D01*
X142016586Y-91409414D01*
X142099437Y-91510370D01*
X142129178Y-91546609D01*
X142129179Y-91546611D01*
X142212843Y-91703133D01*
X142230016Y-91759747D01*
X142264363Y-91872973D01*
X142281759Y-92049600D01*
X142264363Y-92226227D01*
X142262663Y-92231830D01*
X142212843Y-92396067D01*
X142138748Y-92534687D01*
X142129178Y-92552591D01*
X142099848Y-92588329D01*
X142016586Y-92689786D01*
X141931071Y-92759965D01*
X141879391Y-92802378D01*
X141879389Y-92802379D01*
X141722867Y-92886043D01*
X141666253Y-92903216D01*
X141553027Y-92937563D01*
X141486842Y-92944082D01*
X141420660Y-92950600D01*
X141332140Y-92950600D01*
X141265958Y-92944082D01*
X141199773Y-92937563D01*
X141086547Y-92903216D01*
X141029933Y-92886043D01*
X140873411Y-92802379D01*
X140873409Y-92802378D01*
X140821729Y-92759965D01*
X140736214Y-92689786D01*
X140652952Y-92588329D01*
X140623622Y-92552591D01*
X140614052Y-92534687D01*
X140539957Y-92396067D01*
X140490137Y-92231830D01*
X140488437Y-92226227D01*
X140471041Y-92049600D01*
X140488437Y-91872973D01*
X140522784Y-91759747D01*
X140539957Y-91703133D01*
X140623621Y-91546611D01*
X140623622Y-91546609D01*
X140653363Y-91510370D01*
X140736214Y-91409414D01*
X140837671Y-91326152D01*
X140873409Y-91296822D01*
X140891313Y-91287252D01*
X141029933Y-91213157D01*
X141086547Y-91195984D01*
X141199773Y-91161637D01*
X141265957Y-91155119D01*
X141332140Y-91148600D01*
X141420660Y-91148600D01*
X141486843Y-91155119D01*
X141486843Y-91155119D01*
G37*
G36*
X182759360Y-90664205D02*
X182794511Y-90674869D01*
X182826909Y-90692186D01*
X182855308Y-90715492D01*
X182878614Y-90743891D01*
X182895931Y-90776289D01*
X182906595Y-90811440D01*
X182910800Y-90854140D01*
X182910800Y-91517860D01*
X182906595Y-91560560D01*
X182895931Y-91595711D01*
X182878614Y-91628109D01*
X182855308Y-91656508D01*
X182826909Y-91679814D01*
X182794511Y-91697131D01*
X182759360Y-91707795D01*
X182716660Y-91712000D01*
X182102940Y-91712000D01*
X182060240Y-91707795D01*
X182025089Y-91697131D01*
X181992691Y-91679814D01*
X181964292Y-91656508D01*
X181940986Y-91628109D01*
X181923669Y-91595711D01*
X181913005Y-91560560D01*
X181908800Y-91517860D01*
X181908800Y-90854140D01*
X181913005Y-90811440D01*
X181923669Y-90776289D01*
X181940986Y-90743891D01*
X181964292Y-90715492D01*
X181992691Y-90692186D01*
X182025089Y-90674869D01*
X182060240Y-90664205D01*
X182102940Y-90660000D01*
X182716660Y-90660000D01*
X182759360Y-90664205D01*
X182759360Y-90664205D01*
G37*
G36*
X184309360Y-90664205D02*
X184344511Y-90674869D01*
X184376909Y-90692186D01*
X184405308Y-90715492D01*
X184428614Y-90743891D01*
X184445931Y-90776289D01*
X184456595Y-90811440D01*
X184460800Y-90854140D01*
X184460800Y-91517860D01*
X184456595Y-91560560D01*
X184445931Y-91595711D01*
X184428614Y-91628109D01*
X184405308Y-91656508D01*
X184376909Y-91679814D01*
X184344511Y-91697131D01*
X184309360Y-91707795D01*
X184266660Y-91712000D01*
X183652940Y-91712000D01*
X183610240Y-91707795D01*
X183575089Y-91697131D01*
X183542691Y-91679814D01*
X183514292Y-91656508D01*
X183490986Y-91628109D01*
X183473669Y-91595711D01*
X183463005Y-91560560D01*
X183458800Y-91517860D01*
X183458800Y-90854140D01*
X183463005Y-90811440D01*
X183473669Y-90776289D01*
X183490986Y-90743891D01*
X183514292Y-90715492D01*
X183542691Y-90692186D01*
X183575089Y-90674869D01*
X183610240Y-90664205D01*
X183652940Y-90660000D01*
X184266660Y-90660000D01*
X184309360Y-90664205D01*
X184309360Y-90664205D01*
G37*
G36*
X142277400Y-90410600D02*
X140475400Y-90410600D01*
X140475400Y-88608600D01*
X142277400Y-88608600D01*
X142277400Y-90410600D01*
X142277400Y-90410600D01*
G37*
G36*
X182679483Y-89190525D02*
X182709944Y-89199766D01*
X182738023Y-89214775D01*
X182762631Y-89234969D01*
X182782825Y-89259577D01*
X182797834Y-89287656D01*
X182807075Y-89318117D01*
X182810800Y-89355940D01*
X182810800Y-90069660D01*
X182807075Y-90107483D01*
X182797834Y-90137944D01*
X182782825Y-90166023D01*
X182762631Y-90190631D01*
X182738023Y-90210825D01*
X182709944Y-90225834D01*
X182679483Y-90235075D01*
X182641660Y-90238800D01*
X182077940Y-90238800D01*
X182040117Y-90235075D01*
X182009656Y-90225834D01*
X181981577Y-90210825D01*
X181956969Y-90190631D01*
X181936775Y-90166023D01*
X181921766Y-90137944D01*
X181912525Y-90107483D01*
X181908800Y-90069660D01*
X181908800Y-89355940D01*
X181912525Y-89318117D01*
X181921766Y-89287656D01*
X181936775Y-89259577D01*
X181956969Y-89234969D01*
X181981577Y-89214775D01*
X182009656Y-89199766D01*
X182040117Y-89190525D01*
X182077940Y-89186800D01*
X182641660Y-89186800D01*
X182679483Y-89190525D01*
X182679483Y-89190525D01*
G37*
G36*
X184329483Y-89190525D02*
X184359944Y-89199766D01*
X184388023Y-89214775D01*
X184412631Y-89234969D01*
X184432825Y-89259577D01*
X184447834Y-89287656D01*
X184457075Y-89318117D01*
X184460800Y-89355940D01*
X184460800Y-90069660D01*
X184457075Y-90107483D01*
X184447834Y-90137944D01*
X184432825Y-90166023D01*
X184412631Y-90190631D01*
X184388023Y-90210825D01*
X184359944Y-90225834D01*
X184329483Y-90235075D01*
X184291660Y-90238800D01*
X183727940Y-90238800D01*
X183690117Y-90235075D01*
X183659656Y-90225834D01*
X183631577Y-90210825D01*
X183606969Y-90190631D01*
X183586775Y-90166023D01*
X183571766Y-90137944D01*
X183562525Y-90107483D01*
X183558800Y-90069660D01*
X183558800Y-89355940D01*
X183562525Y-89318117D01*
X183571766Y-89287656D01*
X183586775Y-89259577D01*
X183606969Y-89234969D01*
X183631577Y-89214775D01*
X183659656Y-89199766D01*
X183690117Y-89190525D01*
X183727940Y-89186800D01*
X184291660Y-89186800D01*
X184329483Y-89190525D01*
X184329483Y-89190525D01*
G37*
G36*
X147430442Y-84449518D02*
X147496627Y-84456037D01*
X147609853Y-84490384D01*
X147666467Y-84507557D01*
X147805087Y-84581652D01*
X147822991Y-84591222D01*
X147858729Y-84620552D01*
X147960186Y-84703814D01*
X148043448Y-84805271D01*
X148072778Y-84841009D01*
X148072779Y-84841011D01*
X148156443Y-84997533D01*
X148156443Y-84997534D01*
X148207963Y-85167373D01*
X148225359Y-85344000D01*
X148207963Y-85520627D01*
X148173616Y-85633853D01*
X148156443Y-85690467D01*
X148082348Y-85829087D01*
X148072778Y-85846991D01*
X148043448Y-85882729D01*
X147960186Y-85984186D01*
X147858729Y-86067448D01*
X147822991Y-86096778D01*
X147822989Y-86096779D01*
X147666467Y-86180443D01*
X147609853Y-86197616D01*
X147496627Y-86231963D01*
X147430442Y-86238482D01*
X147364260Y-86245000D01*
X147275740Y-86245000D01*
X147209558Y-86238482D01*
X147143373Y-86231963D01*
X147030147Y-86197616D01*
X146973533Y-86180443D01*
X146817011Y-86096779D01*
X146817009Y-86096778D01*
X146781271Y-86067448D01*
X146679814Y-85984186D01*
X146596552Y-85882729D01*
X146567222Y-85846991D01*
X146557652Y-85829087D01*
X146483557Y-85690467D01*
X146466384Y-85633853D01*
X146432037Y-85520627D01*
X146414641Y-85344000D01*
X146432037Y-85167373D01*
X146483557Y-84997534D01*
X146483557Y-84997533D01*
X146567221Y-84841011D01*
X146567222Y-84841009D01*
X146596552Y-84805271D01*
X146679814Y-84703814D01*
X146781271Y-84620552D01*
X146817009Y-84591222D01*
X146834913Y-84581652D01*
X146973533Y-84507557D01*
X147030147Y-84490384D01*
X147143373Y-84456037D01*
X147209558Y-84449518D01*
X147275740Y-84443000D01*
X147364260Y-84443000D01*
X147430442Y-84449518D01*
X147430442Y-84449518D01*
G37*
G36*
X147430442Y-81909518D02*
X147496627Y-81916037D01*
X147609853Y-81950384D01*
X147666467Y-81967557D01*
X147805087Y-82041652D01*
X147822991Y-82051222D01*
X147858729Y-82080552D01*
X147960186Y-82163814D01*
X148043448Y-82265271D01*
X148072778Y-82301009D01*
X148072779Y-82301011D01*
X148156443Y-82457533D01*
X148156443Y-82457534D01*
X148207963Y-82627373D01*
X148225359Y-82804000D01*
X148207963Y-82980627D01*
X148173616Y-83093853D01*
X148156443Y-83150467D01*
X148082348Y-83289087D01*
X148072778Y-83306991D01*
X148043448Y-83342729D01*
X147960186Y-83444186D01*
X147858729Y-83527448D01*
X147822991Y-83556778D01*
X147822989Y-83556779D01*
X147666467Y-83640443D01*
X147609853Y-83657616D01*
X147496627Y-83691963D01*
X147430442Y-83698482D01*
X147364260Y-83705000D01*
X147275740Y-83705000D01*
X147209558Y-83698482D01*
X147143373Y-83691963D01*
X147030147Y-83657616D01*
X146973533Y-83640443D01*
X146817011Y-83556779D01*
X146817009Y-83556778D01*
X146781271Y-83527448D01*
X146679814Y-83444186D01*
X146596552Y-83342729D01*
X146567222Y-83306991D01*
X146557652Y-83289087D01*
X146483557Y-83150467D01*
X146466384Y-83093853D01*
X146432037Y-82980627D01*
X146414641Y-82804000D01*
X146432037Y-82627373D01*
X146483557Y-82457534D01*
X146483557Y-82457533D01*
X146567221Y-82301011D01*
X146567222Y-82301009D01*
X146596552Y-82265271D01*
X146679814Y-82163814D01*
X146781271Y-82080552D01*
X146817009Y-82051222D01*
X146834913Y-82041652D01*
X146973533Y-81967557D01*
X147030147Y-81950384D01*
X147143373Y-81916037D01*
X147209558Y-81909518D01*
X147275740Y-81903000D01*
X147364260Y-81903000D01*
X147430442Y-81909518D01*
X147430442Y-81909518D01*
G37*
G36*
X162823000Y-82376200D02*
X161821000Y-82376200D01*
X161821000Y-81474200D01*
X162823000Y-81474200D01*
X162823000Y-82376200D01*
X162823000Y-82376200D01*
G37*
G36*
X173484683Y-80757725D02*
X173515144Y-80766966D01*
X173543223Y-80781975D01*
X173567831Y-80802169D01*
X173588025Y-80826777D01*
X173603034Y-80854856D01*
X173612275Y-80885317D01*
X173616000Y-80923140D01*
X173616000Y-81636860D01*
X173612275Y-81674683D01*
X173603034Y-81705144D01*
X173588025Y-81733223D01*
X173567831Y-81757831D01*
X173543223Y-81778025D01*
X173515144Y-81793034D01*
X173484683Y-81802275D01*
X173446860Y-81806000D01*
X172883140Y-81806000D01*
X172845317Y-81802275D01*
X172814856Y-81793034D01*
X172786777Y-81778025D01*
X172762169Y-81757831D01*
X172741975Y-81733223D01*
X172726966Y-81705144D01*
X172717725Y-81674683D01*
X172714000Y-81636860D01*
X172714000Y-80923140D01*
X172717725Y-80885317D01*
X172726966Y-80854856D01*
X172741975Y-80826777D01*
X172762169Y-80802169D01*
X172786777Y-80781975D01*
X172814856Y-80766966D01*
X172845317Y-80757725D01*
X172883140Y-80754000D01*
X173446860Y-80754000D01*
X173484683Y-80757725D01*
X173484683Y-80757725D01*
G37*
G36*
X175134683Y-80757725D02*
X175165144Y-80766966D01*
X175193223Y-80781975D01*
X175217831Y-80802169D01*
X175238025Y-80826777D01*
X175253034Y-80854856D01*
X175262275Y-80885317D01*
X175266000Y-80923140D01*
X175266000Y-81636860D01*
X175262275Y-81674683D01*
X175253034Y-81705144D01*
X175238025Y-81733223D01*
X175217831Y-81757831D01*
X175193223Y-81778025D01*
X175165144Y-81793034D01*
X175134683Y-81802275D01*
X175096860Y-81806000D01*
X174533140Y-81806000D01*
X174495317Y-81802275D01*
X174464856Y-81793034D01*
X174436777Y-81778025D01*
X174412169Y-81757831D01*
X174391975Y-81733223D01*
X174376966Y-81705144D01*
X174367725Y-81674683D01*
X174364000Y-81636860D01*
X174364000Y-80923140D01*
X174367725Y-80885317D01*
X174376966Y-80854856D01*
X174391975Y-80826777D01*
X174412169Y-80802169D01*
X174436777Y-80781975D01*
X174464856Y-80766966D01*
X174495317Y-80757725D01*
X174533140Y-80754000D01*
X175096860Y-80754000D01*
X175134683Y-80757725D01*
X175134683Y-80757725D01*
G37*
G36*
X164823000Y-81426200D02*
X163821000Y-81426200D01*
X163821000Y-80524200D01*
X164823000Y-80524200D01*
X164823000Y-81426200D01*
X164823000Y-81426200D01*
G37*
G36*
X147430442Y-79369518D02*
X147496627Y-79376037D01*
X147609853Y-79410384D01*
X147666467Y-79427557D01*
X147772063Y-79484000D01*
X147822991Y-79511222D01*
X147848515Y-79532169D01*
X147960186Y-79623814D01*
X148043448Y-79725271D01*
X148072778Y-79761009D01*
X148072779Y-79761011D01*
X148156443Y-79917533D01*
X148156443Y-79917534D01*
X148207963Y-80087373D01*
X148225359Y-80264000D01*
X148207963Y-80440627D01*
X148190560Y-80497996D01*
X148156443Y-80610467D01*
X148082348Y-80749087D01*
X148072778Y-80766991D01*
X148052250Y-80792004D01*
X147960186Y-80904186D01*
X147868414Y-80979500D01*
X147822991Y-81016778D01*
X147822989Y-81016779D01*
X147666467Y-81100443D01*
X147609853Y-81117616D01*
X147496627Y-81151963D01*
X147430443Y-81158481D01*
X147364260Y-81165000D01*
X147275740Y-81165000D01*
X147209557Y-81158481D01*
X147143373Y-81151963D01*
X147030147Y-81117616D01*
X146973533Y-81100443D01*
X146817011Y-81016779D01*
X146817009Y-81016778D01*
X146771586Y-80979500D01*
X146679814Y-80904186D01*
X146587750Y-80792004D01*
X146567222Y-80766991D01*
X146557652Y-80749087D01*
X146483557Y-80610467D01*
X146449440Y-80497996D01*
X146432037Y-80440627D01*
X146414641Y-80264000D01*
X146432037Y-80087373D01*
X146483557Y-79917534D01*
X146483557Y-79917533D01*
X146567221Y-79761011D01*
X146567222Y-79761009D01*
X146596552Y-79725271D01*
X146679814Y-79623814D01*
X146791485Y-79532169D01*
X146817009Y-79511222D01*
X146867937Y-79484000D01*
X146973533Y-79427557D01*
X147030147Y-79410384D01*
X147143373Y-79376037D01*
X147209558Y-79369518D01*
X147275740Y-79363000D01*
X147364260Y-79363000D01*
X147430442Y-79369518D01*
X147430442Y-79369518D01*
G37*
G36*
X160961483Y-79487725D02*
X160991944Y-79496966D01*
X161020023Y-79511975D01*
X161044631Y-79532169D01*
X161064825Y-79556777D01*
X161079834Y-79584856D01*
X161089075Y-79615317D01*
X161092800Y-79653140D01*
X161092800Y-80366860D01*
X161089075Y-80404683D01*
X161079834Y-80435144D01*
X161064825Y-80463223D01*
X161044631Y-80487831D01*
X161020023Y-80508025D01*
X160991944Y-80523034D01*
X160961483Y-80532275D01*
X160923660Y-80536000D01*
X160359940Y-80536000D01*
X160322117Y-80532275D01*
X160291656Y-80523034D01*
X160263577Y-80508025D01*
X160238969Y-80487831D01*
X160218775Y-80463223D01*
X160203766Y-80435144D01*
X160194525Y-80404683D01*
X160190800Y-80366860D01*
X160190800Y-79653140D01*
X160194525Y-79615317D01*
X160203766Y-79584856D01*
X160218775Y-79556777D01*
X160238969Y-79532169D01*
X160263577Y-79511975D01*
X160291656Y-79496966D01*
X160322117Y-79487725D01*
X160359940Y-79484000D01*
X160923660Y-79484000D01*
X160961483Y-79487725D01*
X160961483Y-79487725D01*
G37*
G36*
X159311483Y-79487725D02*
X159341944Y-79496966D01*
X159370023Y-79511975D01*
X159394631Y-79532169D01*
X159414825Y-79556777D01*
X159429834Y-79584856D01*
X159439075Y-79615317D01*
X159442800Y-79653140D01*
X159442800Y-80366860D01*
X159439075Y-80404683D01*
X159429834Y-80435144D01*
X159414825Y-80463223D01*
X159394631Y-80487831D01*
X159370023Y-80508025D01*
X159341944Y-80523034D01*
X159311483Y-80532275D01*
X159273660Y-80536000D01*
X158709940Y-80536000D01*
X158672117Y-80532275D01*
X158641656Y-80523034D01*
X158613577Y-80508025D01*
X158588969Y-80487831D01*
X158568775Y-80463223D01*
X158553766Y-80435144D01*
X158544525Y-80404683D01*
X158540800Y-80366860D01*
X158540800Y-79653140D01*
X158544525Y-79615317D01*
X158553766Y-79584856D01*
X158568775Y-79556777D01*
X158588969Y-79532169D01*
X158613577Y-79511975D01*
X158641656Y-79496966D01*
X158672117Y-79487725D01*
X158709940Y-79484000D01*
X159273660Y-79484000D01*
X159311483Y-79487725D01*
X159311483Y-79487725D01*
G37*
G36*
X162823000Y-80476200D02*
X161821000Y-80476200D01*
X161821000Y-79574200D01*
X162823000Y-79574200D01*
X162823000Y-80476200D01*
X162823000Y-80476200D01*
G37*
G36*
X175134683Y-79233725D02*
X175165144Y-79242966D01*
X175193223Y-79257975D01*
X175217831Y-79278169D01*
X175238025Y-79302777D01*
X175253034Y-79330856D01*
X175262275Y-79361317D01*
X175266000Y-79399140D01*
X175266000Y-80112860D01*
X175262275Y-80150683D01*
X175253034Y-80181144D01*
X175238025Y-80209223D01*
X175217831Y-80233831D01*
X175193223Y-80254025D01*
X175165144Y-80269034D01*
X175134683Y-80278275D01*
X175096860Y-80282000D01*
X174533140Y-80282000D01*
X174495317Y-80278275D01*
X174464856Y-80269034D01*
X174436777Y-80254025D01*
X174412169Y-80233831D01*
X174391975Y-80209223D01*
X174376966Y-80181144D01*
X174367725Y-80150683D01*
X174364000Y-80112860D01*
X174364000Y-79399140D01*
X174367725Y-79361317D01*
X174376966Y-79330856D01*
X174391975Y-79302777D01*
X174412169Y-79278169D01*
X174436777Y-79257975D01*
X174464856Y-79242966D01*
X174495317Y-79233725D01*
X174533140Y-79230000D01*
X175096860Y-79230000D01*
X175134683Y-79233725D01*
X175134683Y-79233725D01*
G37*
G36*
X173484683Y-79233725D02*
X173515144Y-79242966D01*
X173543223Y-79257975D01*
X173567831Y-79278169D01*
X173588025Y-79302777D01*
X173603034Y-79330856D01*
X173612275Y-79361317D01*
X173616000Y-79399140D01*
X173616000Y-80112860D01*
X173612275Y-80150683D01*
X173603034Y-80181144D01*
X173588025Y-80209223D01*
X173567831Y-80233831D01*
X173543223Y-80254025D01*
X173515144Y-80269034D01*
X173484683Y-80278275D01*
X173446860Y-80282000D01*
X172883140Y-80282000D01*
X172845317Y-80278275D01*
X172814856Y-80269034D01*
X172786777Y-80254025D01*
X172762169Y-80233831D01*
X172741975Y-80209223D01*
X172726966Y-80181144D01*
X172717725Y-80150683D01*
X172714000Y-80112860D01*
X172714000Y-79399140D01*
X172717725Y-79361317D01*
X172726966Y-79330856D01*
X172741975Y-79302777D01*
X172762169Y-79278169D01*
X172786777Y-79257975D01*
X172814856Y-79242966D01*
X172845317Y-79233725D01*
X172883140Y-79230000D01*
X173446860Y-79230000D01*
X173484683Y-79233725D01*
X173484683Y-79233725D01*
G37*
G36*
X162823000Y-78820200D02*
X161821000Y-78820200D01*
X161821000Y-77918200D01*
X162823000Y-77918200D01*
X162823000Y-78820200D01*
X162823000Y-78820200D01*
G37*
G36*
X147430443Y-76829519D02*
X147496627Y-76836037D01*
X147609853Y-76870384D01*
X147666467Y-76887557D01*
X147787076Y-76952025D01*
X147822991Y-76971222D01*
X147858729Y-77000552D01*
X147960186Y-77083814D01*
X148043448Y-77185271D01*
X148072778Y-77221009D01*
X148072779Y-77221011D01*
X148156443Y-77377533D01*
X148156443Y-77377534D01*
X148207963Y-77547373D01*
X148225359Y-77724000D01*
X148207963Y-77900627D01*
X148202632Y-77918200D01*
X148156443Y-78070467D01*
X148082348Y-78209087D01*
X148072778Y-78226991D01*
X148043448Y-78262729D01*
X147960186Y-78364186D01*
X147858729Y-78447448D01*
X147822991Y-78476778D01*
X147822989Y-78476779D01*
X147666467Y-78560443D01*
X147609853Y-78577616D01*
X147496627Y-78611963D01*
X147430442Y-78618482D01*
X147364260Y-78625000D01*
X147275740Y-78625000D01*
X147209558Y-78618482D01*
X147143373Y-78611963D01*
X147030147Y-78577616D01*
X146973533Y-78560443D01*
X146817011Y-78476779D01*
X146817009Y-78476778D01*
X146781271Y-78447448D01*
X146679814Y-78364186D01*
X146596552Y-78262729D01*
X146567222Y-78226991D01*
X146557652Y-78209087D01*
X146483557Y-78070467D01*
X146437368Y-77918200D01*
X146432037Y-77900627D01*
X146414641Y-77724000D01*
X146432037Y-77547373D01*
X146483557Y-77377534D01*
X146483557Y-77377533D01*
X146567221Y-77221011D01*
X146567222Y-77221009D01*
X146596552Y-77185271D01*
X146679814Y-77083814D01*
X146781271Y-77000552D01*
X146817009Y-76971222D01*
X146852924Y-76952025D01*
X146973533Y-76887557D01*
X147030147Y-76870384D01*
X147143373Y-76836037D01*
X147209557Y-76829519D01*
X147275740Y-76823000D01*
X147364260Y-76823000D01*
X147430443Y-76829519D01*
X147430443Y-76829519D01*
G37*
G36*
X164823000Y-77870200D02*
X163821000Y-77870200D01*
X163821000Y-76968200D01*
X164823000Y-76968200D01*
X164823000Y-77870200D01*
X164823000Y-77870200D01*
G37*
G36*
X159311483Y-75931725D02*
X159341944Y-75940966D01*
X159370023Y-75955975D01*
X159394631Y-75976169D01*
X159414825Y-76000777D01*
X159429834Y-76028856D01*
X159439075Y-76059317D01*
X159442800Y-76097140D01*
X159442800Y-76810860D01*
X159439075Y-76848683D01*
X159429834Y-76879144D01*
X159414825Y-76907223D01*
X159394631Y-76931831D01*
X159370023Y-76952025D01*
X159341944Y-76967034D01*
X159311483Y-76976275D01*
X159273660Y-76980000D01*
X158709940Y-76980000D01*
X158672117Y-76976275D01*
X158641656Y-76967034D01*
X158613577Y-76952025D01*
X158588969Y-76931831D01*
X158568775Y-76907223D01*
X158553766Y-76879144D01*
X158544525Y-76848683D01*
X158540800Y-76810860D01*
X158540800Y-76097140D01*
X158544525Y-76059317D01*
X158553766Y-76028856D01*
X158568775Y-76000777D01*
X158588969Y-75976169D01*
X158613577Y-75955975D01*
X158641656Y-75940966D01*
X158672117Y-75931725D01*
X158709940Y-75928000D01*
X159273660Y-75928000D01*
X159311483Y-75931725D01*
X159311483Y-75931725D01*
G37*
G36*
X160961483Y-75931725D02*
X160991944Y-75940966D01*
X161020023Y-75955975D01*
X161044631Y-75976169D01*
X161064825Y-76000777D01*
X161079834Y-76028856D01*
X161089075Y-76059317D01*
X161092800Y-76097140D01*
X161092800Y-76810860D01*
X161089075Y-76848683D01*
X161079834Y-76879144D01*
X161064825Y-76907223D01*
X161044631Y-76931831D01*
X161020023Y-76952025D01*
X160991944Y-76967034D01*
X160961483Y-76976275D01*
X160923660Y-76980000D01*
X160359940Y-76980000D01*
X160322117Y-76976275D01*
X160291656Y-76967034D01*
X160263577Y-76952025D01*
X160238969Y-76931831D01*
X160218775Y-76907223D01*
X160203766Y-76879144D01*
X160194525Y-76848683D01*
X160190800Y-76810860D01*
X160190800Y-76097140D01*
X160194525Y-76059317D01*
X160203766Y-76028856D01*
X160218775Y-76000777D01*
X160238969Y-75976169D01*
X160263577Y-75955975D01*
X160291656Y-75940966D01*
X160322117Y-75931725D01*
X160359940Y-75928000D01*
X160923660Y-75928000D01*
X160961483Y-75931725D01*
X160961483Y-75931725D01*
G37*
G36*
X162823000Y-76920200D02*
X161821000Y-76920200D01*
X161821000Y-76018200D01*
X162823000Y-76018200D01*
X162823000Y-76920200D01*
X162823000Y-76920200D01*
G37*
G36*
X142807642Y-74899118D02*
X142873827Y-74905637D01*
X142987053Y-74939984D01*
X143043667Y-74957157D01*
X143137613Y-75007373D01*
X143200191Y-75040822D01*
X143235929Y-75070152D01*
X143337386Y-75153414D01*
X143420648Y-75254871D01*
X143449978Y-75290609D01*
X143449979Y-75290611D01*
X143533643Y-75447133D01*
X143533643Y-75447134D01*
X143585163Y-75616973D01*
X143602559Y-75793600D01*
X143585163Y-75970227D01*
X143569930Y-76020443D01*
X143533643Y-76140067D01*
X143459548Y-76278687D01*
X143449978Y-76296591D01*
X143420648Y-76332329D01*
X143337386Y-76433786D01*
X143235929Y-76517048D01*
X143200191Y-76546378D01*
X143200189Y-76546379D01*
X143043667Y-76630043D01*
X142987053Y-76647216D01*
X142873827Y-76681563D01*
X142807642Y-76688082D01*
X142741460Y-76694600D01*
X142652940Y-76694600D01*
X142586758Y-76688082D01*
X142520573Y-76681563D01*
X142407347Y-76647216D01*
X142350733Y-76630043D01*
X142194211Y-76546379D01*
X142194209Y-76546378D01*
X142158471Y-76517048D01*
X142057014Y-76433786D01*
X141973752Y-76332329D01*
X141944422Y-76296591D01*
X141934852Y-76278687D01*
X141860757Y-76140067D01*
X141824470Y-76020443D01*
X141809237Y-75970227D01*
X141791841Y-75793600D01*
X141809237Y-75616973D01*
X141860757Y-75447134D01*
X141860757Y-75447133D01*
X141944421Y-75290611D01*
X141944422Y-75290609D01*
X141973752Y-75254871D01*
X142057014Y-75153414D01*
X142158471Y-75070152D01*
X142194209Y-75040822D01*
X142256787Y-75007373D01*
X142350733Y-74957157D01*
X142407347Y-74939984D01*
X142520573Y-74905637D01*
X142586758Y-74899118D01*
X142652940Y-74892600D01*
X142741460Y-74892600D01*
X142807642Y-74899118D01*
X142807642Y-74899118D01*
G37*
G36*
X147430442Y-74289518D02*
X147496627Y-74296037D01*
X147609853Y-74330384D01*
X147666467Y-74347557D01*
X147805087Y-74421652D01*
X147822991Y-74431222D01*
X147858729Y-74460552D01*
X147960186Y-74543814D01*
X148043448Y-74645271D01*
X148072778Y-74681009D01*
X148072779Y-74681011D01*
X148156443Y-74837533D01*
X148156443Y-74837534D01*
X148207963Y-75007373D01*
X148225359Y-75184000D01*
X148207963Y-75360627D01*
X148181722Y-75447133D01*
X148156443Y-75530467D01*
X148110204Y-75616973D01*
X148072778Y-75686991D01*
X148043448Y-75722729D01*
X147960186Y-75824186D01*
X147858729Y-75907448D01*
X147822991Y-75936778D01*
X147822989Y-75936779D01*
X147666467Y-76020443D01*
X147609853Y-76037616D01*
X147496627Y-76071963D01*
X147430443Y-76078481D01*
X147364260Y-76085000D01*
X147275740Y-76085000D01*
X147209557Y-76078481D01*
X147143373Y-76071963D01*
X147030147Y-76037616D01*
X146973533Y-76020443D01*
X146817011Y-75936779D01*
X146817009Y-75936778D01*
X146781271Y-75907448D01*
X146679814Y-75824186D01*
X146596552Y-75722729D01*
X146567222Y-75686991D01*
X146529796Y-75616973D01*
X146483557Y-75530467D01*
X146458278Y-75447133D01*
X146432037Y-75360627D01*
X146414641Y-75184000D01*
X146432037Y-75007373D01*
X146483557Y-74837534D01*
X146483557Y-74837533D01*
X146567221Y-74681011D01*
X146567222Y-74681009D01*
X146596552Y-74645271D01*
X146679814Y-74543814D01*
X146781271Y-74460552D01*
X146817009Y-74431222D01*
X146834913Y-74421652D01*
X146973533Y-74347557D01*
X147030147Y-74330384D01*
X147143373Y-74296037D01*
X147209558Y-74289518D01*
X147275740Y-74283000D01*
X147364260Y-74283000D01*
X147430442Y-74289518D01*
X147430442Y-74289518D01*
G37*
G36*
X143598200Y-74154600D02*
X141796200Y-74154600D01*
X141796200Y-72352600D01*
X143598200Y-72352600D01*
X143598200Y-74154600D01*
X143598200Y-74154600D01*
G37*
G36*
X148221000Y-73545000D02*
X146419000Y-73545000D01*
X146419000Y-71743000D01*
X148221000Y-71743000D01*
X148221000Y-73545000D01*
X148221000Y-73545000D01*
G37*
G36*
X139302233Y-71517086D02*
X139342081Y-71529174D01*
X139378801Y-71548801D01*
X139410986Y-71575214D01*
X139437399Y-71607399D01*
X139457026Y-71644119D01*
X139469114Y-71683967D01*
X139473800Y-71731541D01*
X139473800Y-72845259D01*
X139469114Y-72892833D01*
X139457026Y-72932681D01*
X139437399Y-72969401D01*
X139410986Y-73001586D01*
X139378801Y-73027999D01*
X139342081Y-73047626D01*
X139302233Y-73059714D01*
X139254659Y-73064400D01*
X138590941Y-73064400D01*
X138543367Y-73059714D01*
X138503519Y-73047626D01*
X138466799Y-73027999D01*
X138434614Y-73001586D01*
X138408201Y-72969401D01*
X138388574Y-72932681D01*
X138376486Y-72892833D01*
X138371800Y-72845259D01*
X138371800Y-71731541D01*
X138376486Y-71683967D01*
X138388574Y-71644119D01*
X138408201Y-71607399D01*
X138434614Y-71575214D01*
X138466799Y-71548801D01*
X138503519Y-71529174D01*
X138543367Y-71517086D01*
X138590941Y-71512400D01*
X139254659Y-71512400D01*
X139302233Y-71517086D01*
X139302233Y-71517086D01*
G37*
G36*
X137402233Y-71517086D02*
X137442081Y-71529174D01*
X137478801Y-71548801D01*
X137510986Y-71575214D01*
X137537399Y-71607399D01*
X137557026Y-71644119D01*
X137569114Y-71683967D01*
X137573800Y-71731541D01*
X137573800Y-72845259D01*
X137569114Y-72892833D01*
X137557026Y-72932681D01*
X137537399Y-72969401D01*
X137510986Y-73001586D01*
X137478801Y-73027999D01*
X137442081Y-73047626D01*
X137402233Y-73059714D01*
X137354659Y-73064400D01*
X136690941Y-73064400D01*
X136643367Y-73059714D01*
X136603519Y-73047626D01*
X136566799Y-73027999D01*
X136534614Y-73001586D01*
X136508201Y-72969401D01*
X136488574Y-72932681D01*
X136476486Y-72892833D01*
X136471800Y-72845259D01*
X136471800Y-71731541D01*
X136476486Y-71683967D01*
X136488574Y-71644119D01*
X136508201Y-71607399D01*
X136534614Y-71575214D01*
X136566799Y-71548801D01*
X136603519Y-71529174D01*
X136643367Y-71517086D01*
X136690941Y-71512400D01*
X137354659Y-71512400D01*
X137402233Y-71517086D01*
X137402233Y-71517086D01*
G37*
G36*
X170329327Y-64477936D02*
X170429210Y-64497804D01*
X170711474Y-64614721D01*
X170965505Y-64784459D01*
X171181541Y-65000495D01*
X171351279Y-65254526D01*
X171468196Y-65536790D01*
X171527800Y-65836440D01*
X171527800Y-66141960D01*
X171468196Y-66441610D01*
X171351279Y-66723874D01*
X171181541Y-66977905D01*
X170965505Y-67193941D01*
X170711474Y-67363679D01*
X170429210Y-67480596D01*
X170329327Y-67500464D01*
X170129562Y-67540200D01*
X169824038Y-67540200D01*
X169624273Y-67500464D01*
X169524390Y-67480596D01*
X169242126Y-67363679D01*
X168988095Y-67193941D01*
X168772059Y-66977905D01*
X168602321Y-66723874D01*
X168485404Y-66441610D01*
X168425800Y-66141960D01*
X168425800Y-65836440D01*
X168485404Y-65536790D01*
X168602321Y-65254526D01*
X168772059Y-65000495D01*
X168988095Y-64784459D01*
X169242126Y-64614721D01*
X169524390Y-64497804D01*
X169624273Y-64477936D01*
X169824038Y-64438200D01*
X170129562Y-64438200D01*
X170329327Y-64477936D01*
X170329327Y-64477936D01*
G37*
G36*
X165629327Y-64477936D02*
X165729210Y-64497804D01*
X166011474Y-64614721D01*
X166265505Y-64784459D01*
X166481541Y-65000495D01*
X166651279Y-65254526D01*
X166768196Y-65536790D01*
X166827800Y-65836440D01*
X166827800Y-66141960D01*
X166768196Y-66441610D01*
X166651279Y-66723874D01*
X166481541Y-66977905D01*
X166265505Y-67193941D01*
X166011474Y-67363679D01*
X165729210Y-67480596D01*
X165629327Y-67500464D01*
X165429562Y-67540200D01*
X165124038Y-67540200D01*
X164924273Y-67500464D01*
X164824390Y-67480596D01*
X164542126Y-67363679D01*
X164288095Y-67193941D01*
X164072059Y-66977905D01*
X163902321Y-66723874D01*
X163785404Y-66441610D01*
X163725800Y-66141960D01*
X163725800Y-65836440D01*
X163785404Y-65536790D01*
X163902321Y-65254526D01*
X164072059Y-65000495D01*
X164288095Y-64784459D01*
X164542126Y-64614721D01*
X164824390Y-64497804D01*
X164924273Y-64477936D01*
X165124038Y-64438200D01*
X165429562Y-64438200D01*
X165629327Y-64477936D01*
X165629327Y-64477936D01*
G37*
G36*
X175029327Y-64477936D02*
X175129210Y-64497804D01*
X175411474Y-64614721D01*
X175665505Y-64784459D01*
X175881541Y-65000495D01*
X176051279Y-65254526D01*
X176168196Y-65536790D01*
X176227800Y-65836440D01*
X176227800Y-66141960D01*
X176168196Y-66441610D01*
X176051279Y-66723874D01*
X175881541Y-66977905D01*
X175665505Y-67193941D01*
X175411474Y-67363679D01*
X175129210Y-67480596D01*
X175029327Y-67500464D01*
X174829562Y-67540200D01*
X174524038Y-67540200D01*
X174324273Y-67500464D01*
X174224390Y-67480596D01*
X173942126Y-67363679D01*
X173688095Y-67193941D01*
X173472059Y-66977905D01*
X173302321Y-66723874D01*
X173185404Y-66441610D01*
X173125800Y-66141960D01*
X173125800Y-65836440D01*
X173185404Y-65536790D01*
X173302321Y-65254526D01*
X173472059Y-65000495D01*
X173688095Y-64784459D01*
X173942126Y-64614721D01*
X174224390Y-64497804D01*
X174324273Y-64477936D01*
X174524038Y-64438200D01*
X174829562Y-64438200D01*
X175029327Y-64477936D01*
X175029327Y-64477936D01*
G37*
G36*
X185292239Y-56120467D02*
X185606282Y-56182934D01*
X186197926Y-56428001D01*
X186652582Y-56731793D01*
X186730395Y-56783786D01*
X187183214Y-57236605D01*
X187183216Y-57236608D01*
X187538999Y-57769074D01*
X187784066Y-58360718D01*
X187784066Y-58360719D01*
X187909000Y-58988803D01*
X187909000Y-59629197D01*
X187846533Y-59943239D01*
X187784066Y-60257282D01*
X187538999Y-60848926D01*
X187291265Y-61219685D01*
X187183214Y-61381395D01*
X186730395Y-61834214D01*
X186730392Y-61834216D01*
X186197926Y-62189999D01*
X185606282Y-62435066D01*
X185292239Y-62497533D01*
X184978197Y-62560000D01*
X184337803Y-62560000D01*
X184023761Y-62497533D01*
X183709718Y-62435066D01*
X183118074Y-62189999D01*
X182585608Y-61834216D01*
X182585605Y-61834214D01*
X182132786Y-61381395D01*
X182024735Y-61219685D01*
X181777001Y-60848926D01*
X181531934Y-60257282D01*
X181469467Y-59943239D01*
X181407000Y-59629197D01*
X181407000Y-58988803D01*
X181531934Y-58360719D01*
X181531934Y-58360718D01*
X181777001Y-57769074D01*
X182132784Y-57236608D01*
X182132786Y-57236605D01*
X182585605Y-56783786D01*
X182663418Y-56731793D01*
X183118074Y-56428001D01*
X183709718Y-56182934D01*
X184023761Y-56120467D01*
X184337803Y-56058000D01*
X184978197Y-56058000D01*
X185292239Y-56120467D01*
X185292239Y-56120467D01*
G37*
G36*
X98170239Y-56120467D02*
X98484282Y-56182934D01*
X99075926Y-56428001D01*
X99530582Y-56731793D01*
X99608395Y-56783786D01*
X100061214Y-57236605D01*
X100061216Y-57236608D01*
X100416999Y-57769074D01*
X100662066Y-58360718D01*
X100662066Y-58360719D01*
X100787000Y-58988803D01*
X100787000Y-59629197D01*
X100724533Y-59943239D01*
X100662066Y-60257282D01*
X100416999Y-60848926D01*
X100169265Y-61219685D01*
X100061214Y-61381395D01*
X99608395Y-61834214D01*
X99608392Y-61834216D01*
X99075926Y-62189999D01*
X98484282Y-62435066D01*
X98170239Y-62497533D01*
X97856197Y-62560000D01*
X97215803Y-62560000D01*
X96901761Y-62497533D01*
X96587718Y-62435066D01*
X95996074Y-62189999D01*
X95463608Y-61834216D01*
X95463605Y-61834214D01*
X95010786Y-61381395D01*
X94902735Y-61219685D01*
X94655001Y-60848926D01*
X94409934Y-60257282D01*
X94347467Y-59943239D01*
X94285000Y-59629197D01*
X94285000Y-58988803D01*
X94409934Y-58360719D01*
X94409934Y-58360718D01*
X94655001Y-57769074D01*
X95010784Y-57236608D01*
X95010786Y-57236605D01*
X95463605Y-56783786D01*
X95541418Y-56731793D01*
X95996074Y-56428001D01*
X96587718Y-56182934D01*
X96901761Y-56120467D01*
X97215803Y-56058000D01*
X97856197Y-56058000D01*
X98170239Y-56120467D01*
X98170239Y-56120467D01*
G37*
G36*
X152020413Y-58267525D02*
X152095456Y-58290290D01*
X152105425Y-58293314D01*
X152183774Y-58335193D01*
X152252448Y-58391552D01*
X152308807Y-58460226D01*
X152350686Y-58538575D01*
X152350687Y-58538579D01*
X152376475Y-58623587D01*
X152385182Y-58712000D01*
X152376475Y-58800413D01*
X152359455Y-58856518D01*
X152350686Y-58885425D01*
X152308807Y-58963774D01*
X152252448Y-59032448D01*
X152183774Y-59088807D01*
X152105425Y-59130686D01*
X152095456Y-59133710D01*
X152020413Y-59156475D01*
X151954158Y-59163000D01*
X151909842Y-59163000D01*
X151843587Y-59156475D01*
X151768544Y-59133710D01*
X151758575Y-59130686D01*
X151705265Y-59102191D01*
X151680225Y-59088807D01*
X151641687Y-59057179D01*
X151620571Y-59039850D01*
X151600202Y-59026239D01*
X151577563Y-59016862D01*
X151553529Y-59012081D01*
X151529025Y-59012081D01*
X151504992Y-59016861D01*
X151482352Y-59026238D01*
X151461978Y-59039852D01*
X151444650Y-59057179D01*
X151431036Y-59077553D01*
X151421659Y-59100192D01*
X151416878Y-59124226D01*
X151416878Y-59148730D01*
X151421658Y-59172763D01*
X151425157Y-59181212D01*
X151427398Y-59188599D01*
X151427399Y-59188601D01*
X151465727Y-59314953D01*
X151471772Y-59334881D01*
X151483000Y-59448882D01*
X151483000Y-60075118D01*
X151471772Y-60189119D01*
X151427398Y-60335401D01*
X151355341Y-60470210D01*
X151258369Y-60588369D01*
X151140209Y-60685341D01*
X151140207Y-60685342D01*
X151005398Y-60757399D01*
X150889924Y-60792427D01*
X150859118Y-60801772D01*
X150707000Y-60816754D01*
X150554881Y-60801772D01*
X150524075Y-60792427D01*
X150408601Y-60757399D01*
X150273792Y-60685342D01*
X150273790Y-60685341D01*
X150155631Y-60588369D01*
X150058659Y-60470209D01*
X149986602Y-60335400D01*
X149942228Y-60189118D01*
X149931000Y-60075117D01*
X149931000Y-59448882D01*
X149942228Y-59334881D01*
X149986602Y-59188599D01*
X150058660Y-59053790D01*
X150155632Y-58935631D01*
X150273791Y-58838659D01*
X150408600Y-58766602D01*
X150408602Y-58766601D01*
X150554879Y-58722229D01*
X150554882Y-58722228D01*
X150707000Y-58707246D01*
X150859119Y-58722228D01*
X150859122Y-58722229D01*
X151005399Y-58766601D01*
X151005401Y-58766602D01*
X151140210Y-58838659D01*
X151221114Y-58905056D01*
X151258367Y-58935629D01*
X151258370Y-58935632D01*
X151288304Y-58972105D01*
X151305631Y-58989432D01*
X151326006Y-59003046D01*
X151348645Y-59012423D01*
X151372678Y-59017203D01*
X151397183Y-59017203D01*
X151421216Y-59012422D01*
X151443855Y-59003044D01*
X151464229Y-58989430D01*
X151481556Y-58972103D01*
X151495170Y-58951728D01*
X151504547Y-58929089D01*
X151509327Y-58905056D01*
X151509327Y-58880551D01*
X151504547Y-58856524D01*
X151498167Y-58835489D01*
X151487525Y-58800411D01*
X151478818Y-58712000D01*
X151487525Y-58623587D01*
X151513313Y-58538579D01*
X151513314Y-58538575D01*
X151555193Y-58460226D01*
X151611552Y-58391552D01*
X151680226Y-58335193D01*
X151758575Y-58293314D01*
X151768544Y-58290290D01*
X151843587Y-58267525D01*
X151909842Y-58261000D01*
X151954158Y-58261000D01*
X152020413Y-58267525D01*
X152020413Y-58267525D01*
G37*
G36*
X157020413Y-58267525D02*
X157095456Y-58290290D01*
X157105425Y-58293314D01*
X157183774Y-58335193D01*
X157252448Y-58391552D01*
X157308807Y-58460226D01*
X157350686Y-58538575D01*
X157350687Y-58538579D01*
X157376475Y-58623587D01*
X157385182Y-58712000D01*
X157376475Y-58800413D01*
X157359454Y-58856521D01*
X157354673Y-58880554D01*
X157354673Y-58905058D01*
X157359453Y-58929092D01*
X157368830Y-58951731D01*
X157382444Y-58972106D01*
X157399771Y-58989433D01*
X157420146Y-59003047D01*
X157442785Y-59012424D01*
X157466818Y-59017205D01*
X157491322Y-59017205D01*
X157515356Y-59012425D01*
X157537995Y-59003048D01*
X157558370Y-58989434D01*
X157575698Y-58972106D01*
X157605632Y-58935631D01*
X157605634Y-58935629D01*
X157723791Y-58838659D01*
X157858600Y-58766602D01*
X157858602Y-58766601D01*
X158004879Y-58722229D01*
X158004882Y-58722228D01*
X158157000Y-58707246D01*
X158309119Y-58722228D01*
X158309122Y-58722229D01*
X158455399Y-58766601D01*
X158455401Y-58766602D01*
X158590210Y-58838659D01*
X158708369Y-58935631D01*
X158805341Y-59053790D01*
X158877398Y-59188599D01*
X158921772Y-59334881D01*
X158933000Y-59448882D01*
X158933000Y-60075118D01*
X158921772Y-60189119D01*
X158877398Y-60335401D01*
X158805341Y-60470210D01*
X158708369Y-60588369D01*
X158590209Y-60685341D01*
X158590207Y-60685342D01*
X158455398Y-60757399D01*
X158339924Y-60792427D01*
X158309118Y-60801772D01*
X158157000Y-60816754D01*
X158004881Y-60801772D01*
X157974075Y-60792427D01*
X157858601Y-60757399D01*
X157723792Y-60685342D01*
X157723790Y-60685341D01*
X157605631Y-60588369D01*
X157508659Y-60470209D01*
X157436602Y-60335400D01*
X157392228Y-60189118D01*
X157381000Y-60075117D01*
X157381000Y-59448882D01*
X157392228Y-59334881D01*
X157438844Y-59181208D01*
X157442345Y-59172754D01*
X157447123Y-59148721D01*
X157447121Y-59124216D01*
X157442338Y-59100183D01*
X157432959Y-59077545D01*
X157419344Y-59057172D01*
X157402015Y-59039846D01*
X157381639Y-59026234D01*
X157358999Y-59016858D01*
X157334966Y-59012080D01*
X157310461Y-59012082D01*
X157286428Y-59016865D01*
X157263790Y-59026244D01*
X157243429Y-59039850D01*
X157222313Y-59057179D01*
X157183775Y-59088807D01*
X157158735Y-59102191D01*
X157105425Y-59130686D01*
X157095456Y-59133710D01*
X157020413Y-59156475D01*
X156954158Y-59163000D01*
X156909842Y-59163000D01*
X156843587Y-59156475D01*
X156768544Y-59133710D01*
X156758575Y-59130686D01*
X156680226Y-59088807D01*
X156611552Y-59032448D01*
X156555193Y-58963774D01*
X156513314Y-58885425D01*
X156504545Y-58856518D01*
X156487525Y-58800413D01*
X156478818Y-58712000D01*
X156487525Y-58623587D01*
X156513313Y-58538579D01*
X156513314Y-58538575D01*
X156555193Y-58460226D01*
X156611552Y-58391552D01*
X156680226Y-58335193D01*
X156758575Y-58293314D01*
X156768544Y-58290290D01*
X156843587Y-58267525D01*
X156909842Y-58261000D01*
X156954158Y-58261000D01*
X157020413Y-58267525D01*
X157020413Y-58267525D01*
G37*
G36*
X163729327Y-54947936D02*
X163829210Y-54967804D01*
X164111474Y-55084721D01*
X164365505Y-55254459D01*
X164581541Y-55470495D01*
X164751279Y-55724526D01*
X164868196Y-56006790D01*
X164868196Y-56006791D01*
X164927800Y-56306438D01*
X164927800Y-56611962D01*
X164893622Y-56783784D01*
X164868196Y-56911610D01*
X164751279Y-57193874D01*
X164581541Y-57447905D01*
X164365505Y-57663941D01*
X164111474Y-57833679D01*
X163829210Y-57950596D01*
X163770581Y-57962258D01*
X163529562Y-58010200D01*
X163224038Y-58010200D01*
X162983019Y-57962258D01*
X162924390Y-57950596D01*
X162642126Y-57833679D01*
X162388095Y-57663941D01*
X162172059Y-57447905D01*
X162002321Y-57193874D01*
X161885404Y-56911610D01*
X161859978Y-56783784D01*
X161825800Y-56611962D01*
X161825800Y-56306438D01*
X161885404Y-56006791D01*
X161885404Y-56006790D01*
X162002321Y-55724526D01*
X162172059Y-55470495D01*
X162388095Y-55254459D01*
X162642126Y-55084721D01*
X162924390Y-54967804D01*
X163024273Y-54947936D01*
X163224038Y-54908200D01*
X163529562Y-54908200D01*
X163729327Y-54947936D01*
X163729327Y-54947936D01*
G37*
G36*
X176929327Y-54947936D02*
X177029210Y-54967804D01*
X177311474Y-55084721D01*
X177565505Y-55254459D01*
X177781541Y-55470495D01*
X177951279Y-55724526D01*
X178068196Y-56006790D01*
X178068196Y-56006791D01*
X178127800Y-56306438D01*
X178127800Y-56611962D01*
X178093622Y-56783784D01*
X178068196Y-56911610D01*
X177951279Y-57193874D01*
X177781541Y-57447905D01*
X177565505Y-57663941D01*
X177311474Y-57833679D01*
X177029210Y-57950596D01*
X176970581Y-57962258D01*
X176729562Y-58010200D01*
X176424038Y-58010200D01*
X176183019Y-57962258D01*
X176124390Y-57950596D01*
X175842126Y-57833679D01*
X175588095Y-57663941D01*
X175372059Y-57447905D01*
X175202321Y-57193874D01*
X175085404Y-56911610D01*
X175059978Y-56783784D01*
X175025800Y-56611962D01*
X175025800Y-56306438D01*
X175085404Y-56006791D01*
X175085404Y-56006790D01*
X175202321Y-55724526D01*
X175372059Y-55470495D01*
X175588095Y-55254459D01*
X175842126Y-55084721D01*
X176124390Y-54967804D01*
X176224273Y-54947936D01*
X176424038Y-54908200D01*
X176729562Y-54908200D01*
X176929327Y-54947936D01*
X176929327Y-54947936D01*
G37*
G36*
X150679714Y-55020058D02*
X150679717Y-55020059D01*
X150797719Y-55055854D01*
X150797721Y-55055855D01*
X150906471Y-55113983D01*
X151001790Y-55192210D01*
X151080017Y-55287529D01*
X151138145Y-55396279D01*
X151173942Y-55514286D01*
X151183000Y-55606253D01*
X151183000Y-56317747D01*
X151173942Y-56409714D01*
X151138145Y-56527721D01*
X151080017Y-56636471D01*
X151001793Y-56731787D01*
X151001791Y-56731788D01*
X151001790Y-56731790D01*
X150906468Y-56810018D01*
X150797718Y-56868146D01*
X150701682Y-56897278D01*
X150679713Y-56903942D01*
X150557000Y-56916028D01*
X150434286Y-56903942D01*
X150412317Y-56897278D01*
X150316281Y-56868146D01*
X150207531Y-56810018D01*
X150207529Y-56810017D01*
X150112213Y-56731793D01*
X150112212Y-56731791D01*
X150112210Y-56731790D01*
X150033982Y-56636468D01*
X149975854Y-56527718D01*
X149940059Y-56409716D01*
X149940058Y-56409713D01*
X149931000Y-56317746D01*
X149931000Y-55606253D01*
X149940058Y-55514286D01*
X149975854Y-55396281D01*
X149975855Y-55396279D01*
X150033983Y-55287531D01*
X150061125Y-55254459D01*
X150112211Y-55192210D01*
X150207530Y-55113983D01*
X150316280Y-55055855D01*
X150316282Y-55055854D01*
X150434284Y-55020059D01*
X150434287Y-55020058D01*
X150557000Y-55007972D01*
X150679714Y-55020058D01*
X150679714Y-55020058D01*
G37*
G36*
X158429714Y-55020058D02*
X158429717Y-55020059D01*
X158547719Y-55055854D01*
X158547721Y-55055855D01*
X158656471Y-55113983D01*
X158751790Y-55192210D01*
X158830017Y-55287529D01*
X158888145Y-55396279D01*
X158923942Y-55514286D01*
X158933000Y-55606253D01*
X158933000Y-56317747D01*
X158923942Y-56409714D01*
X158888145Y-56527721D01*
X158830017Y-56636471D01*
X158751793Y-56731787D01*
X158751791Y-56731788D01*
X158751790Y-56731790D01*
X158656468Y-56810018D01*
X158547718Y-56868146D01*
X158451682Y-56897278D01*
X158429713Y-56903942D01*
X158307000Y-56916028D01*
X158184286Y-56903942D01*
X158162317Y-56897278D01*
X158066281Y-56868146D01*
X157957531Y-56810018D01*
X157957529Y-56810017D01*
X157862213Y-56731793D01*
X157862212Y-56731791D01*
X157862210Y-56731790D01*
X157783982Y-56636468D01*
X157725854Y-56527718D01*
X157690059Y-56409716D01*
X157690058Y-56409713D01*
X157681000Y-56317746D01*
X157681000Y-55606253D01*
X157690058Y-55514286D01*
X157725854Y-55396281D01*
X157725855Y-55396279D01*
X157783983Y-55287531D01*
X157811125Y-55254459D01*
X157862211Y-55192210D01*
X157957530Y-55113983D01*
X158066280Y-55055855D01*
X158066282Y-55055854D01*
X158184284Y-55020059D01*
X158184287Y-55020058D01*
X158307000Y-55007972D01*
X158429714Y-55020058D01*
X158429714Y-55020058D01*
G37*
M02*
