G04 #@! TF.GenerationSoftware,KiCad,Pcbnew,5.0.2+dfsg1-1*
G04 #@! TF.CreationDate,2020-11-04T14:27:09+01:00*
G04 #@! TF.ProjectId,CoreSchematic,436f7265-5363-4686-956d-617469632e6b,rev?*
G04 #@! TF.SameCoordinates,Original*
G04 #@! TF.FileFunction,Soldermask,Top*
G04 #@! TF.FilePolarity,Negative*
%FSLAX46Y46*%
G04 Gerber Fmt 4.6, Leading zero omitted, Abs format (unit mm)*
G04 Created by KiCad (PCBNEW 5.0.2+dfsg1-1) date Wed 04 Nov 2020 14:27:09 CET*
%MOMM*%
%LPD*%
G01*
G04 APERTURE LIST*
%ADD10C,0.100000*%
G04 APERTURE END LIST*
D10*
G36*
X185292239Y-116826467D02*
X185606282Y-116888934D01*
X186197926Y-117134001D01*
X186487523Y-117327504D01*
X186730395Y-117489786D01*
X187183214Y-117942605D01*
X187183216Y-117942608D01*
X187538999Y-118475074D01*
X187660724Y-118768944D01*
X187784066Y-119066719D01*
X187909000Y-119694803D01*
X187909000Y-120335197D01*
X187846533Y-120649239D01*
X187784066Y-120963282D01*
X187538999Y-121554926D01*
X187291265Y-121925685D01*
X187183214Y-122087395D01*
X186730395Y-122540214D01*
X186730392Y-122540216D01*
X186197926Y-122895999D01*
X185606282Y-123141066D01*
X185292239Y-123203533D01*
X184978197Y-123266000D01*
X184337803Y-123266000D01*
X184023761Y-123203533D01*
X183709718Y-123141066D01*
X183118074Y-122895999D01*
X182585608Y-122540216D01*
X182585605Y-122540214D01*
X182132786Y-122087395D01*
X182024735Y-121925685D01*
X181777001Y-121554926D01*
X181531934Y-120963282D01*
X181469467Y-120649239D01*
X181407000Y-120335197D01*
X181407000Y-119694803D01*
X181531934Y-119066719D01*
X181655276Y-118768944D01*
X181777001Y-118475074D01*
X182132784Y-117942608D01*
X182132786Y-117942605D01*
X182585605Y-117489786D01*
X182828477Y-117327504D01*
X183118074Y-117134001D01*
X183709718Y-116888934D01*
X184023761Y-116826467D01*
X184337803Y-116764000D01*
X184978197Y-116764000D01*
X185292239Y-116826467D01*
X185292239Y-116826467D01*
G37*
G36*
X98043239Y-116826467D02*
X98357282Y-116888934D01*
X98948926Y-117134001D01*
X99238523Y-117327504D01*
X99481395Y-117489786D01*
X99934214Y-117942605D01*
X99934216Y-117942608D01*
X100289999Y-118475074D01*
X100411724Y-118768944D01*
X100535066Y-119066719D01*
X100660000Y-119694803D01*
X100660000Y-120335197D01*
X100597533Y-120649239D01*
X100535066Y-120963282D01*
X100289999Y-121554926D01*
X100042265Y-121925685D01*
X99934214Y-122087395D01*
X99481395Y-122540214D01*
X99481392Y-122540216D01*
X98948926Y-122895999D01*
X98357282Y-123141066D01*
X98043239Y-123203533D01*
X97729197Y-123266000D01*
X97088803Y-123266000D01*
X96774761Y-123203533D01*
X96460718Y-123141066D01*
X95869074Y-122895999D01*
X95336608Y-122540216D01*
X95336605Y-122540214D01*
X94883786Y-122087395D01*
X94775735Y-121925685D01*
X94528001Y-121554926D01*
X94282934Y-120963282D01*
X94220467Y-120649239D01*
X94158000Y-120335197D01*
X94158000Y-119694803D01*
X94282934Y-119066719D01*
X94406276Y-118768944D01*
X94528001Y-118475074D01*
X94883784Y-117942608D01*
X94883786Y-117942605D01*
X95336605Y-117489786D01*
X95579477Y-117327504D01*
X95869074Y-117134001D01*
X96460718Y-116888934D01*
X96774761Y-116826467D01*
X97088803Y-116764000D01*
X97729197Y-116764000D01*
X98043239Y-116826467D01*
X98043239Y-116826467D01*
G37*
G36*
X111838200Y-113809400D02*
X110236200Y-113809400D01*
X110236200Y-112707400D01*
X111838200Y-112707400D01*
X111838200Y-113809400D01*
X111838200Y-113809400D01*
G37*
G36*
X116738200Y-113809400D02*
X115136200Y-113809400D01*
X115136200Y-112707400D01*
X116738200Y-112707400D01*
X116738200Y-113809400D01*
X116738200Y-113809400D01*
G37*
G36*
X151855252Y-109724318D02*
X151855254Y-109724319D01*
X151855255Y-109724319D01*
X152228513Y-109878927D01*
X152559905Y-110100357D01*
X152564439Y-110103386D01*
X152850114Y-110389061D01*
X152850116Y-110389064D01*
X153074573Y-110724987D01*
X153103780Y-110795500D01*
X153229182Y-111098248D01*
X153308000Y-111494493D01*
X153308000Y-111898507D01*
X153233936Y-112270854D01*
X153229181Y-112294755D01*
X153074573Y-112668013D01*
X153074572Y-112668014D01*
X152850114Y-113003939D01*
X152564439Y-113289614D01*
X152564436Y-113289616D01*
X152228513Y-113514073D01*
X151855255Y-113668681D01*
X151855254Y-113668681D01*
X151855252Y-113668682D01*
X151459007Y-113747500D01*
X151054993Y-113747500D01*
X150658748Y-113668682D01*
X150658746Y-113668681D01*
X150658745Y-113668681D01*
X150285487Y-113514073D01*
X149949564Y-113289616D01*
X149949561Y-113289614D01*
X149663886Y-113003939D01*
X149439428Y-112668014D01*
X149439427Y-112668013D01*
X149284819Y-112294755D01*
X149280065Y-112270854D01*
X149206000Y-111898507D01*
X149206000Y-111494493D01*
X149284818Y-111098248D01*
X149410220Y-110795500D01*
X149439427Y-110724987D01*
X149663884Y-110389064D01*
X149663886Y-110389061D01*
X149949561Y-110103386D01*
X149954095Y-110100357D01*
X150285487Y-109878927D01*
X150658745Y-109724319D01*
X150658746Y-109724319D01*
X150658748Y-109724318D01*
X151054993Y-109645500D01*
X151459007Y-109645500D01*
X151855252Y-109724318D01*
X151855252Y-109724318D01*
G37*
G36*
X171857752Y-109724318D02*
X171857754Y-109724319D01*
X171857755Y-109724319D01*
X172231013Y-109878927D01*
X172562405Y-110100357D01*
X172566939Y-110103386D01*
X172852614Y-110389061D01*
X172852616Y-110389064D01*
X173077073Y-110724987D01*
X173106280Y-110795500D01*
X173231682Y-111098248D01*
X173310500Y-111494493D01*
X173310500Y-111898507D01*
X173236436Y-112270854D01*
X173231681Y-112294755D01*
X173077073Y-112668013D01*
X173077072Y-112668014D01*
X172852614Y-113003939D01*
X172566939Y-113289614D01*
X172566936Y-113289616D01*
X172231013Y-113514073D01*
X171857755Y-113668681D01*
X171857754Y-113668681D01*
X171857752Y-113668682D01*
X171461507Y-113747500D01*
X171057493Y-113747500D01*
X170661248Y-113668682D01*
X170661246Y-113668681D01*
X170661245Y-113668681D01*
X170287987Y-113514073D01*
X169952064Y-113289616D01*
X169952061Y-113289614D01*
X169666386Y-113003939D01*
X169441928Y-112668014D01*
X169441927Y-112668013D01*
X169287319Y-112294755D01*
X169282565Y-112270854D01*
X169208500Y-111898507D01*
X169208500Y-111494493D01*
X169287318Y-111098248D01*
X169412720Y-110795500D01*
X169441927Y-110724987D01*
X169666384Y-110389064D01*
X169666386Y-110389061D01*
X169952061Y-110103386D01*
X169956595Y-110100357D01*
X170287987Y-109878927D01*
X170661245Y-109724319D01*
X170661246Y-109724319D01*
X170661248Y-109724318D01*
X171057493Y-109645500D01*
X171461507Y-109645500D01*
X171857752Y-109724318D01*
X171857752Y-109724318D01*
G37*
G36*
X131852752Y-109724318D02*
X131852754Y-109724319D01*
X131852755Y-109724319D01*
X132226013Y-109878927D01*
X132557405Y-110100357D01*
X132561939Y-110103386D01*
X132847614Y-110389061D01*
X132847616Y-110389064D01*
X133072073Y-110724987D01*
X133101280Y-110795500D01*
X133226682Y-111098248D01*
X133305500Y-111494493D01*
X133305500Y-111898507D01*
X133231436Y-112270854D01*
X133226681Y-112294755D01*
X133072073Y-112668013D01*
X133072072Y-112668014D01*
X132847614Y-113003939D01*
X132561939Y-113289614D01*
X132561936Y-113289616D01*
X132226013Y-113514073D01*
X131852755Y-113668681D01*
X131852754Y-113668681D01*
X131852752Y-113668682D01*
X131456507Y-113747500D01*
X131052493Y-113747500D01*
X130656248Y-113668682D01*
X130656246Y-113668681D01*
X130656245Y-113668681D01*
X130282987Y-113514073D01*
X129947064Y-113289616D01*
X129947061Y-113289614D01*
X129661386Y-113003939D01*
X129436928Y-112668014D01*
X129436927Y-112668013D01*
X129282319Y-112294755D01*
X129277565Y-112270854D01*
X129203500Y-111898507D01*
X129203500Y-111494493D01*
X129282318Y-111098248D01*
X129407720Y-110795500D01*
X129436927Y-110724987D01*
X129661384Y-110389064D01*
X129661386Y-110389061D01*
X129947061Y-110103386D01*
X129951595Y-110100357D01*
X130282987Y-109878927D01*
X130656245Y-109724319D01*
X130656246Y-109724319D01*
X130656248Y-109724318D01*
X131052493Y-109645500D01*
X131456507Y-109645500D01*
X131852752Y-109724318D01*
X131852752Y-109724318D01*
G37*
G36*
X176602312Y-110830124D02*
X176766284Y-110898044D01*
X176913854Y-110996647D01*
X177039353Y-111122146D01*
X177137956Y-111269716D01*
X177205876Y-111433688D01*
X177240500Y-111607759D01*
X177240500Y-111785241D01*
X177205876Y-111959312D01*
X177137956Y-112123284D01*
X177039353Y-112270854D01*
X176913854Y-112396353D01*
X176766284Y-112494956D01*
X176602312Y-112562876D01*
X176428241Y-112597500D01*
X176250759Y-112597500D01*
X176076688Y-112562876D01*
X175912716Y-112494956D01*
X175765146Y-112396353D01*
X175639647Y-112270854D01*
X175541044Y-112123284D01*
X175473124Y-111959312D01*
X175438500Y-111785241D01*
X175438500Y-111607759D01*
X175473124Y-111433688D01*
X175541044Y-111269716D01*
X175639647Y-111122146D01*
X175765146Y-110996647D01*
X175912716Y-110898044D01*
X176076688Y-110830124D01*
X176250759Y-110795500D01*
X176428241Y-110795500D01*
X176602312Y-110830124D01*
X176602312Y-110830124D01*
G37*
G36*
X166442312Y-110830124D02*
X166606284Y-110898044D01*
X166753854Y-110996647D01*
X166879353Y-111122146D01*
X166977956Y-111269716D01*
X167045876Y-111433688D01*
X167080500Y-111607759D01*
X167080500Y-111785241D01*
X167045876Y-111959312D01*
X166977956Y-112123284D01*
X166879353Y-112270854D01*
X166753854Y-112396353D01*
X166606284Y-112494956D01*
X166442312Y-112562876D01*
X166268241Y-112597500D01*
X166090759Y-112597500D01*
X165916688Y-112562876D01*
X165752716Y-112494956D01*
X165605146Y-112396353D01*
X165479647Y-112270854D01*
X165381044Y-112123284D01*
X165313124Y-111959312D01*
X165278500Y-111785241D01*
X165278500Y-111607759D01*
X165313124Y-111433688D01*
X165381044Y-111269716D01*
X165479647Y-111122146D01*
X165605146Y-110996647D01*
X165752716Y-110898044D01*
X165916688Y-110830124D01*
X166090759Y-110795500D01*
X166268241Y-110795500D01*
X166442312Y-110830124D01*
X166442312Y-110830124D01*
G37*
G36*
X126437312Y-110830124D02*
X126601284Y-110898044D01*
X126748854Y-110996647D01*
X126874353Y-111122146D01*
X126972956Y-111269716D01*
X127040876Y-111433688D01*
X127075500Y-111607759D01*
X127075500Y-111785241D01*
X127040876Y-111959312D01*
X126972956Y-112123284D01*
X126874353Y-112270854D01*
X126748854Y-112396353D01*
X126601284Y-112494956D01*
X126437312Y-112562876D01*
X126263241Y-112597500D01*
X126085759Y-112597500D01*
X125911688Y-112562876D01*
X125747716Y-112494956D01*
X125600146Y-112396353D01*
X125474647Y-112270854D01*
X125376044Y-112123284D01*
X125308124Y-111959312D01*
X125273500Y-111785241D01*
X125273500Y-111607759D01*
X125308124Y-111433688D01*
X125376044Y-111269716D01*
X125474647Y-111122146D01*
X125600146Y-110996647D01*
X125747716Y-110898044D01*
X125911688Y-110830124D01*
X126085759Y-110795500D01*
X126263241Y-110795500D01*
X126437312Y-110830124D01*
X126437312Y-110830124D01*
G37*
G36*
X136597312Y-110830124D02*
X136761284Y-110898044D01*
X136908854Y-110996647D01*
X137034353Y-111122146D01*
X137132956Y-111269716D01*
X137200876Y-111433688D01*
X137235500Y-111607759D01*
X137235500Y-111785241D01*
X137200876Y-111959312D01*
X137132956Y-112123284D01*
X137034353Y-112270854D01*
X136908854Y-112396353D01*
X136761284Y-112494956D01*
X136597312Y-112562876D01*
X136423241Y-112597500D01*
X136245759Y-112597500D01*
X136071688Y-112562876D01*
X135907716Y-112494956D01*
X135760146Y-112396353D01*
X135634647Y-112270854D01*
X135536044Y-112123284D01*
X135468124Y-111959312D01*
X135433500Y-111785241D01*
X135433500Y-111607759D01*
X135468124Y-111433688D01*
X135536044Y-111269716D01*
X135634647Y-111122146D01*
X135760146Y-110996647D01*
X135907716Y-110898044D01*
X136071688Y-110830124D01*
X136245759Y-110795500D01*
X136423241Y-110795500D01*
X136597312Y-110830124D01*
X136597312Y-110830124D01*
G37*
G36*
X146439812Y-110830124D02*
X146603784Y-110898044D01*
X146751354Y-110996647D01*
X146876853Y-111122146D01*
X146975456Y-111269716D01*
X147043376Y-111433688D01*
X147078000Y-111607759D01*
X147078000Y-111785241D01*
X147043376Y-111959312D01*
X146975456Y-112123284D01*
X146876853Y-112270854D01*
X146751354Y-112396353D01*
X146603784Y-112494956D01*
X146439812Y-112562876D01*
X146265741Y-112597500D01*
X146088259Y-112597500D01*
X145914188Y-112562876D01*
X145750216Y-112494956D01*
X145602646Y-112396353D01*
X145477147Y-112270854D01*
X145378544Y-112123284D01*
X145310624Y-111959312D01*
X145276000Y-111785241D01*
X145276000Y-111607759D01*
X145310624Y-111433688D01*
X145378544Y-111269716D01*
X145477147Y-111122146D01*
X145602646Y-110996647D01*
X145750216Y-110898044D01*
X145914188Y-110830124D01*
X146088259Y-110795500D01*
X146265741Y-110795500D01*
X146439812Y-110830124D01*
X146439812Y-110830124D01*
G37*
G36*
X156599812Y-110830124D02*
X156763784Y-110898044D01*
X156911354Y-110996647D01*
X157036853Y-111122146D01*
X157135456Y-111269716D01*
X157203376Y-111433688D01*
X157238000Y-111607759D01*
X157238000Y-111785241D01*
X157203376Y-111959312D01*
X157135456Y-112123284D01*
X157036853Y-112270854D01*
X156911354Y-112396353D01*
X156763784Y-112494956D01*
X156599812Y-112562876D01*
X156425741Y-112597500D01*
X156248259Y-112597500D01*
X156074188Y-112562876D01*
X155910216Y-112494956D01*
X155762646Y-112396353D01*
X155637147Y-112270854D01*
X155538544Y-112123284D01*
X155470624Y-111959312D01*
X155436000Y-111785241D01*
X155436000Y-111607759D01*
X155470624Y-111433688D01*
X155538544Y-111269716D01*
X155637147Y-111122146D01*
X155762646Y-110996647D01*
X155910216Y-110898044D01*
X156074188Y-110830124D01*
X156248259Y-110795500D01*
X156425741Y-110795500D01*
X156599812Y-110830124D01*
X156599812Y-110830124D01*
G37*
G36*
X111838200Y-110609400D02*
X110236200Y-110609400D01*
X110236200Y-109507400D01*
X111838200Y-109507400D01*
X111838200Y-110609400D01*
X111838200Y-110609400D01*
G37*
G36*
X116738200Y-110609400D02*
X115136200Y-110609400D01*
X115136200Y-109507400D01*
X116738200Y-109507400D01*
X116738200Y-110609400D01*
X116738200Y-110609400D01*
G37*
G36*
X127780234Y-108049732D02*
X127989702Y-108136496D01*
X128178223Y-108262462D01*
X128338538Y-108422777D01*
X128464504Y-108611298D01*
X128551268Y-108820766D01*
X128595500Y-109043135D01*
X128595500Y-109269865D01*
X128551268Y-109492234D01*
X128464504Y-109701702D01*
X128338538Y-109890223D01*
X128178223Y-110050538D01*
X127989702Y-110176504D01*
X127780234Y-110263268D01*
X127557865Y-110307500D01*
X127331135Y-110307500D01*
X127108766Y-110263268D01*
X126899298Y-110176504D01*
X126710777Y-110050538D01*
X126550462Y-109890223D01*
X126424496Y-109701702D01*
X126337732Y-109492234D01*
X126293500Y-109269865D01*
X126293500Y-109043135D01*
X126337732Y-108820766D01*
X126424496Y-108611298D01*
X126550462Y-108422777D01*
X126710777Y-108262462D01*
X126899298Y-108136496D01*
X127108766Y-108049732D01*
X127331135Y-108005500D01*
X127557865Y-108005500D01*
X127780234Y-108049732D01*
X127780234Y-108049732D01*
G37*
G36*
X167785234Y-108049732D02*
X167994702Y-108136496D01*
X168183223Y-108262462D01*
X168343538Y-108422777D01*
X168469504Y-108611298D01*
X168556268Y-108820766D01*
X168600500Y-109043135D01*
X168600500Y-109269865D01*
X168556268Y-109492234D01*
X168469504Y-109701702D01*
X168343538Y-109890223D01*
X168183223Y-110050538D01*
X167994702Y-110176504D01*
X167785234Y-110263268D01*
X167562865Y-110307500D01*
X167336135Y-110307500D01*
X167113766Y-110263268D01*
X166904298Y-110176504D01*
X166715777Y-110050538D01*
X166555462Y-109890223D01*
X166429496Y-109701702D01*
X166342732Y-109492234D01*
X166298500Y-109269865D01*
X166298500Y-109043135D01*
X166342732Y-108820766D01*
X166429496Y-108611298D01*
X166555462Y-108422777D01*
X166715777Y-108262462D01*
X166904298Y-108136496D01*
X167113766Y-108049732D01*
X167336135Y-108005500D01*
X167562865Y-108005500D01*
X167785234Y-108049732D01*
X167785234Y-108049732D01*
G37*
G36*
X147782734Y-108049732D02*
X147992202Y-108136496D01*
X148180723Y-108262462D01*
X148341038Y-108422777D01*
X148467004Y-108611298D01*
X148553768Y-108820766D01*
X148598000Y-109043135D01*
X148598000Y-109269865D01*
X148553768Y-109492234D01*
X148467004Y-109701702D01*
X148341038Y-109890223D01*
X148180723Y-110050538D01*
X147992202Y-110176504D01*
X147782734Y-110263268D01*
X147560365Y-110307500D01*
X147333635Y-110307500D01*
X147111266Y-110263268D01*
X146901798Y-110176504D01*
X146713277Y-110050538D01*
X146552962Y-109890223D01*
X146426996Y-109701702D01*
X146340232Y-109492234D01*
X146296000Y-109269865D01*
X146296000Y-109043135D01*
X146340232Y-108820766D01*
X146426996Y-108611298D01*
X146552962Y-108422777D01*
X146713277Y-108262462D01*
X146901798Y-108136496D01*
X147111266Y-108049732D01*
X147333635Y-108005500D01*
X147560365Y-108005500D01*
X147782734Y-108049732D01*
X147782734Y-108049732D01*
G37*
G36*
X154132734Y-105509732D02*
X154342202Y-105596496D01*
X154530723Y-105722462D01*
X154691038Y-105882777D01*
X154817004Y-106071298D01*
X154903768Y-106280766D01*
X154948000Y-106503135D01*
X154948000Y-106729865D01*
X154903768Y-106952234D01*
X154817004Y-107161702D01*
X154691038Y-107350223D01*
X154530723Y-107510538D01*
X154342202Y-107636504D01*
X154132734Y-107723268D01*
X153910365Y-107767500D01*
X153683635Y-107767500D01*
X153461266Y-107723268D01*
X153251798Y-107636504D01*
X153063277Y-107510538D01*
X152902962Y-107350223D01*
X152776996Y-107161702D01*
X152690232Y-106952234D01*
X152646000Y-106729865D01*
X152646000Y-106503135D01*
X152690232Y-106280766D01*
X152776996Y-106071298D01*
X152902962Y-105882777D01*
X153063277Y-105722462D01*
X153251798Y-105596496D01*
X153461266Y-105509732D01*
X153683635Y-105465500D01*
X153910365Y-105465500D01*
X154132734Y-105509732D01*
X154132734Y-105509732D01*
G37*
G36*
X174135234Y-105509732D02*
X174344702Y-105596496D01*
X174533223Y-105722462D01*
X174693538Y-105882777D01*
X174819504Y-106071298D01*
X174906268Y-106280766D01*
X174950500Y-106503135D01*
X174950500Y-106729865D01*
X174906268Y-106952234D01*
X174819504Y-107161702D01*
X174693538Y-107350223D01*
X174533223Y-107510538D01*
X174344702Y-107636504D01*
X174135234Y-107723268D01*
X173912865Y-107767500D01*
X173686135Y-107767500D01*
X173463766Y-107723268D01*
X173254298Y-107636504D01*
X173065777Y-107510538D01*
X172905462Y-107350223D01*
X172779496Y-107161702D01*
X172692732Y-106952234D01*
X172648500Y-106729865D01*
X172648500Y-106503135D01*
X172692732Y-106280766D01*
X172779496Y-106071298D01*
X172905462Y-105882777D01*
X173065777Y-105722462D01*
X173254298Y-105596496D01*
X173463766Y-105509732D01*
X173686135Y-105465500D01*
X173912865Y-105465500D01*
X174135234Y-105509732D01*
X174135234Y-105509732D01*
G37*
G36*
X134130234Y-105509732D02*
X134339702Y-105596496D01*
X134528223Y-105722462D01*
X134688538Y-105882777D01*
X134814504Y-106071298D01*
X134901268Y-106280766D01*
X134945500Y-106503135D01*
X134945500Y-106729865D01*
X134901268Y-106952234D01*
X134814504Y-107161702D01*
X134688538Y-107350223D01*
X134528223Y-107510538D01*
X134339702Y-107636504D01*
X134130234Y-107723268D01*
X133907865Y-107767500D01*
X133681135Y-107767500D01*
X133458766Y-107723268D01*
X133249298Y-107636504D01*
X133060777Y-107510538D01*
X132900462Y-107350223D01*
X132774496Y-107161702D01*
X132687732Y-106952234D01*
X132643500Y-106729865D01*
X132643500Y-106503135D01*
X132687732Y-106280766D01*
X132774496Y-106071298D01*
X132900462Y-105882777D01*
X133060777Y-105722462D01*
X133249298Y-105596496D01*
X133458766Y-105509732D01*
X133681135Y-105465500D01*
X133907865Y-105465500D01*
X134130234Y-105509732D01*
X134130234Y-105509732D01*
G37*
G36*
X130892370Y-102474803D02*
X130904079Y-102478355D01*
X130914862Y-102484119D01*
X130924320Y-102491880D01*
X130932081Y-102501338D01*
X130937845Y-102512121D01*
X130941397Y-102523830D01*
X130943200Y-102542138D01*
X130943200Y-103705862D01*
X130941397Y-103724170D01*
X130937845Y-103735879D01*
X130932081Y-103746662D01*
X130924320Y-103756120D01*
X130914862Y-103763881D01*
X130904079Y-103769645D01*
X130892370Y-103773197D01*
X130874062Y-103775000D01*
X130510338Y-103775000D01*
X130492030Y-103773197D01*
X130480321Y-103769645D01*
X130469538Y-103763881D01*
X130460080Y-103756120D01*
X130452319Y-103746662D01*
X130446555Y-103735879D01*
X130443003Y-103724170D01*
X130441200Y-103705862D01*
X130441200Y-102542138D01*
X130443003Y-102523830D01*
X130446555Y-102512121D01*
X130452319Y-102501338D01*
X130460080Y-102491880D01*
X130469538Y-102484119D01*
X130480321Y-102478355D01*
X130492030Y-102474803D01*
X130510338Y-102473000D01*
X130874062Y-102473000D01*
X130892370Y-102474803D01*
X130892370Y-102474803D01*
G37*
G36*
X153027083Y-102476725D02*
X153057544Y-102485966D01*
X153085623Y-102500975D01*
X153110231Y-102521169D01*
X153130425Y-102545777D01*
X153145434Y-102573856D01*
X153154675Y-102604317D01*
X153158400Y-102642140D01*
X153158400Y-103605860D01*
X153154675Y-103643683D01*
X153145434Y-103674144D01*
X153130425Y-103702223D01*
X153110231Y-103726831D01*
X153085623Y-103747025D01*
X153057544Y-103762034D01*
X153027083Y-103771275D01*
X152989260Y-103775000D01*
X152425540Y-103775000D01*
X152387717Y-103771275D01*
X152357256Y-103762034D01*
X152329177Y-103747025D01*
X152304569Y-103726831D01*
X152284375Y-103702223D01*
X152269366Y-103674144D01*
X152260125Y-103643683D01*
X152256400Y-103605860D01*
X152256400Y-102642140D01*
X152260125Y-102604317D01*
X152269366Y-102573856D01*
X152284375Y-102545777D01*
X152304569Y-102521169D01*
X152329177Y-102500975D01*
X152357256Y-102485966D01*
X152387717Y-102476725D01*
X152425540Y-102473000D01*
X152989260Y-102473000D01*
X153027083Y-102476725D01*
X153027083Y-102476725D01*
G37*
G36*
X150907570Y-102474803D02*
X150919279Y-102478355D01*
X150930062Y-102484119D01*
X150939520Y-102491880D01*
X150947281Y-102501338D01*
X150953045Y-102512121D01*
X150956597Y-102523830D01*
X150958400Y-102542138D01*
X150958400Y-103705862D01*
X150956597Y-103724170D01*
X150953045Y-103735879D01*
X150947281Y-103746662D01*
X150939520Y-103756120D01*
X150930062Y-103763881D01*
X150919279Y-103769645D01*
X150907570Y-103773197D01*
X150889262Y-103775000D01*
X150525538Y-103775000D01*
X150507230Y-103773197D01*
X150495521Y-103769645D01*
X150484738Y-103763881D01*
X150475280Y-103756120D01*
X150467519Y-103746662D01*
X150461755Y-103735879D01*
X150458203Y-103724170D01*
X150456400Y-103705862D01*
X150456400Y-102542138D01*
X150458203Y-102523830D01*
X150461755Y-102512121D01*
X150467519Y-102501338D01*
X150475280Y-102491880D01*
X150484738Y-102484119D01*
X150495521Y-102478355D01*
X150507230Y-102474803D01*
X150525538Y-102473000D01*
X150889262Y-102473000D01*
X150907570Y-102474803D01*
X150907570Y-102474803D01*
G37*
G36*
X151842328Y-102475764D02*
X151863411Y-102482160D01*
X151882842Y-102492546D01*
X151899875Y-102506525D01*
X151913854Y-102523558D01*
X151924240Y-102542989D01*
X151930636Y-102564072D01*
X151933400Y-102592140D01*
X151933400Y-103655860D01*
X151930636Y-103683928D01*
X151924240Y-103705011D01*
X151913854Y-103724442D01*
X151899875Y-103741475D01*
X151882842Y-103755454D01*
X151863411Y-103765840D01*
X151842328Y-103772236D01*
X151814260Y-103775000D01*
X151350540Y-103775000D01*
X151322472Y-103772236D01*
X151301389Y-103765840D01*
X151281958Y-103755454D01*
X151264925Y-103741475D01*
X151250946Y-103724442D01*
X151240560Y-103705011D01*
X151234164Y-103683928D01*
X151231400Y-103655860D01*
X151231400Y-102592140D01*
X151234164Y-102564072D01*
X151240560Y-102542989D01*
X151250946Y-102523558D01*
X151264925Y-102506525D01*
X151281958Y-102492546D01*
X151301389Y-102482160D01*
X151322472Y-102475764D01*
X151350540Y-102473000D01*
X151814260Y-102473000D01*
X151842328Y-102475764D01*
X151842328Y-102475764D01*
G37*
G36*
X133011883Y-102476725D02*
X133042344Y-102485966D01*
X133070423Y-102500975D01*
X133095031Y-102521169D01*
X133115225Y-102545777D01*
X133130234Y-102573856D01*
X133139475Y-102604317D01*
X133143200Y-102642140D01*
X133143200Y-103605860D01*
X133139475Y-103643683D01*
X133130234Y-103674144D01*
X133115225Y-103702223D01*
X133095031Y-103726831D01*
X133070423Y-103747025D01*
X133042344Y-103762034D01*
X133011883Y-103771275D01*
X132974060Y-103775000D01*
X132410340Y-103775000D01*
X132372517Y-103771275D01*
X132342056Y-103762034D01*
X132313977Y-103747025D01*
X132289369Y-103726831D01*
X132269175Y-103702223D01*
X132254166Y-103674144D01*
X132244925Y-103643683D01*
X132241200Y-103605860D01*
X132241200Y-102642140D01*
X132244925Y-102604317D01*
X132254166Y-102573856D01*
X132269175Y-102545777D01*
X132289369Y-102521169D01*
X132313977Y-102500975D01*
X132342056Y-102485966D01*
X132372517Y-102476725D01*
X132410340Y-102473000D01*
X132974060Y-102473000D01*
X133011883Y-102476725D01*
X133011883Y-102476725D01*
G37*
G36*
X131827128Y-102475764D02*
X131848211Y-102482160D01*
X131867642Y-102492546D01*
X131884675Y-102506525D01*
X131898654Y-102523558D01*
X131909040Y-102542989D01*
X131915436Y-102564072D01*
X131918200Y-102592140D01*
X131918200Y-103655860D01*
X131915436Y-103683928D01*
X131909040Y-103705011D01*
X131898654Y-103724442D01*
X131884675Y-103741475D01*
X131867642Y-103755454D01*
X131848211Y-103765840D01*
X131827128Y-103772236D01*
X131799060Y-103775000D01*
X131335340Y-103775000D01*
X131307272Y-103772236D01*
X131286189Y-103765840D01*
X131266758Y-103755454D01*
X131249725Y-103741475D01*
X131235746Y-103724442D01*
X131225360Y-103705011D01*
X131218964Y-103683928D01*
X131216200Y-103655860D01*
X131216200Y-102592140D01*
X131218964Y-102564072D01*
X131225360Y-102542989D01*
X131235746Y-102523558D01*
X131249725Y-102506525D01*
X131266758Y-102492546D01*
X131286189Y-102482160D01*
X131307272Y-102475764D01*
X131335340Y-102473000D01*
X131799060Y-102473000D01*
X131827128Y-102475764D01*
X131827128Y-102475764D01*
G37*
G36*
X150052083Y-102476725D02*
X150082544Y-102485966D01*
X150110623Y-102500975D01*
X150135231Y-102521169D01*
X150155425Y-102545777D01*
X150170434Y-102573856D01*
X150179675Y-102604317D01*
X150183400Y-102642140D01*
X150183400Y-103605860D01*
X150179675Y-103643683D01*
X150170434Y-103674144D01*
X150155425Y-103702223D01*
X150135231Y-103726831D01*
X150110623Y-103747025D01*
X150082544Y-103762034D01*
X150052083Y-103771275D01*
X150014260Y-103775000D01*
X149450540Y-103775000D01*
X149412717Y-103771275D01*
X149382256Y-103762034D01*
X149354177Y-103747025D01*
X149329569Y-103726831D01*
X149309375Y-103702223D01*
X149294366Y-103674144D01*
X149285125Y-103643683D01*
X149281400Y-103605860D01*
X149281400Y-102642140D01*
X149285125Y-102604317D01*
X149294366Y-102573856D01*
X149309375Y-102545777D01*
X149329569Y-102521169D01*
X149354177Y-102500975D01*
X149382256Y-102485966D01*
X149412717Y-102476725D01*
X149450540Y-102473000D01*
X150014260Y-102473000D01*
X150052083Y-102476725D01*
X150052083Y-102476725D01*
G37*
G36*
X130036883Y-102476725D02*
X130067344Y-102485966D01*
X130095423Y-102500975D01*
X130120031Y-102521169D01*
X130140225Y-102545777D01*
X130155234Y-102573856D01*
X130164475Y-102604317D01*
X130168200Y-102642140D01*
X130168200Y-103605860D01*
X130164475Y-103643683D01*
X130155234Y-103674144D01*
X130140225Y-103702223D01*
X130120031Y-103726831D01*
X130095423Y-103747025D01*
X130067344Y-103762034D01*
X130036883Y-103771275D01*
X129999060Y-103775000D01*
X129435340Y-103775000D01*
X129397517Y-103771275D01*
X129367056Y-103762034D01*
X129338977Y-103747025D01*
X129314369Y-103726831D01*
X129294175Y-103702223D01*
X129279166Y-103674144D01*
X129269925Y-103643683D01*
X129266200Y-103605860D01*
X129266200Y-102642140D01*
X129269925Y-102604317D01*
X129279166Y-102573856D01*
X129294175Y-102545777D01*
X129314369Y-102521169D01*
X129338977Y-102500975D01*
X129367056Y-102485966D01*
X129397517Y-102476725D01*
X129435340Y-102473000D01*
X129999060Y-102473000D01*
X130036883Y-102476725D01*
X130036883Y-102476725D01*
G37*
G36*
X171806728Y-102424964D02*
X171827811Y-102431360D01*
X171847242Y-102441746D01*
X171864275Y-102455725D01*
X171878254Y-102472758D01*
X171888640Y-102492189D01*
X171895036Y-102513272D01*
X171897800Y-102541340D01*
X171897800Y-103605060D01*
X171895036Y-103633128D01*
X171888640Y-103654211D01*
X171878254Y-103673642D01*
X171864275Y-103690675D01*
X171847242Y-103704654D01*
X171827811Y-103715040D01*
X171806728Y-103721436D01*
X171778660Y-103724200D01*
X171314940Y-103724200D01*
X171286872Y-103721436D01*
X171265789Y-103715040D01*
X171246358Y-103704654D01*
X171229325Y-103690675D01*
X171215346Y-103673642D01*
X171204960Y-103654211D01*
X171198564Y-103633128D01*
X171195800Y-103605060D01*
X171195800Y-102541340D01*
X171198564Y-102513272D01*
X171204960Y-102492189D01*
X171215346Y-102472758D01*
X171229325Y-102455725D01*
X171246358Y-102441746D01*
X171265789Y-102431360D01*
X171286872Y-102424964D01*
X171314940Y-102422200D01*
X171778660Y-102422200D01*
X171806728Y-102424964D01*
X171806728Y-102424964D01*
G37*
G36*
X170871970Y-102424003D02*
X170883679Y-102427555D01*
X170894462Y-102433319D01*
X170903920Y-102441080D01*
X170911681Y-102450538D01*
X170917445Y-102461321D01*
X170920997Y-102473030D01*
X170922800Y-102491338D01*
X170922800Y-103655062D01*
X170920997Y-103673370D01*
X170917445Y-103685079D01*
X170911681Y-103695862D01*
X170903920Y-103705320D01*
X170894462Y-103713081D01*
X170883679Y-103718845D01*
X170871970Y-103722397D01*
X170853662Y-103724200D01*
X170489938Y-103724200D01*
X170471630Y-103722397D01*
X170459921Y-103718845D01*
X170449138Y-103713081D01*
X170439680Y-103705320D01*
X170431919Y-103695862D01*
X170426155Y-103685079D01*
X170422603Y-103673370D01*
X170420800Y-103655062D01*
X170420800Y-102491338D01*
X170422603Y-102473030D01*
X170426155Y-102461321D01*
X170431919Y-102450538D01*
X170439680Y-102441080D01*
X170449138Y-102433319D01*
X170459921Y-102427555D01*
X170471630Y-102424003D01*
X170489938Y-102422200D01*
X170853662Y-102422200D01*
X170871970Y-102424003D01*
X170871970Y-102424003D01*
G37*
G36*
X172991483Y-102425925D02*
X173021944Y-102435166D01*
X173050023Y-102450175D01*
X173074631Y-102470369D01*
X173094825Y-102494977D01*
X173109834Y-102523056D01*
X173119075Y-102553517D01*
X173122800Y-102591340D01*
X173122800Y-103555060D01*
X173119075Y-103592883D01*
X173109834Y-103623344D01*
X173094825Y-103651423D01*
X173074631Y-103676031D01*
X173050023Y-103696225D01*
X173021944Y-103711234D01*
X172991483Y-103720475D01*
X172953660Y-103724200D01*
X172389940Y-103724200D01*
X172352117Y-103720475D01*
X172321656Y-103711234D01*
X172293577Y-103696225D01*
X172268969Y-103676031D01*
X172248775Y-103651423D01*
X172233766Y-103623344D01*
X172224525Y-103592883D01*
X172220800Y-103555060D01*
X172220800Y-102591340D01*
X172224525Y-102553517D01*
X172233766Y-102523056D01*
X172248775Y-102494977D01*
X172268969Y-102470369D01*
X172293577Y-102450175D01*
X172321656Y-102435166D01*
X172352117Y-102425925D01*
X172389940Y-102422200D01*
X172953660Y-102422200D01*
X172991483Y-102425925D01*
X172991483Y-102425925D01*
G37*
G36*
X170016483Y-102425925D02*
X170046944Y-102435166D01*
X170075023Y-102450175D01*
X170099631Y-102470369D01*
X170119825Y-102494977D01*
X170134834Y-102523056D01*
X170144075Y-102553517D01*
X170147800Y-102591340D01*
X170147800Y-103555060D01*
X170144075Y-103592883D01*
X170134834Y-103623344D01*
X170119825Y-103651423D01*
X170099631Y-103676031D01*
X170075023Y-103696225D01*
X170046944Y-103711234D01*
X170016483Y-103720475D01*
X169978660Y-103724200D01*
X169414940Y-103724200D01*
X169377117Y-103720475D01*
X169346656Y-103711234D01*
X169318577Y-103696225D01*
X169293969Y-103676031D01*
X169273775Y-103651423D01*
X169258766Y-103623344D01*
X169249525Y-103592883D01*
X169245800Y-103555060D01*
X169245800Y-102591340D01*
X169249525Y-102553517D01*
X169258766Y-102523056D01*
X169273775Y-102494977D01*
X169293969Y-102470369D01*
X169318577Y-102450175D01*
X169346656Y-102435166D01*
X169377117Y-102425925D01*
X169414940Y-102422200D01*
X169978660Y-102422200D01*
X170016483Y-102425925D01*
X170016483Y-102425925D01*
G37*
G36*
X146495433Y-96510686D02*
X146535281Y-96522774D01*
X146572001Y-96542401D01*
X146604186Y-96568814D01*
X146630599Y-96600999D01*
X146650226Y-96637719D01*
X146662314Y-96677567D01*
X146667000Y-96725141D01*
X146667000Y-97838859D01*
X146662314Y-97886433D01*
X146650226Y-97926281D01*
X146630599Y-97963001D01*
X146604186Y-97995186D01*
X146572001Y-98021599D01*
X146535281Y-98041226D01*
X146495433Y-98053314D01*
X146447859Y-98058000D01*
X145784141Y-98058000D01*
X145736567Y-98053314D01*
X145696719Y-98041226D01*
X145659999Y-98021599D01*
X145627814Y-97995186D01*
X145601401Y-97963001D01*
X145581774Y-97926281D01*
X145569686Y-97886433D01*
X145565000Y-97838859D01*
X145565000Y-96725141D01*
X145569686Y-96677567D01*
X145581774Y-96637719D01*
X145601401Y-96600999D01*
X145627814Y-96568814D01*
X145659999Y-96542401D01*
X145696719Y-96522774D01*
X145736567Y-96510686D01*
X145784141Y-96506000D01*
X146447859Y-96506000D01*
X146495433Y-96510686D01*
X146495433Y-96510686D01*
G37*
G36*
X148395433Y-96510686D02*
X148435281Y-96522774D01*
X148472001Y-96542401D01*
X148504186Y-96568814D01*
X148530599Y-96600999D01*
X148550226Y-96637719D01*
X148562314Y-96677567D01*
X148567000Y-96725141D01*
X148567000Y-97838859D01*
X148562314Y-97886433D01*
X148550226Y-97926281D01*
X148530599Y-97963001D01*
X148504186Y-97995186D01*
X148472001Y-98021599D01*
X148435281Y-98041226D01*
X148395433Y-98053314D01*
X148347859Y-98058000D01*
X147684141Y-98058000D01*
X147636567Y-98053314D01*
X147596719Y-98041226D01*
X147559999Y-98021599D01*
X147527814Y-97995186D01*
X147501401Y-97963001D01*
X147481774Y-97926281D01*
X147469686Y-97886433D01*
X147465000Y-97838859D01*
X147465000Y-96725141D01*
X147469686Y-96677567D01*
X147481774Y-96637719D01*
X147501401Y-96600999D01*
X147527814Y-96568814D01*
X147559999Y-96542401D01*
X147596719Y-96522774D01*
X147636567Y-96510686D01*
X147684141Y-96506000D01*
X148347859Y-96506000D01*
X148395433Y-96510686D01*
X148395433Y-96510686D01*
G37*
G36*
X166464493Y-93936203D02*
X166528914Y-93955744D01*
X166588276Y-93987475D01*
X166640317Y-94030183D01*
X166683025Y-94082224D01*
X166714756Y-94141586D01*
X166734297Y-94206007D01*
X166741500Y-94279141D01*
X166741500Y-95204859D01*
X166734297Y-95277993D01*
X166714756Y-95342414D01*
X166683025Y-95401776D01*
X166640317Y-95453817D01*
X166588276Y-95496525D01*
X166528914Y-95528256D01*
X166464493Y-95547797D01*
X166391359Y-95555000D01*
X162989641Y-95555000D01*
X162916507Y-95547797D01*
X162852086Y-95528256D01*
X162792724Y-95496525D01*
X162740683Y-95453817D01*
X162697975Y-95401776D01*
X162666244Y-95342414D01*
X162646703Y-95277993D01*
X162639500Y-95204859D01*
X162639500Y-94279141D01*
X162646703Y-94206007D01*
X162666244Y-94141586D01*
X162697975Y-94082224D01*
X162740683Y-94030183D01*
X162792724Y-93987475D01*
X162852086Y-93955744D01*
X162916507Y-93936203D01*
X162989641Y-93929000D01*
X166391359Y-93929000D01*
X166464493Y-93936203D01*
X166464493Y-93936203D01*
G37*
G36*
X154964493Y-93936203D02*
X155028914Y-93955744D01*
X155088276Y-93987475D01*
X155140317Y-94030183D01*
X155183025Y-94082224D01*
X155214756Y-94141586D01*
X155234297Y-94206007D01*
X155241500Y-94279141D01*
X155241500Y-95204859D01*
X155234297Y-95277993D01*
X155214756Y-95342414D01*
X155183025Y-95401776D01*
X155140317Y-95453817D01*
X155088276Y-95496525D01*
X155028914Y-95528256D01*
X154964493Y-95547797D01*
X154891359Y-95555000D01*
X151489641Y-95555000D01*
X151416507Y-95547797D01*
X151352086Y-95528256D01*
X151292724Y-95496525D01*
X151240683Y-95453817D01*
X151197975Y-95401776D01*
X151166244Y-95342414D01*
X151146703Y-95277993D01*
X151139500Y-95204859D01*
X151139500Y-94279141D01*
X151146703Y-94206007D01*
X151166244Y-94141586D01*
X151197975Y-94082224D01*
X151240683Y-94030183D01*
X151292724Y-93987475D01*
X151352086Y-93955744D01*
X151416507Y-93936203D01*
X151489641Y-93929000D01*
X154891359Y-93929000D01*
X154964493Y-93936203D01*
X154964493Y-93936203D01*
G37*
G36*
X188557500Y-94417500D02*
X186455500Y-94417500D01*
X186455500Y-93415500D01*
X188557500Y-93415500D01*
X188557500Y-94417500D01*
X188557500Y-94417500D01*
G37*
G36*
X171557500Y-94417500D02*
X169455500Y-94417500D01*
X169455500Y-93415500D01*
X171557500Y-93415500D01*
X171557500Y-94417500D01*
X171557500Y-94417500D01*
G37*
G36*
X171557500Y-93147500D02*
X169455500Y-93147500D01*
X169455500Y-92145500D01*
X171557500Y-92145500D01*
X171557500Y-93147500D01*
X171557500Y-93147500D01*
G37*
G36*
X188557500Y-93147500D02*
X186455500Y-93147500D01*
X186455500Y-92145500D01*
X188557500Y-92145500D01*
X188557500Y-93147500D01*
X188557500Y-93147500D01*
G37*
G36*
X141486843Y-91155119D02*
X141553027Y-91161637D01*
X141666253Y-91195984D01*
X141722867Y-91213157D01*
X141861487Y-91287252D01*
X141879391Y-91296822D01*
X141908608Y-91320800D01*
X142016586Y-91409414D01*
X142086862Y-91495047D01*
X142129178Y-91546609D01*
X142138206Y-91563499D01*
X142212843Y-91703133D01*
X142212843Y-91703134D01*
X142264363Y-91872973D01*
X142281759Y-92049600D01*
X142264363Y-92226227D01*
X142230016Y-92339453D01*
X142212843Y-92396067D01*
X142138748Y-92534687D01*
X142129178Y-92552591D01*
X142099848Y-92588329D01*
X142016586Y-92689786D01*
X141915129Y-92773048D01*
X141879391Y-92802378D01*
X141879389Y-92802379D01*
X141722867Y-92886043D01*
X141666253Y-92903216D01*
X141553027Y-92937563D01*
X141486842Y-92944082D01*
X141420660Y-92950600D01*
X141332140Y-92950600D01*
X141265958Y-92944082D01*
X141199773Y-92937563D01*
X141086547Y-92903216D01*
X141029933Y-92886043D01*
X140873411Y-92802379D01*
X140873409Y-92802378D01*
X140837671Y-92773048D01*
X140736214Y-92689786D01*
X140652952Y-92588329D01*
X140623622Y-92552591D01*
X140614052Y-92534687D01*
X140539957Y-92396067D01*
X140522784Y-92339453D01*
X140488437Y-92226227D01*
X140471041Y-92049600D01*
X140488437Y-91872973D01*
X140539957Y-91703134D01*
X140539957Y-91703133D01*
X140614594Y-91563499D01*
X140623622Y-91546609D01*
X140665938Y-91495047D01*
X140736214Y-91409414D01*
X140844192Y-91320800D01*
X140873409Y-91296822D01*
X140891313Y-91287252D01*
X141029933Y-91213157D01*
X141086547Y-91195984D01*
X141199773Y-91161637D01*
X141265957Y-91155119D01*
X141332140Y-91148600D01*
X141420660Y-91148600D01*
X141486843Y-91155119D01*
X141486843Y-91155119D01*
G37*
G36*
X146915857Y-89082883D02*
X146920528Y-89084300D01*
X146924830Y-89086600D01*
X146931205Y-89091831D01*
X146951580Y-89105444D01*
X146974219Y-89114820D01*
X146998253Y-89119600D01*
X147022757Y-89119599D01*
X147046791Y-89114817D01*
X147069429Y-89105439D01*
X147089795Y-89091831D01*
X147096170Y-89086600D01*
X147100472Y-89084300D01*
X147105143Y-89082883D01*
X147116141Y-89081800D01*
X147404859Y-89081800D01*
X147415857Y-89082883D01*
X147420528Y-89084300D01*
X147424830Y-89086600D01*
X147431205Y-89091831D01*
X147451580Y-89105444D01*
X147474219Y-89114820D01*
X147498253Y-89119600D01*
X147522757Y-89119599D01*
X147546791Y-89114817D01*
X147569429Y-89105439D01*
X147589795Y-89091831D01*
X147596170Y-89086600D01*
X147600472Y-89084300D01*
X147605143Y-89082883D01*
X147616141Y-89081800D01*
X147904859Y-89081800D01*
X147915857Y-89082883D01*
X147920528Y-89084300D01*
X147924830Y-89086600D01*
X147931205Y-89091831D01*
X147951580Y-89105444D01*
X147974219Y-89114820D01*
X147998253Y-89119600D01*
X148022757Y-89119599D01*
X148046791Y-89114817D01*
X148069429Y-89105439D01*
X148089795Y-89091831D01*
X148096170Y-89086600D01*
X148100472Y-89084300D01*
X148105143Y-89082883D01*
X148116141Y-89081800D01*
X148404859Y-89081800D01*
X148415857Y-89082883D01*
X148420528Y-89084300D01*
X148424830Y-89086600D01*
X148428604Y-89089696D01*
X148431700Y-89093470D01*
X148434000Y-89097772D01*
X148435417Y-89102443D01*
X148436500Y-89113441D01*
X148436500Y-89827156D01*
X148434787Y-89844545D01*
X148434787Y-89869050D01*
X148439567Y-89893083D01*
X148448944Y-89915722D01*
X148462557Y-89936097D01*
X148479884Y-89953425D01*
X148500258Y-89967039D01*
X148518825Y-89974730D01*
X148521015Y-89981950D01*
X148532566Y-90003561D01*
X148548112Y-90022503D01*
X148567054Y-90038049D01*
X148588665Y-90049600D01*
X148612114Y-90056713D01*
X148636500Y-90059115D01*
X148648755Y-90058513D01*
X148666144Y-90056800D01*
X149379859Y-90056800D01*
X149390857Y-90057883D01*
X149395528Y-90059300D01*
X149399830Y-90061600D01*
X149403604Y-90064696D01*
X149406700Y-90068470D01*
X149409000Y-90072772D01*
X149410417Y-90077443D01*
X149411500Y-90088441D01*
X149411500Y-90377159D01*
X149410417Y-90388157D01*
X149409000Y-90392828D01*
X149406700Y-90397130D01*
X149401469Y-90403505D01*
X149387856Y-90423880D01*
X149378480Y-90446519D01*
X149373700Y-90470553D01*
X149373701Y-90495057D01*
X149378483Y-90519091D01*
X149387861Y-90541729D01*
X149401469Y-90562095D01*
X149406700Y-90568470D01*
X149409000Y-90572772D01*
X149410417Y-90577443D01*
X149411500Y-90588441D01*
X149411500Y-90877159D01*
X149410417Y-90888157D01*
X149409000Y-90892828D01*
X149406700Y-90897130D01*
X149401469Y-90903505D01*
X149387856Y-90923880D01*
X149378480Y-90946519D01*
X149373700Y-90970553D01*
X149373701Y-90995057D01*
X149378483Y-91019091D01*
X149387861Y-91041729D01*
X149401469Y-91062095D01*
X149406700Y-91068470D01*
X149409000Y-91072772D01*
X149410417Y-91077443D01*
X149411500Y-91088441D01*
X149411500Y-91377159D01*
X149410417Y-91388157D01*
X149409000Y-91392828D01*
X149406700Y-91397130D01*
X149401469Y-91403505D01*
X149387856Y-91423880D01*
X149378480Y-91446519D01*
X149373700Y-91470553D01*
X149373701Y-91495057D01*
X149378483Y-91519091D01*
X149387861Y-91541729D01*
X149401469Y-91562095D01*
X149406700Y-91568470D01*
X149409000Y-91572772D01*
X149410417Y-91577443D01*
X149411500Y-91588441D01*
X149411500Y-91877159D01*
X149410417Y-91888157D01*
X149409000Y-91892828D01*
X149406700Y-91897130D01*
X149403604Y-91900904D01*
X149399830Y-91904000D01*
X149395528Y-91906300D01*
X149390857Y-91907717D01*
X149379859Y-91908800D01*
X148666144Y-91908800D01*
X148648755Y-91907087D01*
X148624250Y-91907087D01*
X148600217Y-91911867D01*
X148577578Y-91921244D01*
X148557203Y-91934857D01*
X148539875Y-91952184D01*
X148526261Y-91972558D01*
X148518570Y-91991125D01*
X148511350Y-91993315D01*
X148489739Y-92004866D01*
X148470797Y-92020412D01*
X148455251Y-92039354D01*
X148443700Y-92060965D01*
X148436587Y-92084414D01*
X148434185Y-92108800D01*
X148434787Y-92121055D01*
X148436500Y-92138444D01*
X148436500Y-92852159D01*
X148435417Y-92863157D01*
X148434000Y-92867828D01*
X148431700Y-92872130D01*
X148428604Y-92875904D01*
X148424830Y-92879000D01*
X148420528Y-92881300D01*
X148415857Y-92882717D01*
X148404859Y-92883800D01*
X148116141Y-92883800D01*
X148105143Y-92882717D01*
X148100472Y-92881300D01*
X148096170Y-92879000D01*
X148089795Y-92873769D01*
X148069420Y-92860156D01*
X148046781Y-92850780D01*
X148022747Y-92846000D01*
X147998243Y-92846001D01*
X147974209Y-92850783D01*
X147951571Y-92860161D01*
X147931205Y-92873769D01*
X147924830Y-92879000D01*
X147920528Y-92881300D01*
X147915857Y-92882717D01*
X147904859Y-92883800D01*
X147616141Y-92883800D01*
X147605143Y-92882717D01*
X147600472Y-92881300D01*
X147596170Y-92879000D01*
X147589795Y-92873769D01*
X147569420Y-92860156D01*
X147546781Y-92850780D01*
X147522747Y-92846000D01*
X147498243Y-92846001D01*
X147474209Y-92850783D01*
X147451571Y-92860161D01*
X147431205Y-92873769D01*
X147424830Y-92879000D01*
X147420528Y-92881300D01*
X147415857Y-92882717D01*
X147404859Y-92883800D01*
X147116141Y-92883800D01*
X147105143Y-92882717D01*
X147100472Y-92881300D01*
X147096170Y-92879000D01*
X147089795Y-92873769D01*
X147069420Y-92860156D01*
X147046781Y-92850780D01*
X147022747Y-92846000D01*
X146998243Y-92846001D01*
X146974209Y-92850783D01*
X146951571Y-92860161D01*
X146931205Y-92873769D01*
X146924830Y-92879000D01*
X146920528Y-92881300D01*
X146915857Y-92882717D01*
X146904859Y-92883800D01*
X146616141Y-92883800D01*
X146605143Y-92882717D01*
X146600472Y-92881300D01*
X146596170Y-92879000D01*
X146592396Y-92875904D01*
X146589300Y-92872130D01*
X146587000Y-92867828D01*
X146585583Y-92863157D01*
X146584500Y-92852159D01*
X146584500Y-92138444D01*
X146586213Y-92121055D01*
X146586213Y-92096550D01*
X146581433Y-92072517D01*
X146572056Y-92049878D01*
X146558443Y-92029503D01*
X146541116Y-92012175D01*
X146520742Y-91998561D01*
X146502175Y-91990870D01*
X146499985Y-91983650D01*
X146488434Y-91962039D01*
X146472888Y-91943097D01*
X146453946Y-91927551D01*
X146432335Y-91916000D01*
X146408886Y-91908887D01*
X146384500Y-91906485D01*
X146372245Y-91907087D01*
X146354856Y-91908800D01*
X145641141Y-91908800D01*
X145630143Y-91907717D01*
X145625472Y-91906300D01*
X145621170Y-91904000D01*
X145617396Y-91900904D01*
X145614300Y-91897130D01*
X145612000Y-91892828D01*
X145610583Y-91888157D01*
X145609500Y-91877159D01*
X145609500Y-91588441D01*
X145610583Y-91577443D01*
X145612000Y-91572772D01*
X145614300Y-91568470D01*
X145619531Y-91562095D01*
X145633144Y-91541720D01*
X145642520Y-91519081D01*
X145647300Y-91495047D01*
X145647299Y-91470543D01*
X145642517Y-91446509D01*
X145633139Y-91423871D01*
X145619531Y-91403505D01*
X145614300Y-91397130D01*
X145612000Y-91392828D01*
X145610583Y-91388157D01*
X145609500Y-91377159D01*
X145609500Y-91088441D01*
X145610583Y-91077443D01*
X145612000Y-91072772D01*
X145614300Y-91068470D01*
X145619531Y-91062095D01*
X145633144Y-91041720D01*
X145642520Y-91019081D01*
X145647300Y-90995047D01*
X145647299Y-90970543D01*
X145642517Y-90946509D01*
X145633139Y-90923871D01*
X145619531Y-90903505D01*
X145614300Y-90897130D01*
X145612000Y-90892828D01*
X145610583Y-90888157D01*
X145609500Y-90877159D01*
X145609500Y-90588441D01*
X145610583Y-90577443D01*
X145612000Y-90572772D01*
X145614300Y-90568470D01*
X145619531Y-90562095D01*
X145633144Y-90541720D01*
X145642520Y-90519081D01*
X145647300Y-90495047D01*
X145647299Y-90470543D01*
X145642517Y-90446509D01*
X145633139Y-90423871D01*
X145619531Y-90403505D01*
X145614300Y-90397130D01*
X145612000Y-90392828D01*
X145610583Y-90388157D01*
X145609500Y-90377159D01*
X145609500Y-90088441D01*
X145610583Y-90077443D01*
X145612000Y-90072772D01*
X145614300Y-90068470D01*
X145617396Y-90064696D01*
X145621170Y-90061600D01*
X145625472Y-90059300D01*
X145630143Y-90057883D01*
X145641141Y-90056800D01*
X146354856Y-90056800D01*
X146372245Y-90058513D01*
X146396750Y-90058513D01*
X146420783Y-90053733D01*
X146443422Y-90044356D01*
X146463797Y-90030743D01*
X146481125Y-90013416D01*
X146494739Y-89993042D01*
X146502430Y-89974475D01*
X146509650Y-89972285D01*
X146531261Y-89960734D01*
X146550203Y-89945188D01*
X146565749Y-89926246D01*
X146577300Y-89904635D01*
X146584413Y-89881186D01*
X146586815Y-89856800D01*
X146586213Y-89844545D01*
X146584500Y-89827156D01*
X146584500Y-89113441D01*
X146585583Y-89102443D01*
X146587000Y-89097772D01*
X146589300Y-89093470D01*
X146592396Y-89089696D01*
X146596170Y-89086600D01*
X146600472Y-89084300D01*
X146605143Y-89082883D01*
X146616141Y-89081800D01*
X146904859Y-89081800D01*
X146915857Y-89082883D01*
X146915857Y-89082883D01*
G37*
G36*
X171557500Y-91877500D02*
X169455500Y-91877500D01*
X169455500Y-90875500D01*
X171557500Y-90875500D01*
X171557500Y-91877500D01*
X171557500Y-91877500D01*
G37*
G36*
X188557500Y-91877500D02*
X186455500Y-91877500D01*
X186455500Y-90875500D01*
X188557500Y-90875500D01*
X188557500Y-91877500D01*
X188557500Y-91877500D01*
G37*
G36*
X188557500Y-90607500D02*
X186455500Y-90607500D01*
X186455500Y-89605500D01*
X188557500Y-89605500D01*
X188557500Y-90607500D01*
X188557500Y-90607500D01*
G37*
G36*
X171557500Y-90607500D02*
X169455500Y-90607500D01*
X169455500Y-89605500D01*
X171557500Y-89605500D01*
X171557500Y-90607500D01*
X171557500Y-90607500D01*
G37*
G36*
X142277400Y-90410600D02*
X140475400Y-90410600D01*
X140475400Y-88608600D01*
X142277400Y-88608600D01*
X142277400Y-90410600D01*
X142277400Y-90410600D01*
G37*
G36*
X182557500Y-89967500D02*
X177455500Y-89967500D01*
X177455500Y-84865500D01*
X182557500Y-84865500D01*
X182557500Y-89967500D01*
X182557500Y-89967500D01*
G37*
G36*
X188557500Y-89337500D02*
X186455500Y-89337500D01*
X186455500Y-88335500D01*
X188557500Y-88335500D01*
X188557500Y-89337500D01*
X188557500Y-89337500D01*
G37*
G36*
X171557500Y-89337500D02*
X169455500Y-89337500D01*
X169455500Y-88335500D01*
X171557500Y-88335500D01*
X171557500Y-89337500D01*
X171557500Y-89337500D01*
G37*
G36*
X171557500Y-88067500D02*
X169455500Y-88067500D01*
X169455500Y-87065500D01*
X171557500Y-87065500D01*
X171557500Y-88067500D01*
X171557500Y-88067500D01*
G37*
G36*
X188557500Y-88067500D02*
X186455500Y-88067500D01*
X186455500Y-87065500D01*
X188557500Y-87065500D01*
X188557500Y-88067500D01*
X188557500Y-88067500D01*
G37*
G36*
X171557500Y-86797500D02*
X169455500Y-86797500D01*
X169455500Y-85795500D01*
X171557500Y-85795500D01*
X171557500Y-86797500D01*
X171557500Y-86797500D01*
G37*
G36*
X188557500Y-86797500D02*
X186455500Y-86797500D01*
X186455500Y-85795500D01*
X188557500Y-85795500D01*
X188557500Y-86797500D01*
X188557500Y-86797500D01*
G37*
G36*
X147430442Y-84449518D02*
X147496627Y-84456037D01*
X147609853Y-84490384D01*
X147666467Y-84507557D01*
X147700035Y-84525500D01*
X147822991Y-84591222D01*
X147858729Y-84620552D01*
X147960186Y-84703814D01*
X148043448Y-84805271D01*
X148072778Y-84841009D01*
X148072779Y-84841011D01*
X148156443Y-84997533D01*
X148156443Y-84997534D01*
X148207963Y-85167373D01*
X148225359Y-85344000D01*
X148207963Y-85520627D01*
X148205878Y-85527500D01*
X148156443Y-85690467D01*
X148100301Y-85795500D01*
X148072778Y-85846991D01*
X148043448Y-85882729D01*
X147960186Y-85984186D01*
X147858729Y-86067448D01*
X147822991Y-86096778D01*
X147822989Y-86096779D01*
X147666467Y-86180443D01*
X147609853Y-86197616D01*
X147496627Y-86231963D01*
X147430442Y-86238482D01*
X147364260Y-86245000D01*
X147275740Y-86245000D01*
X147209558Y-86238482D01*
X147143373Y-86231963D01*
X147030147Y-86197616D01*
X146973533Y-86180443D01*
X146817011Y-86096779D01*
X146817009Y-86096778D01*
X146781271Y-86067448D01*
X146679814Y-85984186D01*
X146596552Y-85882729D01*
X146567222Y-85846991D01*
X146539699Y-85795500D01*
X146483557Y-85690467D01*
X146434122Y-85527500D01*
X146432037Y-85520627D01*
X146414641Y-85344000D01*
X146432037Y-85167373D01*
X146483557Y-84997534D01*
X146483557Y-84997533D01*
X146567221Y-84841011D01*
X146567222Y-84841009D01*
X146596552Y-84805271D01*
X146679814Y-84703814D01*
X146781271Y-84620552D01*
X146817009Y-84591222D01*
X146939965Y-84525500D01*
X146973533Y-84507557D01*
X147030147Y-84490384D01*
X147143373Y-84456037D01*
X147209558Y-84449518D01*
X147275740Y-84443000D01*
X147364260Y-84443000D01*
X147430442Y-84449518D01*
X147430442Y-84449518D01*
G37*
G36*
X171557500Y-85527500D02*
X169455500Y-85527500D01*
X169455500Y-84525500D01*
X171557500Y-84525500D01*
X171557500Y-85527500D01*
X171557500Y-85527500D01*
G37*
G36*
X188557500Y-85527500D02*
X186455500Y-85527500D01*
X186455500Y-84525500D01*
X188557500Y-84525500D01*
X188557500Y-85527500D01*
X188557500Y-85527500D01*
G37*
G36*
X188557500Y-84257500D02*
X186455500Y-84257500D01*
X186455500Y-83255500D01*
X188557500Y-83255500D01*
X188557500Y-84257500D01*
X188557500Y-84257500D01*
G37*
G36*
X171557500Y-84257500D02*
X169455500Y-84257500D01*
X169455500Y-83255500D01*
X171557500Y-83255500D01*
X171557500Y-84257500D01*
X171557500Y-84257500D01*
G37*
G36*
X147430442Y-81909518D02*
X147496627Y-81916037D01*
X147609853Y-81950384D01*
X147666467Y-81967557D01*
X147700035Y-81985500D01*
X147822991Y-82051222D01*
X147858729Y-82080552D01*
X147960186Y-82163814D01*
X148043448Y-82265271D01*
X148072778Y-82301009D01*
X148072779Y-82301011D01*
X148156443Y-82457533D01*
X148156443Y-82457534D01*
X148207963Y-82627373D01*
X148225359Y-82804000D01*
X148207963Y-82980627D01*
X148205878Y-82987500D01*
X148156443Y-83150467D01*
X148100301Y-83255500D01*
X148072778Y-83306991D01*
X148043448Y-83342729D01*
X147960186Y-83444186D01*
X147858729Y-83527448D01*
X147822991Y-83556778D01*
X147822989Y-83556779D01*
X147666467Y-83640443D01*
X147609853Y-83657616D01*
X147496627Y-83691963D01*
X147430442Y-83698482D01*
X147364260Y-83705000D01*
X147275740Y-83705000D01*
X147209558Y-83698482D01*
X147143373Y-83691963D01*
X147030147Y-83657616D01*
X146973533Y-83640443D01*
X146817011Y-83556779D01*
X146817009Y-83556778D01*
X146781271Y-83527448D01*
X146679814Y-83444186D01*
X146596552Y-83342729D01*
X146567222Y-83306991D01*
X146539699Y-83255500D01*
X146483557Y-83150467D01*
X146434122Y-82987500D01*
X146432037Y-82980627D01*
X146414641Y-82804000D01*
X146432037Y-82627373D01*
X146483557Y-82457534D01*
X146483557Y-82457533D01*
X146567221Y-82301011D01*
X146567222Y-82301009D01*
X146596552Y-82265271D01*
X146679814Y-82163814D01*
X146781271Y-82080552D01*
X146817009Y-82051222D01*
X146939965Y-81985500D01*
X146973533Y-81967557D01*
X147030147Y-81950384D01*
X147143373Y-81916037D01*
X147209558Y-81909518D01*
X147275740Y-81903000D01*
X147364260Y-81903000D01*
X147430442Y-81909518D01*
X147430442Y-81909518D01*
G37*
G36*
X171557500Y-82987500D02*
X169455500Y-82987500D01*
X169455500Y-81985500D01*
X171557500Y-81985500D01*
X171557500Y-82987500D01*
X171557500Y-82987500D01*
G37*
G36*
X188557500Y-82987500D02*
X186455500Y-82987500D01*
X186455500Y-81985500D01*
X188557500Y-81985500D01*
X188557500Y-82987500D01*
X188557500Y-82987500D01*
G37*
G36*
X171557500Y-81717500D02*
X169455500Y-81717500D01*
X169455500Y-80715500D01*
X171557500Y-80715500D01*
X171557500Y-81717500D01*
X171557500Y-81717500D01*
G37*
G36*
X188557500Y-81717500D02*
X186455500Y-81717500D01*
X186455500Y-80715500D01*
X188557500Y-80715500D01*
X188557500Y-81717500D01*
X188557500Y-81717500D01*
G37*
G36*
X147430442Y-79369518D02*
X147496627Y-79376037D01*
X147609853Y-79410384D01*
X147666467Y-79427557D01*
X147700035Y-79445500D01*
X147822991Y-79511222D01*
X147858729Y-79540552D01*
X147960186Y-79623814D01*
X148043448Y-79725271D01*
X148072778Y-79761009D01*
X148072779Y-79761011D01*
X148156443Y-79917533D01*
X148156443Y-79917534D01*
X148207963Y-80087373D01*
X148225359Y-80264000D01*
X148207963Y-80440627D01*
X148205878Y-80447500D01*
X148156443Y-80610467D01*
X148100301Y-80715500D01*
X148072778Y-80766991D01*
X148043448Y-80802729D01*
X147960186Y-80904186D01*
X147858729Y-80987448D01*
X147822991Y-81016778D01*
X147822989Y-81016779D01*
X147666467Y-81100443D01*
X147609853Y-81117616D01*
X147496627Y-81151963D01*
X147430443Y-81158481D01*
X147364260Y-81165000D01*
X147275740Y-81165000D01*
X147209557Y-81158481D01*
X147143373Y-81151963D01*
X147030147Y-81117616D01*
X146973533Y-81100443D01*
X146817011Y-81016779D01*
X146817009Y-81016778D01*
X146781271Y-80987448D01*
X146679814Y-80904186D01*
X146596552Y-80802729D01*
X146567222Y-80766991D01*
X146539699Y-80715500D01*
X146483557Y-80610467D01*
X146434122Y-80447500D01*
X146432037Y-80440627D01*
X146414641Y-80264000D01*
X146432037Y-80087373D01*
X146483557Y-79917534D01*
X146483557Y-79917533D01*
X146567221Y-79761011D01*
X146567222Y-79761009D01*
X146596552Y-79725271D01*
X146679814Y-79623814D01*
X146781271Y-79540552D01*
X146817009Y-79511222D01*
X146939965Y-79445500D01*
X146973533Y-79427557D01*
X147030147Y-79410384D01*
X147143373Y-79376037D01*
X147209558Y-79369518D01*
X147275740Y-79363000D01*
X147364260Y-79363000D01*
X147430442Y-79369518D01*
X147430442Y-79369518D01*
G37*
G36*
X188557500Y-80447500D02*
X186455500Y-80447500D01*
X186455500Y-79445500D01*
X188557500Y-79445500D01*
X188557500Y-80447500D01*
X188557500Y-80447500D01*
G37*
G36*
X171557500Y-80447500D02*
X169455500Y-80447500D01*
X169455500Y-79445500D01*
X171557500Y-79445500D01*
X171557500Y-80447500D01*
X171557500Y-80447500D01*
G37*
G36*
X188557500Y-79177500D02*
X186455500Y-79177500D01*
X186455500Y-78175500D01*
X188557500Y-78175500D01*
X188557500Y-79177500D01*
X188557500Y-79177500D01*
G37*
G36*
X171557500Y-79177500D02*
X169455500Y-79177500D01*
X169455500Y-78175500D01*
X171557500Y-78175500D01*
X171557500Y-79177500D01*
X171557500Y-79177500D01*
G37*
G36*
X147430443Y-76829519D02*
X147496627Y-76836037D01*
X147609853Y-76870384D01*
X147666467Y-76887557D01*
X147700035Y-76905500D01*
X147822991Y-76971222D01*
X147858729Y-77000552D01*
X147960186Y-77083814D01*
X148043448Y-77185271D01*
X148072778Y-77221009D01*
X148072779Y-77221011D01*
X148156443Y-77377533D01*
X148156443Y-77377534D01*
X148207963Y-77547373D01*
X148225359Y-77724000D01*
X148207963Y-77900627D01*
X148205878Y-77907500D01*
X148156443Y-78070467D01*
X148100301Y-78175500D01*
X148072778Y-78226991D01*
X148043448Y-78262729D01*
X147960186Y-78364186D01*
X147858729Y-78447448D01*
X147822991Y-78476778D01*
X147822989Y-78476779D01*
X147666467Y-78560443D01*
X147609853Y-78577616D01*
X147496627Y-78611963D01*
X147430442Y-78618482D01*
X147364260Y-78625000D01*
X147275740Y-78625000D01*
X147209558Y-78618482D01*
X147143373Y-78611963D01*
X147030147Y-78577616D01*
X146973533Y-78560443D01*
X146817011Y-78476779D01*
X146817009Y-78476778D01*
X146781271Y-78447448D01*
X146679814Y-78364186D01*
X146596552Y-78262729D01*
X146567222Y-78226991D01*
X146539699Y-78175500D01*
X146483557Y-78070467D01*
X146434122Y-77907500D01*
X146432037Y-77900627D01*
X146414641Y-77724000D01*
X146432037Y-77547373D01*
X146483557Y-77377534D01*
X146483557Y-77377533D01*
X146567221Y-77221011D01*
X146567222Y-77221009D01*
X146596552Y-77185271D01*
X146679814Y-77083814D01*
X146781271Y-77000552D01*
X146817009Y-76971222D01*
X146939965Y-76905500D01*
X146973533Y-76887557D01*
X147030147Y-76870384D01*
X147143373Y-76836037D01*
X147209557Y-76829519D01*
X147275740Y-76823000D01*
X147364260Y-76823000D01*
X147430443Y-76829519D01*
X147430443Y-76829519D01*
G37*
G36*
X171557500Y-77907500D02*
X169455500Y-77907500D01*
X169455500Y-76905500D01*
X171557500Y-76905500D01*
X171557500Y-77907500D01*
X171557500Y-77907500D01*
G37*
G36*
X188557500Y-77907500D02*
X186455500Y-77907500D01*
X186455500Y-76905500D01*
X188557500Y-76905500D01*
X188557500Y-77907500D01*
X188557500Y-77907500D01*
G37*
G36*
X182682500Y-77457500D02*
X181680500Y-77457500D01*
X181680500Y-75355500D01*
X182682500Y-75355500D01*
X182682500Y-77457500D01*
X182682500Y-77457500D01*
G37*
G36*
X181412500Y-77457500D02*
X180410500Y-77457500D01*
X180410500Y-75355500D01*
X181412500Y-75355500D01*
X181412500Y-77457500D01*
X181412500Y-77457500D01*
G37*
G36*
X176332500Y-77457500D02*
X175330500Y-77457500D01*
X175330500Y-75355500D01*
X176332500Y-75355500D01*
X176332500Y-77457500D01*
X176332500Y-77457500D01*
G37*
G36*
X185222500Y-77457500D02*
X184220500Y-77457500D01*
X184220500Y-75355500D01*
X185222500Y-75355500D01*
X185222500Y-77457500D01*
X185222500Y-77457500D01*
G37*
G36*
X180142500Y-77457500D02*
X179140500Y-77457500D01*
X179140500Y-75355500D01*
X180142500Y-75355500D01*
X180142500Y-77457500D01*
X180142500Y-77457500D01*
G37*
G36*
X177602500Y-77457500D02*
X176600500Y-77457500D01*
X176600500Y-75355500D01*
X177602500Y-75355500D01*
X177602500Y-77457500D01*
X177602500Y-77457500D01*
G37*
G36*
X173792500Y-77457500D02*
X172790500Y-77457500D01*
X172790500Y-75355500D01*
X173792500Y-75355500D01*
X173792500Y-77457500D01*
X173792500Y-77457500D01*
G37*
G36*
X175062500Y-77457500D02*
X174060500Y-77457500D01*
X174060500Y-75355500D01*
X175062500Y-75355500D01*
X175062500Y-77457500D01*
X175062500Y-77457500D01*
G37*
G36*
X183952500Y-77457500D02*
X182950500Y-77457500D01*
X182950500Y-75355500D01*
X183952500Y-75355500D01*
X183952500Y-77457500D01*
X183952500Y-77457500D01*
G37*
G36*
X178872500Y-77457500D02*
X177870500Y-77457500D01*
X177870500Y-75355500D01*
X178872500Y-75355500D01*
X178872500Y-77457500D01*
X178872500Y-77457500D01*
G37*
G36*
X142807642Y-74899118D02*
X142873827Y-74905637D01*
X142987053Y-74939984D01*
X143043667Y-74957157D01*
X143137613Y-75007373D01*
X143200191Y-75040822D01*
X143235929Y-75070152D01*
X143337386Y-75153414D01*
X143420648Y-75254871D01*
X143449978Y-75290609D01*
X143449979Y-75290611D01*
X143533643Y-75447133D01*
X143533643Y-75447134D01*
X143585163Y-75616973D01*
X143602559Y-75793600D01*
X143585163Y-75970227D01*
X143569930Y-76020443D01*
X143533643Y-76140067D01*
X143459548Y-76278687D01*
X143449978Y-76296591D01*
X143420648Y-76332329D01*
X143337386Y-76433786D01*
X143235929Y-76517048D01*
X143200191Y-76546378D01*
X143200189Y-76546379D01*
X143043667Y-76630043D01*
X142987053Y-76647216D01*
X142873827Y-76681563D01*
X142807642Y-76688082D01*
X142741460Y-76694600D01*
X142652940Y-76694600D01*
X142586758Y-76688082D01*
X142520573Y-76681563D01*
X142407347Y-76647216D01*
X142350733Y-76630043D01*
X142194211Y-76546379D01*
X142194209Y-76546378D01*
X142158471Y-76517048D01*
X142057014Y-76433786D01*
X141973752Y-76332329D01*
X141944422Y-76296591D01*
X141934852Y-76278687D01*
X141860757Y-76140067D01*
X141824470Y-76020443D01*
X141809237Y-75970227D01*
X141791841Y-75793600D01*
X141809237Y-75616973D01*
X141860757Y-75447134D01*
X141860757Y-75447133D01*
X141944421Y-75290611D01*
X141944422Y-75290609D01*
X141973752Y-75254871D01*
X142057014Y-75153414D01*
X142158471Y-75070152D01*
X142194209Y-75040822D01*
X142256787Y-75007373D01*
X142350733Y-74957157D01*
X142407347Y-74939984D01*
X142520573Y-74905637D01*
X142586758Y-74899118D01*
X142652940Y-74892600D01*
X142741460Y-74892600D01*
X142807642Y-74899118D01*
X142807642Y-74899118D01*
G37*
G36*
X147430442Y-74289518D02*
X147496627Y-74296037D01*
X147609853Y-74330384D01*
X147666467Y-74347557D01*
X147805087Y-74421652D01*
X147822991Y-74431222D01*
X147858729Y-74460552D01*
X147960186Y-74543814D01*
X148043448Y-74645271D01*
X148072778Y-74681009D01*
X148072779Y-74681011D01*
X148156443Y-74837533D01*
X148156443Y-74837534D01*
X148207963Y-75007373D01*
X148225359Y-75184000D01*
X148207963Y-75360627D01*
X148181722Y-75447133D01*
X148156443Y-75530467D01*
X148113129Y-75611500D01*
X148072778Y-75686991D01*
X148043448Y-75722729D01*
X147960186Y-75824186D01*
X147858729Y-75907448D01*
X147822991Y-75936778D01*
X147822989Y-75936779D01*
X147666467Y-76020443D01*
X147609853Y-76037616D01*
X147496627Y-76071963D01*
X147430443Y-76078481D01*
X147364260Y-76085000D01*
X147275740Y-76085000D01*
X147209557Y-76078481D01*
X147143373Y-76071963D01*
X147030147Y-76037616D01*
X146973533Y-76020443D01*
X146817011Y-75936779D01*
X146817009Y-75936778D01*
X146781271Y-75907448D01*
X146679814Y-75824186D01*
X146596552Y-75722729D01*
X146567222Y-75686991D01*
X146526871Y-75611500D01*
X146483557Y-75530467D01*
X146458278Y-75447133D01*
X146432037Y-75360627D01*
X146414641Y-75184000D01*
X146432037Y-75007373D01*
X146483557Y-74837534D01*
X146483557Y-74837533D01*
X146567221Y-74681011D01*
X146567222Y-74681009D01*
X146596552Y-74645271D01*
X146679814Y-74543814D01*
X146781271Y-74460552D01*
X146817009Y-74431222D01*
X146834913Y-74421652D01*
X146973533Y-74347557D01*
X147030147Y-74330384D01*
X147143373Y-74296037D01*
X147209558Y-74289518D01*
X147275740Y-74283000D01*
X147364260Y-74283000D01*
X147430442Y-74289518D01*
X147430442Y-74289518D01*
G37*
G36*
X162689683Y-74788725D02*
X162720144Y-74797966D01*
X162748223Y-74812975D01*
X162772831Y-74833169D01*
X162793025Y-74857777D01*
X162808034Y-74885856D01*
X162817275Y-74916317D01*
X162821000Y-74954140D01*
X162821000Y-75667860D01*
X162817275Y-75705683D01*
X162808034Y-75736144D01*
X162793025Y-75764223D01*
X162772831Y-75788831D01*
X162748223Y-75809025D01*
X162720144Y-75824034D01*
X162689683Y-75833275D01*
X162651860Y-75837000D01*
X162088140Y-75837000D01*
X162050317Y-75833275D01*
X162019856Y-75824034D01*
X161991777Y-75809025D01*
X161967169Y-75788831D01*
X161946975Y-75764223D01*
X161931966Y-75736144D01*
X161922725Y-75705683D01*
X161919000Y-75667860D01*
X161919000Y-74954140D01*
X161922725Y-74916317D01*
X161931966Y-74885856D01*
X161946975Y-74857777D01*
X161967169Y-74833169D01*
X161991777Y-74812975D01*
X162019856Y-74797966D01*
X162050317Y-74788725D01*
X162088140Y-74785000D01*
X162651860Y-74785000D01*
X162689683Y-74788725D01*
X162689683Y-74788725D01*
G37*
G36*
X164339683Y-74788725D02*
X164370144Y-74797966D01*
X164398223Y-74812975D01*
X164422831Y-74833169D01*
X164443025Y-74857777D01*
X164458034Y-74885856D01*
X164467275Y-74916317D01*
X164471000Y-74954140D01*
X164471000Y-75667860D01*
X164467275Y-75705683D01*
X164458034Y-75736144D01*
X164443025Y-75764223D01*
X164422831Y-75788831D01*
X164398223Y-75809025D01*
X164370144Y-75824034D01*
X164339683Y-75833275D01*
X164301860Y-75837000D01*
X163738140Y-75837000D01*
X163700317Y-75833275D01*
X163669856Y-75824034D01*
X163641777Y-75809025D01*
X163617169Y-75788831D01*
X163596975Y-75764223D01*
X163581966Y-75736144D01*
X163572725Y-75705683D01*
X163569000Y-75667860D01*
X163569000Y-74954140D01*
X163572725Y-74916317D01*
X163581966Y-74885856D01*
X163596975Y-74857777D01*
X163617169Y-74833169D01*
X163641777Y-74812975D01*
X163669856Y-74797966D01*
X163700317Y-74788725D01*
X163738140Y-74785000D01*
X164301860Y-74785000D01*
X164339683Y-74788725D01*
X164339683Y-74788725D01*
G37*
G36*
X173871400Y-74525800D02*
X171569400Y-74525800D01*
X171569400Y-72923800D01*
X173871400Y-72923800D01*
X173871400Y-74525800D01*
X173871400Y-74525800D01*
G37*
G36*
X143598200Y-74154600D02*
X141796200Y-74154600D01*
X141796200Y-72352600D01*
X143598200Y-72352600D01*
X143598200Y-74154600D01*
X143598200Y-74154600D01*
G37*
G36*
X180026600Y-74086200D02*
X178824600Y-74086200D01*
X178824600Y-72884200D01*
X180026600Y-72884200D01*
X180026600Y-74086200D01*
X180026600Y-74086200D01*
G37*
G36*
X176524833Y-72946086D02*
X176564681Y-72958174D01*
X176601401Y-72977801D01*
X176633586Y-73004214D01*
X176659999Y-73036399D01*
X176679626Y-73073119D01*
X176691714Y-73112967D01*
X176696400Y-73160541D01*
X176696400Y-73824259D01*
X176691714Y-73871833D01*
X176679626Y-73911681D01*
X176659999Y-73948401D01*
X176633586Y-73980586D01*
X176601401Y-74006999D01*
X176564681Y-74026626D01*
X176524833Y-74038714D01*
X176477259Y-74043400D01*
X175363541Y-74043400D01*
X175315967Y-74038714D01*
X175276119Y-74026626D01*
X175239399Y-74006999D01*
X175207214Y-73980586D01*
X175180801Y-73948401D01*
X175161174Y-73911681D01*
X175149086Y-73871833D01*
X175144400Y-73824259D01*
X175144400Y-73160541D01*
X175149086Y-73112967D01*
X175161174Y-73073119D01*
X175180801Y-73036399D01*
X175207214Y-73004214D01*
X175239399Y-72977801D01*
X175276119Y-72958174D01*
X175315967Y-72946086D01*
X175363541Y-72941400D01*
X176477259Y-72941400D01*
X176524833Y-72946086D01*
X176524833Y-72946086D01*
G37*
G36*
X162191500Y-73715500D02*
X160589500Y-73715500D01*
X160589500Y-72613500D01*
X162191500Y-72613500D01*
X162191500Y-73715500D01*
X162191500Y-73715500D01*
G37*
G36*
X157291500Y-73715500D02*
X155689500Y-73715500D01*
X155689500Y-72613500D01*
X157291500Y-72613500D01*
X157291500Y-73715500D01*
X157291500Y-73715500D01*
G37*
G36*
X148221000Y-73545000D02*
X146419000Y-73545000D01*
X146419000Y-71743000D01*
X148221000Y-71743000D01*
X148221000Y-73545000D01*
X148221000Y-73545000D01*
G37*
G36*
X167571400Y-73375800D02*
X165269400Y-73375800D01*
X165269400Y-69473800D01*
X167571400Y-69473800D01*
X167571400Y-73375800D01*
X167571400Y-73375800D01*
G37*
G36*
X173871400Y-72225800D02*
X171569400Y-72225800D01*
X171569400Y-70623800D01*
X173871400Y-70623800D01*
X173871400Y-72225800D01*
X173871400Y-72225800D01*
G37*
G36*
X176524833Y-71046086D02*
X176564681Y-71058174D01*
X176601401Y-71077801D01*
X176633586Y-71104214D01*
X176659999Y-71136399D01*
X176679626Y-71173119D01*
X176691714Y-71212967D01*
X176696400Y-71260541D01*
X176696400Y-71924259D01*
X176691714Y-71971833D01*
X176679626Y-72011681D01*
X176659999Y-72048401D01*
X176633586Y-72080586D01*
X176601401Y-72106999D01*
X176564681Y-72126626D01*
X176524833Y-72138714D01*
X176477259Y-72143400D01*
X175363541Y-72143400D01*
X175315967Y-72138714D01*
X175276119Y-72126626D01*
X175239399Y-72106999D01*
X175207214Y-72080586D01*
X175180801Y-72048401D01*
X175161174Y-72011681D01*
X175149086Y-71971833D01*
X175144400Y-71924259D01*
X175144400Y-71260541D01*
X175149086Y-71212967D01*
X175161174Y-71173119D01*
X175180801Y-71136399D01*
X175207214Y-71104214D01*
X175239399Y-71077801D01*
X175276119Y-71058174D01*
X175315967Y-71046086D01*
X175363541Y-71041400D01*
X176477259Y-71041400D01*
X176524833Y-71046086D01*
X176524833Y-71046086D01*
G37*
G36*
X180026600Y-71286200D02*
X178824600Y-71286200D01*
X178824600Y-70084200D01*
X180026600Y-70084200D01*
X180026600Y-71286200D01*
X180026600Y-71286200D01*
G37*
G36*
X136618450Y-66129398D02*
X136630702Y-66130000D01*
X137003697Y-66130000D01*
X137015950Y-66129398D01*
X137017199Y-66129275D01*
X137017200Y-66129275D01*
X137018450Y-66129398D01*
X137030702Y-66130000D01*
X137403697Y-66130000D01*
X137415950Y-66129398D01*
X137417199Y-66129275D01*
X137417200Y-66129275D01*
X137418450Y-66129398D01*
X137430702Y-66130000D01*
X137803697Y-66130000D01*
X137815950Y-66129398D01*
X137817199Y-66129275D01*
X137817200Y-66129275D01*
X137818450Y-66129398D01*
X137830702Y-66130000D01*
X138203697Y-66130000D01*
X138215950Y-66129398D01*
X138217199Y-66129275D01*
X138217200Y-66129275D01*
X138218450Y-66129398D01*
X138230702Y-66130000D01*
X138603697Y-66130000D01*
X138615950Y-66129398D01*
X138617199Y-66129275D01*
X138617200Y-66129275D01*
X138618450Y-66129398D01*
X138630702Y-66130000D01*
X138767200Y-66130000D01*
X138767200Y-66937362D01*
X138765029Y-66959405D01*
X138756452Y-66987680D01*
X138742524Y-67013737D01*
X138733527Y-67024700D01*
X138719913Y-67045074D01*
X138710536Y-67067713D01*
X138705755Y-67091747D01*
X138705755Y-67116251D01*
X138710535Y-67140284D01*
X138719912Y-67162924D01*
X138733526Y-67183298D01*
X138750853Y-67200626D01*
X138771227Y-67214240D01*
X138793866Y-67223617D01*
X138817900Y-67228398D01*
X138830153Y-67229000D01*
X139320700Y-67229000D01*
X139320700Y-67731000D01*
X138768200Y-67731000D01*
X138743814Y-67733402D01*
X138720365Y-67740515D01*
X138698754Y-67752066D01*
X138679812Y-67767612D01*
X138664266Y-67786554D01*
X138652715Y-67808165D01*
X138645602Y-67831614D01*
X138643200Y-67856000D01*
X138643200Y-69304000D01*
X138645602Y-69328386D01*
X138652715Y-69351835D01*
X138664266Y-69373446D01*
X138679812Y-69392388D01*
X138698754Y-69407934D01*
X138720365Y-69419485D01*
X138743814Y-69426598D01*
X138768200Y-69429000D01*
X139320700Y-69429000D01*
X139320700Y-69931000D01*
X138830153Y-69931000D01*
X138805767Y-69933402D01*
X138782318Y-69940515D01*
X138760707Y-69952066D01*
X138741765Y-69967612D01*
X138726219Y-69986554D01*
X138714668Y-70008165D01*
X138707555Y-70031614D01*
X138705153Y-70056000D01*
X138707555Y-70080386D01*
X138714668Y-70103835D01*
X138726219Y-70125446D01*
X138733527Y-70135300D01*
X138742524Y-70146263D01*
X138756452Y-70172320D01*
X138765029Y-70200595D01*
X138767200Y-70222638D01*
X138767200Y-71030000D01*
X138630703Y-71030000D01*
X138618450Y-71030602D01*
X138617201Y-71030725D01*
X138617200Y-71030725D01*
X138615950Y-71030602D01*
X138603698Y-71030000D01*
X138230703Y-71030000D01*
X138218450Y-71030602D01*
X138217201Y-71030725D01*
X138217200Y-71030725D01*
X138215950Y-71030602D01*
X138203698Y-71030000D01*
X137830703Y-71030000D01*
X137818450Y-71030602D01*
X137817201Y-71030725D01*
X137817200Y-71030725D01*
X137815950Y-71030602D01*
X137803698Y-71030000D01*
X137430703Y-71030000D01*
X137418450Y-71030602D01*
X137417201Y-71030725D01*
X137417200Y-71030725D01*
X137415950Y-71030602D01*
X137403698Y-71030000D01*
X137030703Y-71030000D01*
X137018450Y-71030602D01*
X137017201Y-71030725D01*
X137017200Y-71030725D01*
X137015950Y-71030602D01*
X137003698Y-71030000D01*
X136630703Y-71030000D01*
X136618450Y-71030602D01*
X136617201Y-71030725D01*
X136617200Y-71030725D01*
X136615950Y-71030602D01*
X136603698Y-71030000D01*
X136467200Y-71030000D01*
X136467200Y-70605010D01*
X136467201Y-70605000D01*
X136467201Y-70534819D01*
X136467200Y-70222640D01*
X136469371Y-70200596D01*
X136477948Y-70172321D01*
X136477949Y-70172318D01*
X136491874Y-70146265D01*
X136500873Y-70135300D01*
X136514487Y-70114926D01*
X136523864Y-70092287D01*
X136528645Y-70068253D01*
X136528645Y-70043749D01*
X136523865Y-70019716D01*
X136514488Y-69997076D01*
X136500874Y-69976702D01*
X136483547Y-69959374D01*
X136463173Y-69945760D01*
X136440534Y-69936383D01*
X136416500Y-69931602D01*
X136404247Y-69931000D01*
X135913700Y-69931000D01*
X135913700Y-69429000D01*
X136466200Y-69429000D01*
X136490586Y-69426598D01*
X136514035Y-69419485D01*
X136535646Y-69407934D01*
X136554588Y-69392388D01*
X136570134Y-69373446D01*
X136581685Y-69351835D01*
X136588798Y-69328386D01*
X136591200Y-69304000D01*
X136591200Y-67856000D01*
X136588798Y-67831614D01*
X136581685Y-67808165D01*
X136570134Y-67786554D01*
X136554588Y-67767612D01*
X136535646Y-67752066D01*
X136514035Y-67740515D01*
X136490586Y-67733402D01*
X136466200Y-67731000D01*
X135913700Y-67731000D01*
X135913700Y-67229000D01*
X136404248Y-67229000D01*
X136428634Y-67226598D01*
X136452083Y-67219485D01*
X136473694Y-67207934D01*
X136492636Y-67192388D01*
X136508182Y-67173446D01*
X136519733Y-67151835D01*
X136526846Y-67128386D01*
X136529248Y-67104000D01*
X136526846Y-67079614D01*
X136519733Y-67056165D01*
X136508182Y-67034554D01*
X136500874Y-67024700D01*
X136491877Y-67013737D01*
X136477949Y-66987680D01*
X136469372Y-66959405D01*
X136467201Y-66937362D01*
X136467200Y-66266498D01*
X136467200Y-66130000D01*
X136603697Y-66130000D01*
X136615950Y-66129398D01*
X136617199Y-66129275D01*
X136617200Y-66129275D01*
X136618450Y-66129398D01*
X136618450Y-66129398D01*
G37*
G36*
X143909508Y-69433498D02*
X143947517Y-69445028D01*
X143982548Y-69463753D01*
X144013250Y-69488950D01*
X144038447Y-69519652D01*
X144057172Y-69554683D01*
X144068702Y-69592692D01*
X144073200Y-69638362D01*
X144073200Y-70446638D01*
X144068702Y-70492308D01*
X144057172Y-70530317D01*
X144038447Y-70565348D01*
X144013250Y-70596050D01*
X143982548Y-70621247D01*
X143947517Y-70639972D01*
X143909508Y-70651502D01*
X143863838Y-70656000D01*
X141530562Y-70656000D01*
X141484892Y-70651502D01*
X141446883Y-70639972D01*
X141411852Y-70621247D01*
X141381150Y-70596050D01*
X141355953Y-70565348D01*
X141337228Y-70530317D01*
X141325698Y-70492308D01*
X141321200Y-70446638D01*
X141321200Y-69638362D01*
X141325698Y-69592692D01*
X141337228Y-69554683D01*
X141355953Y-69519652D01*
X141381150Y-69488950D01*
X141411852Y-69463753D01*
X141446883Y-69445028D01*
X141484892Y-69433498D01*
X141530562Y-69429000D01*
X143863838Y-69429000D01*
X143909508Y-69433498D01*
X143909508Y-69433498D01*
G37*
G36*
X157291500Y-70515500D02*
X155689500Y-70515500D01*
X155689500Y-69413500D01*
X157291500Y-69413500D01*
X157291500Y-70515500D01*
X157291500Y-70515500D01*
G37*
G36*
X162191500Y-70515500D02*
X160589500Y-70515500D01*
X160589500Y-69413500D01*
X162191500Y-69413500D01*
X162191500Y-70515500D01*
X162191500Y-70515500D01*
G37*
G36*
X173871400Y-69925800D02*
X171569400Y-69925800D01*
X171569400Y-68323800D01*
X173871400Y-68323800D01*
X173871400Y-69925800D01*
X173871400Y-69925800D01*
G37*
G36*
X175502233Y-68367486D02*
X175542081Y-68379574D01*
X175578801Y-68399201D01*
X175610986Y-68425614D01*
X175637399Y-68457799D01*
X175657026Y-68494519D01*
X175669114Y-68534367D01*
X175673800Y-68581941D01*
X175673800Y-69695659D01*
X175669114Y-69743233D01*
X175657026Y-69783081D01*
X175637399Y-69819801D01*
X175610986Y-69851986D01*
X175578801Y-69878399D01*
X175542081Y-69898026D01*
X175502233Y-69910114D01*
X175454659Y-69914800D01*
X174790941Y-69914800D01*
X174743367Y-69910114D01*
X174703519Y-69898026D01*
X174666799Y-69878399D01*
X174634614Y-69851986D01*
X174608201Y-69819801D01*
X174588574Y-69783081D01*
X174576486Y-69743233D01*
X174571800Y-69695659D01*
X174571800Y-68581941D01*
X174576486Y-68534367D01*
X174588574Y-68494519D01*
X174608201Y-68457799D01*
X174634614Y-68425614D01*
X174666799Y-68399201D01*
X174703519Y-68379574D01*
X174743367Y-68367486D01*
X174790941Y-68362800D01*
X175454659Y-68362800D01*
X175502233Y-68367486D01*
X175502233Y-68367486D01*
G37*
G36*
X177402233Y-68367486D02*
X177442081Y-68379574D01*
X177478801Y-68399201D01*
X177510986Y-68425614D01*
X177537399Y-68457799D01*
X177557026Y-68494519D01*
X177569114Y-68534367D01*
X177573800Y-68581941D01*
X177573800Y-69695659D01*
X177569114Y-69743233D01*
X177557026Y-69783081D01*
X177537399Y-69819801D01*
X177510986Y-69851986D01*
X177478801Y-69878399D01*
X177442081Y-69898026D01*
X177402233Y-69910114D01*
X177354659Y-69914800D01*
X176690941Y-69914800D01*
X176643367Y-69910114D01*
X176603519Y-69898026D01*
X176566799Y-69878399D01*
X176534614Y-69851986D01*
X176508201Y-69819801D01*
X176488574Y-69783081D01*
X176476486Y-69743233D01*
X176471800Y-69695659D01*
X176471800Y-68581941D01*
X176476486Y-68534367D01*
X176488574Y-68494519D01*
X176508201Y-68457799D01*
X176534614Y-68425614D01*
X176566799Y-68399201D01*
X176603519Y-68379574D01*
X176643367Y-68367486D01*
X176690941Y-68362800D01*
X177354659Y-68362800D01*
X177402233Y-68367486D01*
X177402233Y-68367486D01*
G37*
G36*
X146631832Y-64428363D02*
X146641198Y-64431204D01*
X146649817Y-64435811D01*
X146657381Y-64442019D01*
X146666584Y-64453232D01*
X146674974Y-64465789D01*
X146692301Y-64483116D01*
X146712676Y-64496730D01*
X146735315Y-64506107D01*
X146759349Y-64510887D01*
X146783853Y-64510887D01*
X146807886Y-64506106D01*
X146830525Y-64496729D01*
X146850900Y-64483115D01*
X146868227Y-64465788D01*
X146876617Y-64453232D01*
X146885819Y-64442019D01*
X146893383Y-64435811D01*
X146902002Y-64431204D01*
X146911368Y-64428363D01*
X146927240Y-64426800D01*
X147265960Y-64426800D01*
X147281832Y-64428363D01*
X147291198Y-64431204D01*
X147299817Y-64435811D01*
X147307381Y-64442019D01*
X147316584Y-64453232D01*
X147324974Y-64465789D01*
X147342301Y-64483116D01*
X147362676Y-64496730D01*
X147385315Y-64506107D01*
X147409349Y-64510887D01*
X147433853Y-64510887D01*
X147457886Y-64506106D01*
X147480525Y-64496729D01*
X147500900Y-64483115D01*
X147518227Y-64465788D01*
X147526617Y-64453232D01*
X147535819Y-64442019D01*
X147543383Y-64435811D01*
X147552002Y-64431204D01*
X147561368Y-64428363D01*
X147577240Y-64426800D01*
X147915960Y-64426800D01*
X147931832Y-64428363D01*
X147941198Y-64431204D01*
X147949817Y-64435811D01*
X147957381Y-64442019D01*
X147966584Y-64453232D01*
X147974974Y-64465789D01*
X147992301Y-64483116D01*
X148012676Y-64496730D01*
X148035315Y-64506107D01*
X148059349Y-64510887D01*
X148083853Y-64510887D01*
X148107886Y-64506106D01*
X148130525Y-64496729D01*
X148150900Y-64483115D01*
X148168227Y-64465788D01*
X148176617Y-64453232D01*
X148185819Y-64442019D01*
X148193383Y-64435811D01*
X148202002Y-64431204D01*
X148211368Y-64428363D01*
X148227240Y-64426800D01*
X148565960Y-64426800D01*
X148581832Y-64428363D01*
X148591198Y-64431204D01*
X148599817Y-64435811D01*
X148607381Y-64442019D01*
X148613589Y-64449583D01*
X148618196Y-64458202D01*
X148621037Y-64467568D01*
X148622600Y-64483440D01*
X148622600Y-65297165D01*
X148620888Y-65314551D01*
X148620888Y-65339055D01*
X148625669Y-65363088D01*
X148635047Y-65385727D01*
X148648662Y-65406101D01*
X148665989Y-65423428D01*
X148686364Y-65437042D01*
X148709003Y-65446418D01*
X148745286Y-65451800D01*
X148822600Y-65451800D01*
X148822600Y-65529114D01*
X148825002Y-65553500D01*
X148832115Y-65576949D01*
X148843666Y-65598560D01*
X148859212Y-65617502D01*
X148878154Y-65633048D01*
X148899765Y-65644599D01*
X148923214Y-65651712D01*
X148959849Y-65653512D01*
X148977235Y-65651800D01*
X149790960Y-65651800D01*
X149806832Y-65653363D01*
X149816198Y-65656204D01*
X149824817Y-65660811D01*
X149832381Y-65667019D01*
X149838589Y-65674583D01*
X149843196Y-65683202D01*
X149846037Y-65692568D01*
X149847600Y-65708440D01*
X149847600Y-66047160D01*
X149846037Y-66063032D01*
X149843196Y-66072398D01*
X149838589Y-66081017D01*
X149832381Y-66088581D01*
X149821168Y-66097784D01*
X149808611Y-66106174D01*
X149791284Y-66123501D01*
X149777670Y-66143876D01*
X149768293Y-66166515D01*
X149763513Y-66190549D01*
X149763513Y-66215053D01*
X149768294Y-66239086D01*
X149777671Y-66261725D01*
X149791285Y-66282100D01*
X149808612Y-66299427D01*
X149821168Y-66307817D01*
X149832381Y-66317019D01*
X149838589Y-66324583D01*
X149843196Y-66333202D01*
X149846037Y-66342568D01*
X149847600Y-66358440D01*
X149847600Y-66697160D01*
X149846037Y-66713032D01*
X149843196Y-66722398D01*
X149838589Y-66731017D01*
X149832381Y-66738581D01*
X149821168Y-66747784D01*
X149808611Y-66756174D01*
X149791284Y-66773501D01*
X149777670Y-66793876D01*
X149768293Y-66816515D01*
X149763513Y-66840549D01*
X149763513Y-66865053D01*
X149768294Y-66889086D01*
X149777671Y-66911725D01*
X149791285Y-66932100D01*
X149808612Y-66949427D01*
X149821168Y-66957817D01*
X149832381Y-66967019D01*
X149838589Y-66974583D01*
X149843196Y-66983202D01*
X149846037Y-66992568D01*
X149847600Y-67008440D01*
X149847600Y-67347160D01*
X149846037Y-67363032D01*
X149843196Y-67372398D01*
X149838589Y-67381017D01*
X149832381Y-67388581D01*
X149821168Y-67397784D01*
X149808611Y-67406174D01*
X149791284Y-67423501D01*
X149777670Y-67443876D01*
X149768293Y-67466515D01*
X149763513Y-67490549D01*
X149763513Y-67515053D01*
X149768294Y-67539086D01*
X149777671Y-67561725D01*
X149791285Y-67582100D01*
X149808612Y-67599427D01*
X149821168Y-67607817D01*
X149832381Y-67617019D01*
X149838589Y-67624583D01*
X149843196Y-67633202D01*
X149846037Y-67642568D01*
X149847600Y-67658440D01*
X149847600Y-67997160D01*
X149846037Y-68013032D01*
X149843196Y-68022398D01*
X149838589Y-68031017D01*
X149832381Y-68038581D01*
X149824817Y-68044789D01*
X149816198Y-68049396D01*
X149806832Y-68052237D01*
X149790960Y-68053800D01*
X148977235Y-68053800D01*
X148959849Y-68052088D01*
X148935345Y-68052088D01*
X148911312Y-68056869D01*
X148888673Y-68066247D01*
X148868299Y-68079862D01*
X148850972Y-68097189D01*
X148837358Y-68117564D01*
X148827982Y-68140203D01*
X148822600Y-68176486D01*
X148822600Y-68253800D01*
X148745286Y-68253800D01*
X148720900Y-68256202D01*
X148697451Y-68263315D01*
X148675840Y-68274866D01*
X148656898Y-68290412D01*
X148641352Y-68309354D01*
X148629801Y-68330965D01*
X148622688Y-68354414D01*
X148620888Y-68391049D01*
X148622600Y-68408435D01*
X148622600Y-69222160D01*
X148621037Y-69238032D01*
X148618196Y-69247398D01*
X148613589Y-69256017D01*
X148607381Y-69263581D01*
X148599817Y-69269789D01*
X148591198Y-69274396D01*
X148581832Y-69277237D01*
X148565960Y-69278800D01*
X148227240Y-69278800D01*
X148211368Y-69277237D01*
X148202002Y-69274396D01*
X148193383Y-69269789D01*
X148185819Y-69263581D01*
X148176616Y-69252368D01*
X148168226Y-69239811D01*
X148150899Y-69222484D01*
X148130524Y-69208870D01*
X148107885Y-69199493D01*
X148083851Y-69194713D01*
X148059347Y-69194713D01*
X148035314Y-69199494D01*
X148012675Y-69208871D01*
X147992300Y-69222485D01*
X147974973Y-69239812D01*
X147966583Y-69252368D01*
X147957381Y-69263581D01*
X147949817Y-69269789D01*
X147941198Y-69274396D01*
X147931832Y-69277237D01*
X147915960Y-69278800D01*
X147577240Y-69278800D01*
X147561368Y-69277237D01*
X147552002Y-69274396D01*
X147543383Y-69269789D01*
X147535819Y-69263581D01*
X147526616Y-69252368D01*
X147518226Y-69239811D01*
X147500899Y-69222484D01*
X147480524Y-69208870D01*
X147457885Y-69199493D01*
X147433851Y-69194713D01*
X147409347Y-69194713D01*
X147385314Y-69199494D01*
X147362675Y-69208871D01*
X147342300Y-69222485D01*
X147324973Y-69239812D01*
X147316583Y-69252368D01*
X147307381Y-69263581D01*
X147299817Y-69269789D01*
X147291198Y-69274396D01*
X147281832Y-69277237D01*
X147265960Y-69278800D01*
X146927240Y-69278800D01*
X146911368Y-69277237D01*
X146902002Y-69274396D01*
X146893383Y-69269789D01*
X146885819Y-69263581D01*
X146876616Y-69252368D01*
X146868226Y-69239811D01*
X146850899Y-69222484D01*
X146830524Y-69208870D01*
X146807885Y-69199493D01*
X146783851Y-69194713D01*
X146759347Y-69194713D01*
X146735314Y-69199494D01*
X146712675Y-69208871D01*
X146692300Y-69222485D01*
X146674973Y-69239812D01*
X146666583Y-69252368D01*
X146657381Y-69263581D01*
X146649817Y-69269789D01*
X146641198Y-69274396D01*
X146631832Y-69277237D01*
X146615960Y-69278800D01*
X146277240Y-69278800D01*
X146261368Y-69277237D01*
X146252002Y-69274396D01*
X146243383Y-69269789D01*
X146235819Y-69263581D01*
X146229611Y-69256017D01*
X146225004Y-69247398D01*
X146222163Y-69238032D01*
X146220600Y-69222160D01*
X146220600Y-68408435D01*
X146222312Y-68391049D01*
X146222312Y-68366545D01*
X146217531Y-68342512D01*
X146208153Y-68319873D01*
X146194538Y-68299499D01*
X146177211Y-68282172D01*
X146156836Y-68268558D01*
X146134197Y-68259182D01*
X146097914Y-68253800D01*
X146020600Y-68253800D01*
X146020600Y-68176486D01*
X146018198Y-68152100D01*
X146011085Y-68128651D01*
X145999534Y-68107040D01*
X145983988Y-68088098D01*
X145965046Y-68072552D01*
X145943435Y-68061001D01*
X145919986Y-68053888D01*
X145883351Y-68052088D01*
X145865965Y-68053800D01*
X145052240Y-68053800D01*
X145036368Y-68052237D01*
X145027002Y-68049396D01*
X145018383Y-68044789D01*
X145010819Y-68038581D01*
X145004611Y-68031017D01*
X145000004Y-68022398D01*
X144997163Y-68013032D01*
X144995600Y-67997160D01*
X144995600Y-67658440D01*
X144997163Y-67642568D01*
X145000004Y-67633202D01*
X145004611Y-67624583D01*
X145010819Y-67617019D01*
X145022032Y-67607816D01*
X145034589Y-67599426D01*
X145051916Y-67582099D01*
X145065530Y-67561724D01*
X145074907Y-67539085D01*
X145079687Y-67515051D01*
X145079687Y-67490547D01*
X145074906Y-67466514D01*
X145065529Y-67443875D01*
X145051915Y-67423500D01*
X145034588Y-67406173D01*
X145022032Y-67397783D01*
X145010819Y-67388581D01*
X145004611Y-67381017D01*
X145000004Y-67372398D01*
X144997163Y-67363032D01*
X144995600Y-67347160D01*
X144995600Y-67008440D01*
X144997163Y-66992568D01*
X145000004Y-66983202D01*
X145004611Y-66974583D01*
X145010819Y-66967019D01*
X145022032Y-66957816D01*
X145034589Y-66949426D01*
X145051916Y-66932099D01*
X145065530Y-66911724D01*
X145074907Y-66889085D01*
X145079687Y-66865051D01*
X145079687Y-66840547D01*
X145074906Y-66816514D01*
X145065529Y-66793875D01*
X145051915Y-66773500D01*
X145034588Y-66756173D01*
X145022032Y-66747783D01*
X145010819Y-66738581D01*
X145004611Y-66731017D01*
X145000004Y-66722398D01*
X144997163Y-66713032D01*
X144995600Y-66697160D01*
X144995600Y-66358440D01*
X144997163Y-66342568D01*
X145000004Y-66333202D01*
X145004611Y-66324583D01*
X145010819Y-66317019D01*
X145022032Y-66307816D01*
X145034589Y-66299426D01*
X145051916Y-66282099D01*
X145065530Y-66261724D01*
X145074907Y-66239085D01*
X145079687Y-66215051D01*
X145079687Y-66190547D01*
X145074906Y-66166514D01*
X145065529Y-66143875D01*
X145051915Y-66123500D01*
X145034588Y-66106173D01*
X145022032Y-66097783D01*
X145010819Y-66088581D01*
X145004611Y-66081017D01*
X145000004Y-66072398D01*
X144997163Y-66063032D01*
X144995600Y-66047160D01*
X144995600Y-65708440D01*
X144997163Y-65692568D01*
X145000004Y-65683202D01*
X145004611Y-65674583D01*
X145010819Y-65667019D01*
X145018383Y-65660811D01*
X145027002Y-65656204D01*
X145036368Y-65653363D01*
X145052240Y-65651800D01*
X145865965Y-65651800D01*
X145883351Y-65653512D01*
X145907855Y-65653512D01*
X145931888Y-65648731D01*
X145954527Y-65639353D01*
X145974901Y-65625738D01*
X145992228Y-65608411D01*
X146005842Y-65588036D01*
X146015218Y-65565397D01*
X146020600Y-65529114D01*
X146020600Y-65451800D01*
X146097914Y-65451800D01*
X146122300Y-65449398D01*
X146145749Y-65442285D01*
X146167360Y-65430734D01*
X146186302Y-65415188D01*
X146201848Y-65396246D01*
X146213399Y-65374635D01*
X146220512Y-65351186D01*
X146222312Y-65314551D01*
X146220600Y-65297165D01*
X146220600Y-64483440D01*
X146222163Y-64467568D01*
X146225004Y-64458202D01*
X146229611Y-64449583D01*
X146235819Y-64442019D01*
X146243383Y-64435811D01*
X146252002Y-64431204D01*
X146261368Y-64428363D01*
X146277240Y-64426800D01*
X146615960Y-64426800D01*
X146631832Y-64428363D01*
X146631832Y-64428363D01*
G37*
G36*
X153968357Y-63195583D02*
X153973028Y-63197000D01*
X153977330Y-63199300D01*
X153983705Y-63204531D01*
X154004080Y-63218144D01*
X154026719Y-63227520D01*
X154050753Y-63232300D01*
X154075257Y-63232299D01*
X154099291Y-63227517D01*
X154121929Y-63218139D01*
X154142295Y-63204531D01*
X154148670Y-63199300D01*
X154152972Y-63197000D01*
X154157643Y-63195583D01*
X154168641Y-63194500D01*
X154457359Y-63194500D01*
X154468357Y-63195583D01*
X154473028Y-63197000D01*
X154477330Y-63199300D01*
X154483705Y-63204531D01*
X154504080Y-63218144D01*
X154526719Y-63227520D01*
X154550753Y-63232300D01*
X154575257Y-63232299D01*
X154599291Y-63227517D01*
X154621929Y-63218139D01*
X154642295Y-63204531D01*
X154648670Y-63199300D01*
X154652972Y-63197000D01*
X154657643Y-63195583D01*
X154668641Y-63194500D01*
X154957359Y-63194500D01*
X154968357Y-63195583D01*
X154973028Y-63197000D01*
X154977330Y-63199300D01*
X154983705Y-63204531D01*
X155004080Y-63218144D01*
X155026719Y-63227520D01*
X155050753Y-63232300D01*
X155075257Y-63232299D01*
X155099291Y-63227517D01*
X155121929Y-63218139D01*
X155142295Y-63204531D01*
X155148670Y-63199300D01*
X155152972Y-63197000D01*
X155157643Y-63195583D01*
X155168641Y-63194500D01*
X155457359Y-63194500D01*
X155468357Y-63195583D01*
X155473028Y-63197000D01*
X155477330Y-63199300D01*
X155483705Y-63204531D01*
X155504080Y-63218144D01*
X155526719Y-63227520D01*
X155550753Y-63232300D01*
X155575257Y-63232299D01*
X155599291Y-63227517D01*
X155621929Y-63218139D01*
X155642295Y-63204531D01*
X155648670Y-63199300D01*
X155652972Y-63197000D01*
X155657643Y-63195583D01*
X155668641Y-63194500D01*
X155957359Y-63194500D01*
X155968357Y-63195583D01*
X155973028Y-63197000D01*
X155977330Y-63199300D01*
X155981104Y-63202396D01*
X155984200Y-63206170D01*
X155986500Y-63210472D01*
X155987917Y-63215143D01*
X155989000Y-63226141D01*
X155989000Y-64089859D01*
X155987917Y-64100857D01*
X155986500Y-64105527D01*
X155983802Y-64110575D01*
X155974425Y-64133214D01*
X155969644Y-64157247D01*
X155969644Y-64181752D01*
X155974424Y-64205785D01*
X155983802Y-64228424D01*
X155997415Y-64248799D01*
X156014743Y-64266126D01*
X156035117Y-64279740D01*
X156057756Y-64289117D01*
X156081789Y-64293898D01*
X156094042Y-64294500D01*
X156114000Y-64294500D01*
X156114000Y-64314458D01*
X156116402Y-64338844D01*
X156123515Y-64362293D01*
X156135066Y-64383904D01*
X156150612Y-64402846D01*
X156169554Y-64418392D01*
X156191165Y-64429943D01*
X156214614Y-64437056D01*
X156239000Y-64439458D01*
X156263386Y-64437056D01*
X156286835Y-64429943D01*
X156297925Y-64424698D01*
X156302973Y-64422000D01*
X156307643Y-64420583D01*
X156318641Y-64419500D01*
X157182359Y-64419500D01*
X157193357Y-64420583D01*
X157198028Y-64422000D01*
X157202330Y-64424300D01*
X157206104Y-64427396D01*
X157209200Y-64431170D01*
X157211500Y-64435472D01*
X157212917Y-64440143D01*
X157214000Y-64451141D01*
X157214000Y-64739859D01*
X157212917Y-64750857D01*
X157211500Y-64755528D01*
X157209200Y-64759830D01*
X157203969Y-64766205D01*
X157190356Y-64786580D01*
X157180980Y-64809219D01*
X157176200Y-64833253D01*
X157176201Y-64857757D01*
X157180983Y-64881791D01*
X157190361Y-64904429D01*
X157203969Y-64924795D01*
X157209200Y-64931170D01*
X157211500Y-64935472D01*
X157212917Y-64940143D01*
X157214000Y-64951141D01*
X157214000Y-65239859D01*
X157212917Y-65250857D01*
X157211500Y-65255528D01*
X157209200Y-65259830D01*
X157203969Y-65266205D01*
X157190356Y-65286580D01*
X157180980Y-65309219D01*
X157176200Y-65333253D01*
X157176201Y-65357757D01*
X157180983Y-65381791D01*
X157190361Y-65404429D01*
X157203969Y-65424795D01*
X157209200Y-65431170D01*
X157211500Y-65435472D01*
X157212917Y-65440143D01*
X157214000Y-65451141D01*
X157214000Y-65739859D01*
X157212917Y-65750857D01*
X157211500Y-65755528D01*
X157209200Y-65759830D01*
X157203969Y-65766205D01*
X157190356Y-65786580D01*
X157180980Y-65809219D01*
X157176200Y-65833253D01*
X157176201Y-65857757D01*
X157180983Y-65881791D01*
X157190361Y-65904429D01*
X157203969Y-65924795D01*
X157209200Y-65931170D01*
X157211500Y-65935472D01*
X157212917Y-65940143D01*
X157214000Y-65951141D01*
X157214000Y-66239859D01*
X157212917Y-66250857D01*
X157211500Y-66255528D01*
X157209200Y-66259830D01*
X157203969Y-66266205D01*
X157190356Y-66286580D01*
X157180980Y-66309219D01*
X157176200Y-66333253D01*
X157176201Y-66357757D01*
X157180983Y-66381791D01*
X157190361Y-66404429D01*
X157203969Y-66424795D01*
X157209200Y-66431170D01*
X157211500Y-66435472D01*
X157212917Y-66440143D01*
X157214000Y-66451141D01*
X157214000Y-66739859D01*
X157212917Y-66750857D01*
X157211500Y-66755528D01*
X157209200Y-66759830D01*
X157206104Y-66763604D01*
X157202330Y-66766700D01*
X157198028Y-66769000D01*
X157193357Y-66770417D01*
X157182359Y-66771500D01*
X156318641Y-66771500D01*
X156307643Y-66770417D01*
X156302973Y-66769000D01*
X156297925Y-66766302D01*
X156275286Y-66756925D01*
X156251253Y-66752144D01*
X156226748Y-66752144D01*
X156202715Y-66756924D01*
X156180076Y-66766302D01*
X156159701Y-66779915D01*
X156142374Y-66797243D01*
X156128760Y-66817617D01*
X156119383Y-66840256D01*
X156114602Y-66864289D01*
X156114000Y-66876542D01*
X156114000Y-66896500D01*
X156094042Y-66896500D01*
X156069656Y-66898902D01*
X156046207Y-66906015D01*
X156024596Y-66917566D01*
X156005654Y-66933112D01*
X155990108Y-66952054D01*
X155978557Y-66973665D01*
X155971444Y-66997114D01*
X155969042Y-67021500D01*
X155971444Y-67045886D01*
X155978557Y-67069335D01*
X155983802Y-67080425D01*
X155986500Y-67085473D01*
X155987917Y-67090143D01*
X155989000Y-67101141D01*
X155989000Y-67964859D01*
X155987917Y-67975857D01*
X155986500Y-67980528D01*
X155984200Y-67984830D01*
X155981104Y-67988604D01*
X155977330Y-67991700D01*
X155973028Y-67994000D01*
X155968357Y-67995417D01*
X155957359Y-67996500D01*
X155668641Y-67996500D01*
X155657643Y-67995417D01*
X155652972Y-67994000D01*
X155648670Y-67991700D01*
X155642295Y-67986469D01*
X155621920Y-67972856D01*
X155599281Y-67963480D01*
X155575247Y-67958700D01*
X155550743Y-67958701D01*
X155526709Y-67963483D01*
X155504071Y-67972861D01*
X155483705Y-67986469D01*
X155477330Y-67991700D01*
X155473028Y-67994000D01*
X155468357Y-67995417D01*
X155457359Y-67996500D01*
X155168641Y-67996500D01*
X155157643Y-67995417D01*
X155152972Y-67994000D01*
X155148670Y-67991700D01*
X155142295Y-67986469D01*
X155121920Y-67972856D01*
X155099281Y-67963480D01*
X155075247Y-67958700D01*
X155050743Y-67958701D01*
X155026709Y-67963483D01*
X155004071Y-67972861D01*
X154983705Y-67986469D01*
X154977330Y-67991700D01*
X154973028Y-67994000D01*
X154968357Y-67995417D01*
X154957359Y-67996500D01*
X154668641Y-67996500D01*
X154657643Y-67995417D01*
X154652972Y-67994000D01*
X154648670Y-67991700D01*
X154642295Y-67986469D01*
X154621920Y-67972856D01*
X154599281Y-67963480D01*
X154575247Y-67958700D01*
X154550743Y-67958701D01*
X154526709Y-67963483D01*
X154504071Y-67972861D01*
X154483705Y-67986469D01*
X154477330Y-67991700D01*
X154473028Y-67994000D01*
X154468357Y-67995417D01*
X154457359Y-67996500D01*
X154168641Y-67996500D01*
X154157643Y-67995417D01*
X154152972Y-67994000D01*
X154148670Y-67991700D01*
X154142295Y-67986469D01*
X154121920Y-67972856D01*
X154099281Y-67963480D01*
X154075247Y-67958700D01*
X154050743Y-67958701D01*
X154026709Y-67963483D01*
X154004071Y-67972861D01*
X153983705Y-67986469D01*
X153977330Y-67991700D01*
X153973028Y-67994000D01*
X153968357Y-67995417D01*
X153957359Y-67996500D01*
X153668641Y-67996500D01*
X153657643Y-67995417D01*
X153652972Y-67994000D01*
X153648670Y-67991700D01*
X153644896Y-67988604D01*
X153641800Y-67984830D01*
X153639500Y-67980528D01*
X153638083Y-67975857D01*
X153637000Y-67964859D01*
X153637000Y-67101141D01*
X153638083Y-67090143D01*
X153639500Y-67085473D01*
X153642198Y-67080425D01*
X153651575Y-67057786D01*
X153656356Y-67033753D01*
X153656356Y-67009248D01*
X153651576Y-66985215D01*
X153642198Y-66962576D01*
X153628585Y-66942201D01*
X153611257Y-66924874D01*
X153590883Y-66911260D01*
X153568244Y-66901883D01*
X153544211Y-66897102D01*
X153531958Y-66896500D01*
X153512000Y-66896500D01*
X153512000Y-66876542D01*
X153509598Y-66852156D01*
X153502485Y-66828707D01*
X153490934Y-66807096D01*
X153475388Y-66788154D01*
X153456446Y-66772608D01*
X153434835Y-66761057D01*
X153411386Y-66753944D01*
X153387000Y-66751542D01*
X153362614Y-66753944D01*
X153339165Y-66761057D01*
X153328075Y-66766302D01*
X153323027Y-66769000D01*
X153318357Y-66770417D01*
X153307359Y-66771500D01*
X152443641Y-66771500D01*
X152432643Y-66770417D01*
X152427972Y-66769000D01*
X152423670Y-66766700D01*
X152419896Y-66763604D01*
X152416800Y-66759830D01*
X152414500Y-66755528D01*
X152413083Y-66750857D01*
X152412000Y-66739859D01*
X152412000Y-66451141D01*
X152413083Y-66440143D01*
X152414500Y-66435472D01*
X152416800Y-66431170D01*
X152422031Y-66424795D01*
X152435644Y-66404420D01*
X152445020Y-66381781D01*
X152449800Y-66357747D01*
X152449799Y-66333243D01*
X152445017Y-66309209D01*
X152435639Y-66286571D01*
X152422031Y-66266205D01*
X152416800Y-66259830D01*
X152414500Y-66255528D01*
X152413083Y-66250857D01*
X152412000Y-66239859D01*
X152412000Y-65951141D01*
X152413083Y-65940143D01*
X152414500Y-65935472D01*
X152416800Y-65931170D01*
X152422031Y-65924795D01*
X152435644Y-65904420D01*
X152445020Y-65881781D01*
X152449800Y-65857747D01*
X152449799Y-65833243D01*
X152445017Y-65809209D01*
X152435639Y-65786571D01*
X152422031Y-65766205D01*
X152416800Y-65759830D01*
X152414500Y-65755528D01*
X152413083Y-65750857D01*
X152412000Y-65739859D01*
X152412000Y-65451141D01*
X152413083Y-65440143D01*
X152414500Y-65435472D01*
X152416800Y-65431170D01*
X152422031Y-65424795D01*
X152435644Y-65404420D01*
X152445020Y-65381781D01*
X152449800Y-65357747D01*
X152449799Y-65333243D01*
X152445017Y-65309209D01*
X152435639Y-65286571D01*
X152422031Y-65266205D01*
X152416800Y-65259830D01*
X152414500Y-65255528D01*
X152413083Y-65250857D01*
X152412000Y-65239859D01*
X152412000Y-64951141D01*
X152413083Y-64940143D01*
X152414500Y-64935472D01*
X152416800Y-64931170D01*
X152422031Y-64924795D01*
X152435644Y-64904420D01*
X152445020Y-64881781D01*
X152449800Y-64857747D01*
X152449799Y-64833243D01*
X152445017Y-64809209D01*
X152435639Y-64786571D01*
X152422031Y-64766205D01*
X152416800Y-64759830D01*
X152414500Y-64755528D01*
X152413083Y-64750857D01*
X152412000Y-64739859D01*
X152412000Y-64451141D01*
X152413083Y-64440143D01*
X152414500Y-64435472D01*
X152416800Y-64431170D01*
X152419896Y-64427396D01*
X152423670Y-64424300D01*
X152427972Y-64422000D01*
X152432643Y-64420583D01*
X152443641Y-64419500D01*
X153307359Y-64419500D01*
X153318357Y-64420583D01*
X153323027Y-64422000D01*
X153328075Y-64424698D01*
X153350714Y-64434075D01*
X153374747Y-64438856D01*
X153399252Y-64438856D01*
X153423285Y-64434076D01*
X153445924Y-64424698D01*
X153466299Y-64411085D01*
X153483626Y-64393757D01*
X153497240Y-64373383D01*
X153506617Y-64350744D01*
X153511398Y-64326711D01*
X153512000Y-64314458D01*
X153512000Y-64294500D01*
X153531958Y-64294500D01*
X153556344Y-64292098D01*
X153579793Y-64284985D01*
X153601404Y-64273434D01*
X153620346Y-64257888D01*
X153635892Y-64238946D01*
X153647443Y-64217335D01*
X153654556Y-64193886D01*
X153656958Y-64169500D01*
X153654556Y-64145114D01*
X153647443Y-64121665D01*
X153642198Y-64110575D01*
X153639500Y-64105527D01*
X153638083Y-64100857D01*
X153637000Y-64089859D01*
X153637000Y-63226141D01*
X153638083Y-63215143D01*
X153639500Y-63210472D01*
X153641800Y-63206170D01*
X153644896Y-63202396D01*
X153648670Y-63199300D01*
X153652972Y-63197000D01*
X153657643Y-63195583D01*
X153668641Y-63194500D01*
X153957359Y-63194500D01*
X153968357Y-63195583D01*
X153968357Y-63195583D01*
G37*
G36*
X143909508Y-66508498D02*
X143947517Y-66520028D01*
X143982548Y-66538753D01*
X144013250Y-66563950D01*
X144038447Y-66594652D01*
X144057172Y-66629683D01*
X144068702Y-66667692D01*
X144073200Y-66713362D01*
X144073200Y-67521638D01*
X144068702Y-67567308D01*
X144057172Y-67605317D01*
X144038447Y-67640348D01*
X144013250Y-67671050D01*
X143982548Y-67696247D01*
X143947517Y-67714972D01*
X143909508Y-67726502D01*
X143863838Y-67731000D01*
X141530562Y-67731000D01*
X141484892Y-67726502D01*
X141446883Y-67714972D01*
X141411852Y-67696247D01*
X141381150Y-67671050D01*
X141355953Y-67640348D01*
X141337228Y-67605317D01*
X141325698Y-67567308D01*
X141321200Y-67521638D01*
X141321200Y-66713362D01*
X141325698Y-66667692D01*
X141337228Y-66629683D01*
X141355953Y-66594652D01*
X141381150Y-66563950D01*
X141411852Y-66538753D01*
X141446883Y-66520028D01*
X141484892Y-66508498D01*
X141530562Y-66504000D01*
X143863838Y-66504000D01*
X143909508Y-66508498D01*
X143909508Y-66508498D01*
G37*
G36*
X165608654Y-64473824D02*
X165729210Y-64497804D01*
X166011474Y-64614721D01*
X166265505Y-64784459D01*
X166481541Y-65000495D01*
X166651279Y-65254526D01*
X166768196Y-65536790D01*
X166768196Y-65536791D01*
X166827800Y-65836438D01*
X166827800Y-66141962D01*
X166799035Y-66286571D01*
X166768196Y-66441610D01*
X166651279Y-66723874D01*
X166481541Y-66977905D01*
X166265505Y-67193941D01*
X166011474Y-67363679D01*
X165729210Y-67480596D01*
X165629327Y-67500464D01*
X165429562Y-67540200D01*
X165124038Y-67540200D01*
X164924273Y-67500464D01*
X164824390Y-67480596D01*
X164542126Y-67363679D01*
X164288095Y-67193941D01*
X164072059Y-66977905D01*
X163902321Y-66723874D01*
X163785404Y-66441610D01*
X163754565Y-66286571D01*
X163725800Y-66141962D01*
X163725800Y-65836438D01*
X163785404Y-65536791D01*
X163785404Y-65536790D01*
X163902321Y-65254526D01*
X164072059Y-65000495D01*
X164288095Y-64784459D01*
X164542126Y-64614721D01*
X164824390Y-64497804D01*
X164944946Y-64473824D01*
X165124038Y-64438200D01*
X165429562Y-64438200D01*
X165608654Y-64473824D01*
X165608654Y-64473824D01*
G37*
G36*
X175008654Y-64473824D02*
X175129210Y-64497804D01*
X175411474Y-64614721D01*
X175665505Y-64784459D01*
X175881541Y-65000495D01*
X176051279Y-65254526D01*
X176168196Y-65536790D01*
X176168196Y-65536791D01*
X176227800Y-65836438D01*
X176227800Y-66141962D01*
X176199035Y-66286571D01*
X176168196Y-66441610D01*
X176051279Y-66723874D01*
X175881541Y-66977905D01*
X175665505Y-67193941D01*
X175411474Y-67363679D01*
X175129210Y-67480596D01*
X175029327Y-67500464D01*
X174829562Y-67540200D01*
X174524038Y-67540200D01*
X174324273Y-67500464D01*
X174224390Y-67480596D01*
X173942126Y-67363679D01*
X173688095Y-67193941D01*
X173472059Y-66977905D01*
X173302321Y-66723874D01*
X173185404Y-66441610D01*
X173154565Y-66286571D01*
X173125800Y-66141962D01*
X173125800Y-65836438D01*
X173185404Y-65536791D01*
X173185404Y-65536790D01*
X173302321Y-65254526D01*
X173472059Y-65000495D01*
X173688095Y-64784459D01*
X173942126Y-64614721D01*
X174224390Y-64497804D01*
X174344946Y-64473824D01*
X174524038Y-64438200D01*
X174829562Y-64438200D01*
X175008654Y-64473824D01*
X175008654Y-64473824D01*
G37*
G36*
X170308654Y-64473824D02*
X170429210Y-64497804D01*
X170711474Y-64614721D01*
X170965505Y-64784459D01*
X171181541Y-65000495D01*
X171351279Y-65254526D01*
X171468196Y-65536790D01*
X171468196Y-65536791D01*
X171527800Y-65836438D01*
X171527800Y-66141962D01*
X171499035Y-66286571D01*
X171468196Y-66441610D01*
X171351279Y-66723874D01*
X171181541Y-66977905D01*
X170965505Y-67193941D01*
X170711474Y-67363679D01*
X170429210Y-67480596D01*
X170329327Y-67500464D01*
X170129562Y-67540200D01*
X169824038Y-67540200D01*
X169624273Y-67500464D01*
X169524390Y-67480596D01*
X169242126Y-67363679D01*
X168988095Y-67193941D01*
X168772059Y-66977905D01*
X168602321Y-66723874D01*
X168485404Y-66441610D01*
X168454565Y-66286571D01*
X168425800Y-66141962D01*
X168425800Y-65836438D01*
X168485404Y-65536791D01*
X168485404Y-65536790D01*
X168602321Y-65254526D01*
X168772059Y-65000495D01*
X168988095Y-64784459D01*
X169242126Y-64614721D01*
X169524390Y-64497804D01*
X169644946Y-64473824D01*
X169824038Y-64438200D01*
X170129562Y-64438200D01*
X170308654Y-64473824D01*
X170308654Y-64473824D01*
G37*
G36*
X142191883Y-64654125D02*
X142222344Y-64663366D01*
X142250423Y-64678375D01*
X142275031Y-64698569D01*
X142295225Y-64723177D01*
X142310234Y-64751256D01*
X142319475Y-64781717D01*
X142323200Y-64819540D01*
X142323200Y-65533260D01*
X142319475Y-65571083D01*
X142310234Y-65601544D01*
X142295225Y-65629623D01*
X142275031Y-65654231D01*
X142250423Y-65674425D01*
X142222344Y-65689434D01*
X142191883Y-65698675D01*
X142154060Y-65702400D01*
X141590340Y-65702400D01*
X141552517Y-65698675D01*
X141522056Y-65689434D01*
X141493977Y-65674425D01*
X141469369Y-65654231D01*
X141449175Y-65629623D01*
X141434166Y-65601544D01*
X141424925Y-65571083D01*
X141421200Y-65533260D01*
X141421200Y-64819540D01*
X141424925Y-64781717D01*
X141434166Y-64751256D01*
X141449175Y-64723177D01*
X141469369Y-64698569D01*
X141493977Y-64678375D01*
X141522056Y-64663366D01*
X141552517Y-64654125D01*
X141590340Y-64650400D01*
X142154060Y-64650400D01*
X142191883Y-64654125D01*
X142191883Y-64654125D01*
G37*
G36*
X143841883Y-64654125D02*
X143872344Y-64663366D01*
X143900423Y-64678375D01*
X143925031Y-64698569D01*
X143945225Y-64723177D01*
X143960234Y-64751256D01*
X143969475Y-64781717D01*
X143973200Y-64819540D01*
X143973200Y-65533260D01*
X143969475Y-65571083D01*
X143960234Y-65601544D01*
X143945225Y-65629623D01*
X143925031Y-65654231D01*
X143900423Y-65674425D01*
X143872344Y-65689434D01*
X143841883Y-65698675D01*
X143804060Y-65702400D01*
X143240340Y-65702400D01*
X143202517Y-65698675D01*
X143172056Y-65689434D01*
X143143977Y-65674425D01*
X143119369Y-65654231D01*
X143099175Y-65629623D01*
X143084166Y-65601544D01*
X143074925Y-65571083D01*
X143071200Y-65533260D01*
X143071200Y-64819540D01*
X143074925Y-64781717D01*
X143084166Y-64751256D01*
X143099175Y-64723177D01*
X143119369Y-64698569D01*
X143143977Y-64678375D01*
X143172056Y-64663366D01*
X143202517Y-64654125D01*
X143240340Y-64650400D01*
X143804060Y-64650400D01*
X143841883Y-64654125D01*
X143841883Y-64654125D01*
G37*
G36*
X137670683Y-64450925D02*
X137701144Y-64460166D01*
X137729223Y-64475175D01*
X137753831Y-64495369D01*
X137774025Y-64519977D01*
X137789034Y-64548056D01*
X137798275Y-64578517D01*
X137802000Y-64616340D01*
X137802000Y-65330060D01*
X137798275Y-65367883D01*
X137789034Y-65398344D01*
X137774025Y-65426423D01*
X137753831Y-65451031D01*
X137729223Y-65471225D01*
X137701144Y-65486234D01*
X137670683Y-65495475D01*
X137632860Y-65499200D01*
X137069140Y-65499200D01*
X137031317Y-65495475D01*
X137000856Y-65486234D01*
X136972777Y-65471225D01*
X136948169Y-65451031D01*
X136927975Y-65426423D01*
X136912966Y-65398344D01*
X136903725Y-65367883D01*
X136900000Y-65330060D01*
X136900000Y-64616340D01*
X136903725Y-64578517D01*
X136912966Y-64548056D01*
X136927975Y-64519977D01*
X136948169Y-64495369D01*
X136972777Y-64475175D01*
X137000856Y-64460166D01*
X137031317Y-64450925D01*
X137069140Y-64447200D01*
X137632860Y-64447200D01*
X137670683Y-64450925D01*
X137670683Y-64450925D01*
G37*
G36*
X139320683Y-64450925D02*
X139351144Y-64460166D01*
X139379223Y-64475175D01*
X139403831Y-64495369D01*
X139424025Y-64519977D01*
X139439034Y-64548056D01*
X139448275Y-64578517D01*
X139452000Y-64616340D01*
X139452000Y-65330060D01*
X139448275Y-65367883D01*
X139439034Y-65398344D01*
X139424025Y-65426423D01*
X139403831Y-65451031D01*
X139379223Y-65471225D01*
X139351144Y-65486234D01*
X139320683Y-65495475D01*
X139282860Y-65499200D01*
X138719140Y-65499200D01*
X138681317Y-65495475D01*
X138650856Y-65486234D01*
X138622777Y-65471225D01*
X138598169Y-65451031D01*
X138577975Y-65426423D01*
X138562966Y-65398344D01*
X138553725Y-65367883D01*
X138550000Y-65330060D01*
X138550000Y-64616340D01*
X138553725Y-64578517D01*
X138562966Y-64548056D01*
X138577975Y-64519977D01*
X138598169Y-64495369D01*
X138622777Y-64475175D01*
X138650856Y-64460166D01*
X138681317Y-64450925D01*
X138719140Y-64447200D01*
X139282860Y-64447200D01*
X139320683Y-64450925D01*
X139320683Y-64450925D01*
G37*
G36*
X148534033Y-62786086D02*
X148573881Y-62798174D01*
X148610601Y-62817801D01*
X148642786Y-62844214D01*
X148669199Y-62876399D01*
X148688826Y-62913119D01*
X148700914Y-62952967D01*
X148705600Y-63000541D01*
X148705600Y-63664259D01*
X148700914Y-63711833D01*
X148688826Y-63751681D01*
X148669199Y-63788401D01*
X148642786Y-63820586D01*
X148610601Y-63846999D01*
X148573881Y-63866626D01*
X148534033Y-63878714D01*
X148486459Y-63883400D01*
X147372741Y-63883400D01*
X147325167Y-63878714D01*
X147285319Y-63866626D01*
X147248599Y-63846999D01*
X147216414Y-63820586D01*
X147190001Y-63788401D01*
X147170374Y-63751681D01*
X147158286Y-63711833D01*
X147153600Y-63664259D01*
X147153600Y-63000541D01*
X147158286Y-62952967D01*
X147170374Y-62913119D01*
X147190001Y-62876399D01*
X147216414Y-62844214D01*
X147248599Y-62817801D01*
X147285319Y-62798174D01*
X147325167Y-62786086D01*
X147372741Y-62781400D01*
X148486459Y-62781400D01*
X148534033Y-62786086D01*
X148534033Y-62786086D01*
G37*
G36*
X150145760Y-62825805D02*
X150180911Y-62836469D01*
X150213309Y-62853786D01*
X150241708Y-62877092D01*
X150265014Y-62905491D01*
X150282331Y-62937889D01*
X150292995Y-62973040D01*
X150297200Y-63015740D01*
X150297200Y-63679460D01*
X150292995Y-63722160D01*
X150282331Y-63757311D01*
X150265014Y-63789709D01*
X150241708Y-63818108D01*
X150213309Y-63841414D01*
X150180911Y-63858731D01*
X150145760Y-63869395D01*
X150103060Y-63873600D01*
X149489340Y-63873600D01*
X149446640Y-63869395D01*
X149411489Y-63858731D01*
X149379091Y-63841414D01*
X149350692Y-63818108D01*
X149327386Y-63789709D01*
X149310069Y-63757311D01*
X149299405Y-63722160D01*
X149295200Y-63679460D01*
X149295200Y-63015740D01*
X149299405Y-62973040D01*
X149310069Y-62937889D01*
X149327386Y-62905491D01*
X149350692Y-62877092D01*
X149379091Y-62853786D01*
X149411489Y-62836469D01*
X149446640Y-62825805D01*
X149489340Y-62821600D01*
X150103060Y-62821600D01*
X150145760Y-62825805D01*
X150145760Y-62825805D01*
G37*
G36*
X151695760Y-62825805D02*
X151730911Y-62836469D01*
X151763309Y-62853786D01*
X151791708Y-62877092D01*
X151815014Y-62905491D01*
X151832331Y-62937889D01*
X151842995Y-62973040D01*
X151847200Y-63015740D01*
X151847200Y-63679460D01*
X151842995Y-63722160D01*
X151832331Y-63757311D01*
X151815014Y-63789709D01*
X151791708Y-63818108D01*
X151763309Y-63841414D01*
X151730911Y-63858731D01*
X151695760Y-63869395D01*
X151653060Y-63873600D01*
X151039340Y-63873600D01*
X150996640Y-63869395D01*
X150961489Y-63858731D01*
X150929091Y-63841414D01*
X150900692Y-63818108D01*
X150877386Y-63789709D01*
X150860069Y-63757311D01*
X150849405Y-63722160D01*
X150845200Y-63679460D01*
X150845200Y-63015740D01*
X150849405Y-62973040D01*
X150860069Y-62937889D01*
X150877386Y-62905491D01*
X150900692Y-62877092D01*
X150929091Y-62853786D01*
X150961489Y-62836469D01*
X150996640Y-62825805D01*
X151039340Y-62821600D01*
X151653060Y-62821600D01*
X151695760Y-62825805D01*
X151695760Y-62825805D01*
G37*
G36*
X146546283Y-62963325D02*
X146576744Y-62972566D01*
X146604823Y-62987575D01*
X146629431Y-63007769D01*
X146649625Y-63032377D01*
X146664634Y-63060456D01*
X146673875Y-63090917D01*
X146677600Y-63128740D01*
X146677600Y-63692460D01*
X146673875Y-63730283D01*
X146664634Y-63760744D01*
X146649625Y-63788823D01*
X146629431Y-63813431D01*
X146604823Y-63833625D01*
X146576744Y-63848634D01*
X146546283Y-63857875D01*
X146508460Y-63861600D01*
X145794740Y-63861600D01*
X145756917Y-63857875D01*
X145726456Y-63848634D01*
X145698377Y-63833625D01*
X145673769Y-63813431D01*
X145653575Y-63788823D01*
X145638566Y-63760744D01*
X145629325Y-63730283D01*
X145625600Y-63692460D01*
X145625600Y-63128740D01*
X145629325Y-63090917D01*
X145638566Y-63060456D01*
X145653575Y-63032377D01*
X145673769Y-63007769D01*
X145698377Y-62987575D01*
X145726456Y-62972566D01*
X145756917Y-62963325D01*
X145794740Y-62959600D01*
X146508460Y-62959600D01*
X146546283Y-62963325D01*
X146546283Y-62963325D01*
G37*
G36*
X158890633Y-61560286D02*
X158930481Y-61572374D01*
X158967201Y-61592001D01*
X158999386Y-61618414D01*
X159025799Y-61650599D01*
X159045426Y-61687319D01*
X159057514Y-61727167D01*
X159062200Y-61774741D01*
X159062200Y-62888459D01*
X159057514Y-62936033D01*
X159045426Y-62975881D01*
X159025799Y-63012601D01*
X158999386Y-63044786D01*
X158967201Y-63071199D01*
X158930481Y-63090826D01*
X158890633Y-63102914D01*
X158843059Y-63107600D01*
X158179341Y-63107600D01*
X158131767Y-63102914D01*
X158091919Y-63090826D01*
X158055199Y-63071199D01*
X158023014Y-63044786D01*
X157996601Y-63012601D01*
X157976974Y-62975881D01*
X157964886Y-62936033D01*
X157960200Y-62888459D01*
X157960200Y-61774741D01*
X157964886Y-61727167D01*
X157976974Y-61687319D01*
X157996601Y-61650599D01*
X158023014Y-61618414D01*
X158055199Y-61592001D01*
X158091919Y-61572374D01*
X158131767Y-61560286D01*
X158179341Y-61555600D01*
X158843059Y-61555600D01*
X158890633Y-61560286D01*
X158890633Y-61560286D01*
G37*
G36*
X160790633Y-61560286D02*
X160830481Y-61572374D01*
X160867201Y-61592001D01*
X160899386Y-61618414D01*
X160925799Y-61650599D01*
X160945426Y-61687319D01*
X160957514Y-61727167D01*
X160962200Y-61774741D01*
X160962200Y-62888459D01*
X160957514Y-62936033D01*
X160945426Y-62975881D01*
X160925799Y-63012601D01*
X160899386Y-63044786D01*
X160867201Y-63071199D01*
X160830481Y-63090826D01*
X160790633Y-63102914D01*
X160743059Y-63107600D01*
X160079341Y-63107600D01*
X160031767Y-63102914D01*
X159991919Y-63090826D01*
X159955199Y-63071199D01*
X159923014Y-63044786D01*
X159896601Y-63012601D01*
X159876974Y-62975881D01*
X159864886Y-62936033D01*
X159860200Y-62888459D01*
X159860200Y-61774741D01*
X159864886Y-61727167D01*
X159876974Y-61687319D01*
X159896601Y-61650599D01*
X159923014Y-61618414D01*
X159955199Y-61592001D01*
X159991919Y-61572374D01*
X160031767Y-61560286D01*
X160079341Y-61555600D01*
X160743059Y-61555600D01*
X160790633Y-61560286D01*
X160790633Y-61560286D01*
G37*
G36*
X185292239Y-56120467D02*
X185606282Y-56182934D01*
X186197926Y-56428001D01*
X186652582Y-56731793D01*
X186730395Y-56783786D01*
X187183214Y-57236605D01*
X187183216Y-57236608D01*
X187538999Y-57769074D01*
X187784066Y-58360718D01*
X187784066Y-58360719D01*
X187909000Y-58988803D01*
X187909000Y-59629197D01*
X187846533Y-59943239D01*
X187784066Y-60257282D01*
X187538999Y-60848926D01*
X187333217Y-61156900D01*
X187183214Y-61381395D01*
X186730395Y-61834214D01*
X186730392Y-61834216D01*
X186197926Y-62189999D01*
X185606282Y-62435066D01*
X185292239Y-62497533D01*
X184978197Y-62560000D01*
X184337803Y-62560000D01*
X184023761Y-62497533D01*
X183709718Y-62435066D01*
X183118074Y-62189999D01*
X182585608Y-61834216D01*
X182585605Y-61834214D01*
X182132786Y-61381395D01*
X181982783Y-61156900D01*
X181777001Y-60848926D01*
X181531934Y-60257282D01*
X181469467Y-59943239D01*
X181407000Y-59629197D01*
X181407000Y-58988803D01*
X181531934Y-58360719D01*
X181531934Y-58360718D01*
X181777001Y-57769074D01*
X182132784Y-57236608D01*
X182132786Y-57236605D01*
X182585605Y-56783786D01*
X182663418Y-56731793D01*
X183118074Y-56428001D01*
X183709718Y-56182934D01*
X184023761Y-56120467D01*
X184337803Y-56058000D01*
X184978197Y-56058000D01*
X185292239Y-56120467D01*
X185292239Y-56120467D01*
G37*
G36*
X98170239Y-56120467D02*
X98484282Y-56182934D01*
X99075926Y-56428001D01*
X99530582Y-56731793D01*
X99608395Y-56783786D01*
X100061214Y-57236605D01*
X100061216Y-57236608D01*
X100416999Y-57769074D01*
X100662066Y-58360718D01*
X100662066Y-58360719D01*
X100787000Y-58988803D01*
X100787000Y-59629197D01*
X100724533Y-59943239D01*
X100662066Y-60257282D01*
X100416999Y-60848926D01*
X100211217Y-61156900D01*
X100061214Y-61381395D01*
X99608395Y-61834214D01*
X99608392Y-61834216D01*
X99075926Y-62189999D01*
X98484282Y-62435066D01*
X98170239Y-62497533D01*
X97856197Y-62560000D01*
X97215803Y-62560000D01*
X96901761Y-62497533D01*
X96587718Y-62435066D01*
X95996074Y-62189999D01*
X95463608Y-61834216D01*
X95463605Y-61834214D01*
X95010786Y-61381395D01*
X94860783Y-61156900D01*
X94655001Y-60848926D01*
X94409934Y-60257282D01*
X94347467Y-59943239D01*
X94285000Y-59629197D01*
X94285000Y-58988803D01*
X94409934Y-58360719D01*
X94409934Y-58360718D01*
X94655001Y-57769074D01*
X95010784Y-57236608D01*
X95010786Y-57236605D01*
X95463605Y-56783786D01*
X95541418Y-56731793D01*
X95996074Y-56428001D01*
X96587718Y-56182934D01*
X96901761Y-56120467D01*
X97215803Y-56058000D01*
X97856197Y-56058000D01*
X98170239Y-56120467D01*
X98170239Y-56120467D01*
G37*
G36*
X146546283Y-61313325D02*
X146576744Y-61322566D01*
X146604823Y-61337575D01*
X146629431Y-61357769D01*
X146649625Y-61382377D01*
X146664634Y-61410456D01*
X146673875Y-61440917D01*
X146677600Y-61478740D01*
X146677600Y-62042460D01*
X146673875Y-62080283D01*
X146664634Y-62110744D01*
X146649625Y-62138823D01*
X146629431Y-62163431D01*
X146604823Y-62183625D01*
X146576744Y-62198634D01*
X146546283Y-62207875D01*
X146508460Y-62211600D01*
X145794740Y-62211600D01*
X145756917Y-62207875D01*
X145726456Y-62198634D01*
X145698377Y-62183625D01*
X145673769Y-62163431D01*
X145653575Y-62138823D01*
X145638566Y-62110744D01*
X145629325Y-62080283D01*
X145625600Y-62042460D01*
X145625600Y-61478740D01*
X145629325Y-61440917D01*
X145638566Y-61410456D01*
X145653575Y-61382377D01*
X145673769Y-61357769D01*
X145698377Y-61337575D01*
X145726456Y-61322566D01*
X145756917Y-61313325D01*
X145794740Y-61309600D01*
X146508460Y-61309600D01*
X146546283Y-61313325D01*
X146546283Y-61313325D01*
G37*
G36*
X148534033Y-60886086D02*
X148573881Y-60898174D01*
X148610601Y-60917801D01*
X148642786Y-60944214D01*
X148669199Y-60976399D01*
X148688826Y-61013119D01*
X148700914Y-61052967D01*
X148705600Y-61100541D01*
X148705600Y-61764259D01*
X148700914Y-61811833D01*
X148688826Y-61851681D01*
X148669199Y-61888401D01*
X148642786Y-61920586D01*
X148610601Y-61946999D01*
X148573881Y-61966626D01*
X148534033Y-61978714D01*
X148486459Y-61983400D01*
X147372741Y-61983400D01*
X147325167Y-61978714D01*
X147285319Y-61966626D01*
X147248599Y-61946999D01*
X147216414Y-61920586D01*
X147190001Y-61888401D01*
X147170374Y-61851681D01*
X147158286Y-61811833D01*
X147153600Y-61764259D01*
X147153600Y-61100541D01*
X147158286Y-61052967D01*
X147170374Y-61013119D01*
X147190001Y-60976399D01*
X147216414Y-60944214D01*
X147248599Y-60917801D01*
X147285319Y-60898174D01*
X147325167Y-60886086D01*
X147372741Y-60881400D01*
X148486459Y-60881400D01*
X148534033Y-60886086D01*
X148534033Y-60886086D01*
G37*
G36*
X152020413Y-58267525D02*
X152095456Y-58290290D01*
X152105425Y-58293314D01*
X152183774Y-58335193D01*
X152252448Y-58391552D01*
X152308807Y-58460226D01*
X152350686Y-58538575D01*
X152350687Y-58538579D01*
X152376475Y-58623587D01*
X152385182Y-58712000D01*
X152376475Y-58800413D01*
X152359455Y-58856518D01*
X152350686Y-58885425D01*
X152308807Y-58963774D01*
X152252448Y-59032448D01*
X152183774Y-59088807D01*
X152105425Y-59130686D01*
X152095456Y-59133710D01*
X152020413Y-59156475D01*
X151954158Y-59163000D01*
X151909842Y-59163000D01*
X151843587Y-59156475D01*
X151768544Y-59133710D01*
X151758575Y-59130686D01*
X151705265Y-59102191D01*
X151680225Y-59088807D01*
X151641687Y-59057179D01*
X151620571Y-59039850D01*
X151600202Y-59026239D01*
X151577563Y-59016862D01*
X151553529Y-59012081D01*
X151529025Y-59012081D01*
X151504992Y-59016861D01*
X151482352Y-59026238D01*
X151461978Y-59039852D01*
X151444650Y-59057179D01*
X151431036Y-59077553D01*
X151421659Y-59100192D01*
X151416878Y-59124226D01*
X151416878Y-59148730D01*
X151421658Y-59172763D01*
X151425157Y-59181212D01*
X151427398Y-59188599D01*
X151427399Y-59188601D01*
X151465727Y-59314953D01*
X151471772Y-59334881D01*
X151483000Y-59448882D01*
X151483000Y-60075118D01*
X151471772Y-60189119D01*
X151427398Y-60335401D01*
X151355341Y-60470210D01*
X151258369Y-60588369D01*
X151140209Y-60685341D01*
X151140207Y-60685342D01*
X151005398Y-60757399D01*
X150889924Y-60792427D01*
X150859118Y-60801772D01*
X150707000Y-60816754D01*
X150554881Y-60801772D01*
X150524075Y-60792427D01*
X150408601Y-60757399D01*
X150273792Y-60685342D01*
X150273790Y-60685341D01*
X150155631Y-60588369D01*
X150058659Y-60470209D01*
X149986602Y-60335400D01*
X149942228Y-60189118D01*
X149931000Y-60075117D01*
X149931000Y-59448882D01*
X149942228Y-59334881D01*
X149986602Y-59188599D01*
X150058660Y-59053790D01*
X150155632Y-58935631D01*
X150273791Y-58838659D01*
X150408600Y-58766602D01*
X150408602Y-58766601D01*
X150554879Y-58722229D01*
X150554882Y-58722228D01*
X150707000Y-58707246D01*
X150859119Y-58722228D01*
X150859122Y-58722229D01*
X151005399Y-58766601D01*
X151005401Y-58766602D01*
X151140210Y-58838659D01*
X151221114Y-58905056D01*
X151258367Y-58935629D01*
X151258370Y-58935632D01*
X151288304Y-58972105D01*
X151305631Y-58989432D01*
X151326006Y-59003046D01*
X151348645Y-59012423D01*
X151372678Y-59017203D01*
X151397183Y-59017203D01*
X151421216Y-59012422D01*
X151443855Y-59003044D01*
X151464229Y-58989430D01*
X151481556Y-58972103D01*
X151495170Y-58951728D01*
X151504547Y-58929089D01*
X151509327Y-58905056D01*
X151509327Y-58880551D01*
X151504547Y-58856524D01*
X151498167Y-58835489D01*
X151487525Y-58800411D01*
X151478818Y-58712000D01*
X151487525Y-58623587D01*
X151513313Y-58538579D01*
X151513314Y-58538575D01*
X151555193Y-58460226D01*
X151611552Y-58391552D01*
X151680226Y-58335193D01*
X151758575Y-58293314D01*
X151768544Y-58290290D01*
X151843587Y-58267525D01*
X151909842Y-58261000D01*
X151954158Y-58261000D01*
X152020413Y-58267525D01*
X152020413Y-58267525D01*
G37*
G36*
X157020413Y-58267525D02*
X157095456Y-58290290D01*
X157105425Y-58293314D01*
X157183774Y-58335193D01*
X157252448Y-58391552D01*
X157308807Y-58460226D01*
X157350686Y-58538575D01*
X157350687Y-58538579D01*
X157376475Y-58623587D01*
X157385182Y-58712000D01*
X157376475Y-58800413D01*
X157359454Y-58856521D01*
X157354673Y-58880554D01*
X157354673Y-58905058D01*
X157359453Y-58929092D01*
X157368830Y-58951731D01*
X157382444Y-58972106D01*
X157399771Y-58989433D01*
X157420146Y-59003047D01*
X157442785Y-59012424D01*
X157466818Y-59017205D01*
X157491322Y-59017205D01*
X157515356Y-59012425D01*
X157537995Y-59003048D01*
X157558370Y-58989434D01*
X157575698Y-58972106D01*
X157605632Y-58935631D01*
X157605634Y-58935629D01*
X157723791Y-58838659D01*
X157858600Y-58766602D01*
X157858602Y-58766601D01*
X158004879Y-58722229D01*
X158004882Y-58722228D01*
X158157000Y-58707246D01*
X158309119Y-58722228D01*
X158309122Y-58722229D01*
X158455399Y-58766601D01*
X158455401Y-58766602D01*
X158590210Y-58838659D01*
X158708369Y-58935631D01*
X158805341Y-59053790D01*
X158877398Y-59188599D01*
X158921772Y-59334881D01*
X158933000Y-59448882D01*
X158933000Y-60075118D01*
X158921772Y-60189119D01*
X158877398Y-60335401D01*
X158805341Y-60470210D01*
X158708369Y-60588369D01*
X158590209Y-60685341D01*
X158590207Y-60685342D01*
X158455398Y-60757399D01*
X158339924Y-60792427D01*
X158309118Y-60801772D01*
X158157000Y-60816754D01*
X158004881Y-60801772D01*
X157974075Y-60792427D01*
X157858601Y-60757399D01*
X157723792Y-60685342D01*
X157723790Y-60685341D01*
X157605631Y-60588369D01*
X157508659Y-60470209D01*
X157436602Y-60335400D01*
X157392228Y-60189118D01*
X157381000Y-60075117D01*
X157381000Y-59448882D01*
X157392228Y-59334881D01*
X157438844Y-59181208D01*
X157442345Y-59172754D01*
X157447123Y-59148721D01*
X157447121Y-59124216D01*
X157442338Y-59100183D01*
X157432959Y-59077545D01*
X157419344Y-59057172D01*
X157402015Y-59039846D01*
X157381639Y-59026234D01*
X157358999Y-59016858D01*
X157334966Y-59012080D01*
X157310461Y-59012082D01*
X157286428Y-59016865D01*
X157263790Y-59026244D01*
X157243429Y-59039850D01*
X157222313Y-59057179D01*
X157183775Y-59088807D01*
X157158735Y-59102191D01*
X157105425Y-59130686D01*
X157095456Y-59133710D01*
X157020413Y-59156475D01*
X156954158Y-59163000D01*
X156909842Y-59163000D01*
X156843587Y-59156475D01*
X156768544Y-59133710D01*
X156758575Y-59130686D01*
X156680226Y-59088807D01*
X156611552Y-59032448D01*
X156555193Y-58963774D01*
X156513314Y-58885425D01*
X156504545Y-58856518D01*
X156487525Y-58800413D01*
X156478818Y-58712000D01*
X156487525Y-58623587D01*
X156513313Y-58538579D01*
X156513314Y-58538575D01*
X156555193Y-58460226D01*
X156611552Y-58391552D01*
X156680226Y-58335193D01*
X156758575Y-58293314D01*
X156768544Y-58290290D01*
X156843587Y-58267525D01*
X156909842Y-58261000D01*
X156954158Y-58261000D01*
X157020413Y-58267525D01*
X157020413Y-58267525D01*
G37*
G36*
X156008000Y-60513000D02*
X152856000Y-60513000D01*
X152856000Y-59111000D01*
X156008000Y-59111000D01*
X156008000Y-60513000D01*
X156008000Y-60513000D01*
G37*
G36*
X163729327Y-54947936D02*
X163829210Y-54967804D01*
X164111474Y-55084721D01*
X164365505Y-55254459D01*
X164581541Y-55470495D01*
X164751279Y-55724526D01*
X164868196Y-56006790D01*
X164868196Y-56006791D01*
X164927800Y-56306438D01*
X164927800Y-56611962D01*
X164893622Y-56783784D01*
X164868196Y-56911610D01*
X164751279Y-57193874D01*
X164581541Y-57447905D01*
X164365505Y-57663941D01*
X164111474Y-57833679D01*
X163829210Y-57950596D01*
X163770581Y-57962258D01*
X163529562Y-58010200D01*
X163224038Y-58010200D01*
X162983019Y-57962258D01*
X162924390Y-57950596D01*
X162642126Y-57833679D01*
X162388095Y-57663941D01*
X162172059Y-57447905D01*
X162002321Y-57193874D01*
X161885404Y-56911610D01*
X161859978Y-56783784D01*
X161825800Y-56611962D01*
X161825800Y-56306438D01*
X161885404Y-56006791D01*
X161885404Y-56006790D01*
X162002321Y-55724526D01*
X162172059Y-55470495D01*
X162388095Y-55254459D01*
X162642126Y-55084721D01*
X162924390Y-54967804D01*
X163024273Y-54947936D01*
X163224038Y-54908200D01*
X163529562Y-54908200D01*
X163729327Y-54947936D01*
X163729327Y-54947936D01*
G37*
G36*
X176929327Y-54947936D02*
X177029210Y-54967804D01*
X177311474Y-55084721D01*
X177565505Y-55254459D01*
X177781541Y-55470495D01*
X177951279Y-55724526D01*
X178068196Y-56006790D01*
X178068196Y-56006791D01*
X178127800Y-56306438D01*
X178127800Y-56611962D01*
X178093622Y-56783784D01*
X178068196Y-56911610D01*
X177951279Y-57193874D01*
X177781541Y-57447905D01*
X177565505Y-57663941D01*
X177311474Y-57833679D01*
X177029210Y-57950596D01*
X176970581Y-57962258D01*
X176729562Y-58010200D01*
X176424038Y-58010200D01*
X176183019Y-57962258D01*
X176124390Y-57950596D01*
X175842126Y-57833679D01*
X175588095Y-57663941D01*
X175372059Y-57447905D01*
X175202321Y-57193874D01*
X175085404Y-56911610D01*
X175059978Y-56783784D01*
X175025800Y-56611962D01*
X175025800Y-56306438D01*
X175085404Y-56006791D01*
X175085404Y-56006790D01*
X175202321Y-55724526D01*
X175372059Y-55470495D01*
X175588095Y-55254459D01*
X175842126Y-55084721D01*
X176124390Y-54967804D01*
X176224273Y-54947936D01*
X176424038Y-54908200D01*
X176729562Y-54908200D01*
X176929327Y-54947936D01*
X176929327Y-54947936D01*
G37*
G36*
X148768066Y-56486765D02*
X148806737Y-56498496D01*
X148842379Y-56517548D01*
X148873617Y-56543183D01*
X148899252Y-56574421D01*
X148918304Y-56610063D01*
X148930035Y-56648734D01*
X148934600Y-56695088D01*
X148934600Y-57346312D01*
X148930035Y-57392666D01*
X148918304Y-57431337D01*
X148899252Y-57466979D01*
X148873617Y-57498217D01*
X148842379Y-57523852D01*
X148806737Y-57542904D01*
X148768066Y-57554635D01*
X148721712Y-57559200D01*
X147645488Y-57559200D01*
X147599134Y-57554635D01*
X147560463Y-57542904D01*
X147524821Y-57523852D01*
X147493583Y-57498217D01*
X147467948Y-57466979D01*
X147448896Y-57431337D01*
X147437165Y-57392666D01*
X147432600Y-57346312D01*
X147432600Y-56695088D01*
X147437165Y-56648734D01*
X147448896Y-56610063D01*
X147467948Y-56574421D01*
X147493583Y-56543183D01*
X147524821Y-56517548D01*
X147560463Y-56498496D01*
X147599134Y-56486765D01*
X147645488Y-56482200D01*
X148721712Y-56482200D01*
X148768066Y-56486765D01*
X148768066Y-56486765D01*
G37*
G36*
X146800283Y-56359325D02*
X146830744Y-56368566D01*
X146858823Y-56383575D01*
X146883431Y-56403769D01*
X146903625Y-56428377D01*
X146918634Y-56456456D01*
X146927875Y-56486917D01*
X146931600Y-56524740D01*
X146931600Y-57088460D01*
X146927875Y-57126283D01*
X146918634Y-57156744D01*
X146903625Y-57184823D01*
X146883431Y-57209431D01*
X146858823Y-57229625D01*
X146830744Y-57244634D01*
X146800283Y-57253875D01*
X146762460Y-57257600D01*
X146048740Y-57257600D01*
X146010917Y-57253875D01*
X145980456Y-57244634D01*
X145952377Y-57229625D01*
X145927769Y-57209431D01*
X145907575Y-57184823D01*
X145892566Y-57156744D01*
X145883325Y-57126283D01*
X145879600Y-57088460D01*
X145879600Y-56524740D01*
X145883325Y-56486917D01*
X145892566Y-56456456D01*
X145907575Y-56428377D01*
X145927769Y-56403769D01*
X145952377Y-56383575D01*
X145980456Y-56368566D01*
X146010917Y-56359325D01*
X146048740Y-56355600D01*
X146762460Y-56355600D01*
X146800283Y-56359325D01*
X146800283Y-56359325D01*
G37*
G36*
X150679714Y-55020058D02*
X150679717Y-55020059D01*
X150797719Y-55055854D01*
X150797721Y-55055855D01*
X150906471Y-55113983D01*
X151001790Y-55192210D01*
X151080017Y-55287529D01*
X151080018Y-55287531D01*
X151138146Y-55396281D01*
X151159743Y-55467478D01*
X151173942Y-55514286D01*
X151183000Y-55606253D01*
X151183000Y-56317747D01*
X151173942Y-56409714D01*
X151173941Y-56409716D01*
X151173941Y-56409717D01*
X151139050Y-56524740D01*
X151138145Y-56527721D01*
X151080017Y-56636471D01*
X151001793Y-56731787D01*
X151001791Y-56731788D01*
X151001790Y-56731790D01*
X150906468Y-56810018D01*
X150797718Y-56868146D01*
X150701682Y-56897278D01*
X150679713Y-56903942D01*
X150557000Y-56916028D01*
X150434286Y-56903942D01*
X150412317Y-56897278D01*
X150316281Y-56868146D01*
X150207531Y-56810018D01*
X150207529Y-56810017D01*
X150112213Y-56731793D01*
X150112212Y-56731791D01*
X150112210Y-56731790D01*
X150033982Y-56636468D01*
X149975854Y-56527718D01*
X149940059Y-56409716D01*
X149940058Y-56409713D01*
X149931000Y-56317746D01*
X149931000Y-55606253D01*
X149940058Y-55514286D01*
X149975854Y-55396281D01*
X149983434Y-55382100D01*
X150033983Y-55287531D01*
X150061125Y-55254459D01*
X150112211Y-55192210D01*
X150207530Y-55113983D01*
X150316280Y-55055855D01*
X150316282Y-55055854D01*
X150434284Y-55020059D01*
X150434287Y-55020058D01*
X150557000Y-55007972D01*
X150679714Y-55020058D01*
X150679714Y-55020058D01*
G37*
G36*
X158429714Y-55020058D02*
X158429717Y-55020059D01*
X158547719Y-55055854D01*
X158547721Y-55055855D01*
X158656471Y-55113983D01*
X158751790Y-55192210D01*
X158830017Y-55287529D01*
X158830018Y-55287531D01*
X158888146Y-55396281D01*
X158909743Y-55467478D01*
X158923942Y-55514286D01*
X158933000Y-55606253D01*
X158933000Y-56317747D01*
X158923942Y-56409714D01*
X158923941Y-56409716D01*
X158923941Y-56409717D01*
X158889050Y-56524740D01*
X158888145Y-56527721D01*
X158830017Y-56636471D01*
X158751793Y-56731787D01*
X158751791Y-56731788D01*
X158751790Y-56731790D01*
X158656468Y-56810018D01*
X158547718Y-56868146D01*
X158451682Y-56897278D01*
X158429713Y-56903942D01*
X158307000Y-56916028D01*
X158184286Y-56903942D01*
X158162317Y-56897278D01*
X158066281Y-56868146D01*
X157957531Y-56810018D01*
X157957529Y-56810017D01*
X157862213Y-56731793D01*
X157862212Y-56731791D01*
X157862210Y-56731790D01*
X157783982Y-56636468D01*
X157725854Y-56527718D01*
X157690059Y-56409716D01*
X157690058Y-56409713D01*
X157681000Y-56317746D01*
X157681000Y-55606253D01*
X157690058Y-55514286D01*
X157725854Y-55396281D01*
X157733434Y-55382100D01*
X157783983Y-55287531D01*
X157811125Y-55254459D01*
X157862211Y-55192210D01*
X157957530Y-55113983D01*
X158066280Y-55055855D01*
X158066282Y-55055854D01*
X158184284Y-55020059D01*
X158184287Y-55020058D01*
X158307000Y-55007972D01*
X158429714Y-55020058D01*
X158429714Y-55020058D01*
G37*
G36*
X148768066Y-54611765D02*
X148806737Y-54623496D01*
X148842379Y-54642548D01*
X148873617Y-54668183D01*
X148899252Y-54699421D01*
X148918304Y-54735063D01*
X148930035Y-54773734D01*
X148934600Y-54820088D01*
X148934600Y-55471312D01*
X148930035Y-55517666D01*
X148918304Y-55556337D01*
X148899252Y-55591979D01*
X148873617Y-55623217D01*
X148842379Y-55648852D01*
X148806737Y-55667904D01*
X148768066Y-55679635D01*
X148721712Y-55684200D01*
X147645488Y-55684200D01*
X147599134Y-55679635D01*
X147560463Y-55667904D01*
X147524821Y-55648852D01*
X147493583Y-55623217D01*
X147467948Y-55591979D01*
X147448896Y-55556337D01*
X147437165Y-55517666D01*
X147432600Y-55471312D01*
X147432600Y-54820088D01*
X147437165Y-54773734D01*
X147448896Y-54735063D01*
X147467948Y-54699421D01*
X147493583Y-54668183D01*
X147524821Y-54642548D01*
X147560463Y-54623496D01*
X147599134Y-54611765D01*
X147645488Y-54607200D01*
X148721712Y-54607200D01*
X148768066Y-54611765D01*
X148768066Y-54611765D01*
G37*
G36*
X146800283Y-54709325D02*
X146830744Y-54718566D01*
X146858823Y-54733575D01*
X146883431Y-54753769D01*
X146903625Y-54778377D01*
X146918634Y-54806456D01*
X146927875Y-54836917D01*
X146931600Y-54874740D01*
X146931600Y-55438460D01*
X146927875Y-55476283D01*
X146918634Y-55506744D01*
X146903625Y-55534823D01*
X146883431Y-55559431D01*
X146858823Y-55579625D01*
X146830744Y-55594634D01*
X146800283Y-55603875D01*
X146762460Y-55607600D01*
X146048740Y-55607600D01*
X146010917Y-55603875D01*
X145980456Y-55594634D01*
X145952377Y-55579625D01*
X145927769Y-55559431D01*
X145907575Y-55534823D01*
X145892566Y-55506744D01*
X145883325Y-55476283D01*
X145879600Y-55438460D01*
X145879600Y-54874740D01*
X145883325Y-54836917D01*
X145892566Y-54806456D01*
X145907575Y-54778377D01*
X145927769Y-54753769D01*
X145952377Y-54733575D01*
X145980456Y-54718566D01*
X146010917Y-54709325D01*
X146048740Y-54705600D01*
X146762460Y-54705600D01*
X146800283Y-54709325D01*
X146800283Y-54709325D01*
G37*
M02*
