M48
;DRILL file {KiCad 5.0.2+dfsg1-1} date Wed 04 Nov 2020 14:27:22 CET
;FORMAT={-:-/ absolute / inch / decimal}
FMAT,2
INCH,TZ
T1C0.0079
T2C0.0118
T3C0.0157
T4C0.0197
T5C0.0217
T6C0.0300
T7C0.0335
T8C0.0394
T9C0.0591
T10C0.0709
T11C0.1260
%
G90
G05
T1
X5.7799Y-3.5544
X5.7799Y-3.6096
X5.8351Y-3.5544
X5.8351Y-3.6096
X5.7607Y-2.5887
X5.7607Y-2.632
X5.7607Y-2.6753
X5.804Y-2.5887
X5.804Y-2.632
X5.804Y-2.6753
X5.8473Y-2.5887
X5.8473Y-2.632
X5.8473Y-2.6753
T2
X5.3983Y-2.6646
X5.3983Y-2.7
X5.3983Y-2.7354
X5.4377Y-2.6646
X5.4377Y-2.7
X5.4377Y-2.7354
T3
X4.3715Y-4.333
X4.565Y-4.46
X5.06Y-4.06
X5.1798Y-4.06
X5.4694Y-2.846
X5.502Y-2.5937
X5.502Y-2.7778
X5.824Y-2.4186
X5.8274Y-3.83
X5.845Y-4.06
X5.886Y-2.632
X5.93Y-2.86
X5.93Y-3.47
X5.958Y-2.594
X5.97Y-3.6751
X5.975Y-2.91
X5.984Y-2.562
X6.0007Y-2.4487
X6.01Y-3.06
X6.0112Y-3.4914
X6.0243Y-2.5143
X6.03Y-3.16
X6.0382Y-3.4628
X6.0424Y-4.0085
X6.06Y-2.96
X6.06Y-3.43
X6.064Y-2.418
X6.0691Y-2.7308
X6.096Y-2.582
X6.098Y-2.704
X6.104Y-2.296
X6.1255Y-3.01
X6.14Y-3.52
X6.1435Y-2.704
X6.1435Y-3.186
X6.1725Y-2.6461
X6.178Y-2.496
X6.187Y-2.4274
X6.2Y-3.31
X6.2125Y-3.73
X6.218Y-3.5485
X6.3224Y-3.15
X6.326Y-3.01
X6.354Y-2.88
X6.3563Y-3.3925
X6.39Y-3.29
X6.552Y-2.812
X6.6Y-3.5924
X6.61Y-3.6685
X6.7129Y-3.0475
X6.7129Y-3.0975
X6.7129Y-3.1475
X6.7129Y-3.1975
X6.772Y-2.888
X6.8Y-2.92
X6.808Y-3.596
X6.828Y-2.888
X6.8825Y-3.1975
X6.94Y-3.25
X6.97Y-2.722
X7.136Y-3.646
X7.22Y-3.095
X7.242Y-3.594
X7.272Y-3.01
X7.3045Y-3.6475
X7.316Y-2.818
X7.316Y-3.198
T4
X3.7455Y-2.335
X3.7732Y-2.2682
X3.7732Y-2.4018
X3.84Y-2.2405
X3.84Y-2.4295
X3.9068Y-2.2682
X3.9068Y-2.4018
X3.9345Y-2.335
X3.7405Y-4.725
X3.7682Y-4.6582
X3.7682Y-4.7918
X3.835Y-4.6305
X3.835Y-4.8195
X3.9018Y-4.6582
X3.9018Y-4.7918
X3.9295Y-4.725
X7.1755Y-4.725
X7.2032Y-4.6582
X7.2032Y-4.7918
X7.27Y-4.6305
X7.27Y-4.8195
X7.3368Y-4.6582
X7.3368Y-4.7918
X7.3645Y-4.725
X7.1755Y-2.335
X7.2032Y-2.2682
X7.2032Y-2.4018
X7.27Y-2.2405
X7.27Y-2.4295
X7.3368Y-2.2682
X7.3368Y-2.4018
X7.3645Y-2.335
T8
X7.088Y-3.442
X5.566Y-3.524
X5.566Y-3.624
X5.8Y-2.86
X5.8Y-2.96
X5.8Y-3.06
X5.8Y-3.16
X5.8Y-3.26
X5.8Y-3.36
X5.618Y-2.884
X5.618Y-2.984
T9
X5.0175Y-4.2975
X5.2675Y-4.1975
X6.5925Y-4.2975
X6.8425Y-4.1975
X5.805Y-4.2975
X6.055Y-4.1975
T10
X6.4322Y-2.2228
X6.507Y-2.598
X6.692Y-2.598
X6.877Y-2.598
X6.9518Y-2.2228
T11
X7.27Y-2.335
X3.84Y-2.335
X3.835Y-4.725
X7.27Y-4.725
T5
X5.9274Y-2.216G85X5.9274Y-2.1904
G05
X6.2326Y-2.216G85X6.2326Y-2.1904
G05
T6
X5.9871Y-3.73G85X6.0752Y-3.73
G05
X6.4398Y-3.73G85X6.5279Y-3.73
G05
T7
X5.9333Y-2.3637G85X5.9333Y-2.342
G05
X6.2267Y-2.3637G85X6.2267Y-2.342
G05
T0
M30
