G04 #@! TF.GenerationSoftware,KiCad,Pcbnew,5.0.2+dfsg1-1*
G04 #@! TF.CreationDate,2020-11-04T14:27:09+01:00*
G04 #@! TF.ProjectId,CoreSchematic,436f7265-5363-4686-956d-617469632e6b,rev?*
G04 #@! TF.SameCoordinates,Original*
G04 #@! TF.FileFunction,Legend,Top*
G04 #@! TF.FilePolarity,Positive*
%FSLAX46Y46*%
G04 Gerber Fmt 4.6, Leading zero omitted, Abs format (unit mm)*
G04 Created by KiCad (PCBNEW 5.0.2+dfsg1-1) date Wed 04 Nov 2020 14:27:09 CET*
%MOMM*%
%LPD*%
G01*
G04 APERTURE LIST*
%ADD10C,0.120000*%
%ADD11C,0.150000*%
%ADD12C,0.100000*%
G04 APERTURE END LIST*
D10*
G04 #@! TO.C,R105*
X162957742Y-74788500D02*
X163432258Y-74788500D01*
X162957742Y-75833500D02*
X163432258Y-75833500D01*
G04 #@! TO.C,D102*
X109837200Y-108908400D02*
X117137200Y-108908400D01*
X109837200Y-114408400D02*
X117137200Y-114408400D01*
X117137200Y-114408400D02*
X117137200Y-113258400D01*
D11*
G04 #@! TO.C,D103*
X129267200Y-101524000D02*
X133267200Y-101524000D01*
X133267200Y-101524000D02*
X133267200Y-102870000D01*
X129267200Y-102870000D02*
X129267200Y-101524000D01*
G04 #@! TO.C,D104*
X149282400Y-102870000D02*
X149282400Y-101524000D01*
X153282400Y-101524000D02*
X153282400Y-102870000D01*
X149282400Y-101524000D02*
X153282400Y-101524000D01*
G04 #@! TO.C,D105*
X169246800Y-101473200D02*
X173246800Y-101473200D01*
X173246800Y-101473200D02*
X173246800Y-102819200D01*
X169246800Y-102819200D02*
X169246800Y-101473200D01*
D10*
G04 #@! TO.C,C203*
X150430620Y-62837600D02*
X150711780Y-62837600D01*
X150430620Y-63857600D02*
X150711780Y-63857600D01*
G04 #@! TO.C,R303*
X144052200Y-67856263D02*
X144052200Y-69303737D01*
X141342200Y-67856263D02*
X141342200Y-69303737D01*
G04 #@! TO.C,AMP101*
X146375500Y-92592800D02*
X145900500Y-92592800D01*
X145900500Y-92592800D02*
X145900500Y-92117800D01*
X148645500Y-89372800D02*
X149120500Y-89372800D01*
X149120500Y-89372800D02*
X149120500Y-89847800D01*
X146375500Y-89372800D02*
X145900500Y-89372800D01*
X145900500Y-89372800D02*
X145900500Y-89847800D01*
X148645500Y-92592800D02*
X149120500Y-92592800D01*
G04 #@! TO.C,SW103*
X164274500Y-104711500D02*
X178244500Y-104711500D01*
X178244500Y-104711500D02*
X178244500Y-118681500D01*
X178244500Y-118681500D02*
X164274500Y-118681500D01*
X164274500Y-118681500D02*
X164274500Y-104711500D01*
G04 #@! TO.C,SW102*
X144272000Y-118681500D02*
X144272000Y-104711500D01*
X158242000Y-118681500D02*
X144272000Y-118681500D01*
X158242000Y-104711500D02*
X158242000Y-118681500D01*
X144272000Y-104711500D02*
X158242000Y-104711500D01*
G04 #@! TO.C,SW101*
X124269500Y-104711500D02*
X138239500Y-104711500D01*
X138239500Y-104711500D02*
X138239500Y-118681500D01*
X138239500Y-118681500D02*
X124269500Y-118681500D01*
X124269500Y-118681500D02*
X124269500Y-104711500D01*
G04 #@! TO.C,C103*
X147327252Y-98017000D02*
X146804748Y-98017000D01*
X147327252Y-96547000D02*
X146804748Y-96547000D01*
G04 #@! TO.C,C201*
X159722452Y-61596600D02*
X159199948Y-61596600D01*
X159722452Y-63066600D02*
X159199948Y-63066600D01*
G04 #@! TO.C,C301*
X148664600Y-62643652D02*
X148664600Y-62121148D01*
X147194600Y-62643652D02*
X147194600Y-62121148D01*
G04 #@! TO.C,C303*
X175811548Y-68403800D02*
X176334052Y-68403800D01*
X175811548Y-69873800D02*
X176334052Y-69873800D01*
G04 #@! TO.C,C302*
X176655400Y-72281148D02*
X176655400Y-72803652D01*
X175185400Y-72281148D02*
X175185400Y-72803652D01*
G04 #@! TO.C,LS101*
X140046400Y-93379600D02*
X142706400Y-93379600D01*
X140046400Y-90779600D02*
X140046400Y-93379600D01*
X142706400Y-90779600D02*
X142706400Y-93379600D01*
X140046400Y-90779600D02*
X142706400Y-90779600D01*
X140046400Y-89509600D02*
X140046400Y-88179600D01*
X140046400Y-88179600D02*
X141376400Y-88179600D01*
G04 #@! TO.C,J101*
X145990000Y-86674000D02*
X148650000Y-86674000D01*
X145990000Y-73914000D02*
X145990000Y-86674000D01*
X148650000Y-73914000D02*
X148650000Y-86674000D01*
X145990000Y-73914000D02*
X148650000Y-73914000D01*
X145990000Y-72644000D02*
X145990000Y-71314000D01*
X145990000Y-71314000D02*
X147320000Y-71314000D01*
G04 #@! TO.C,BT301*
X132607200Y-72043600D02*
X141237200Y-72043600D01*
X132607200Y-72161695D02*
X141237200Y-72161695D01*
X132607200Y-72279790D02*
X141237200Y-72279790D01*
X132607200Y-72397885D02*
X141237200Y-72397885D01*
X132607200Y-72515980D02*
X141237200Y-72515980D01*
X132607200Y-72634075D02*
X141237200Y-72634075D01*
X132607200Y-72752170D02*
X141237200Y-72752170D01*
X132607200Y-72870265D02*
X141237200Y-72870265D01*
X132607200Y-72988360D02*
X141237200Y-72988360D01*
X132607200Y-73106455D02*
X141237200Y-73106455D01*
X132607200Y-73224550D02*
X141237200Y-73224550D01*
X132607200Y-73342645D02*
X141237200Y-73342645D01*
X132607200Y-73460740D02*
X141237200Y-73460740D01*
X132607200Y-73578835D02*
X141237200Y-73578835D01*
X132607200Y-73696930D02*
X141237200Y-73696930D01*
X132607200Y-73815025D02*
X141237200Y-73815025D01*
X132607200Y-73933120D02*
X141237200Y-73933120D01*
X132607200Y-74051215D02*
X141237200Y-74051215D01*
X132607200Y-74169310D02*
X141237200Y-74169310D01*
X132607200Y-74287405D02*
X141237200Y-74287405D01*
X132607200Y-74405500D02*
X141237200Y-74405500D01*
X141237200Y-72893600D02*
X141587200Y-72893600D01*
X141237200Y-73613600D02*
X141587200Y-73613600D01*
X141237200Y-75433600D02*
X141647200Y-75433600D01*
X141237200Y-76153600D02*
X141647200Y-76153600D01*
X132607200Y-74523600D02*
X141237200Y-74523600D01*
X132607200Y-71923600D02*
X141237200Y-71923600D01*
X141237200Y-71923600D02*
X141237200Y-77123600D01*
X132607200Y-77123600D02*
X141237200Y-77123600D01*
X132607200Y-71923600D02*
X132607200Y-77123600D01*
X143807200Y-71923600D02*
X143807200Y-73253600D01*
X142697200Y-71923600D02*
X143807200Y-71923600D01*
D11*
G04 #@! TO.C,J201*
X158582000Y-58562000D02*
X158582000Y-57162000D01*
X158582000Y-54762000D02*
X158582000Y-54612000D01*
X158582000Y-54612000D02*
X158282000Y-54612000D01*
X158282000Y-54612000D02*
X158282000Y-54162000D01*
X150582000Y-54162000D02*
X150582000Y-54612000D01*
X150582000Y-54612000D02*
X150282000Y-54612000D01*
X150282000Y-54612000D02*
X150282000Y-54762000D01*
X150282000Y-57162000D02*
X150282000Y-58562000D01*
X155507000Y-60737000D02*
X156232000Y-60737000D01*
X156232000Y-60737000D02*
X156232000Y-60312000D01*
X156232000Y-60312000D02*
X157232000Y-60312000D01*
X152632000Y-60312000D02*
X151632000Y-60312000D01*
D10*
G04 #@! TO.C,D301*
X180425600Y-69885200D02*
X178425600Y-69885200D01*
X178425600Y-69885200D02*
X178425600Y-73735200D01*
X180425600Y-69885200D02*
X180425600Y-73735200D01*
G04 #@! TO.C,DUSB201*
X147223600Y-55083200D02*
X147223600Y-57768200D01*
X147223600Y-57768200D02*
X149143600Y-57768200D01*
X149143600Y-57768200D02*
X149143600Y-55083200D01*
G04 #@! TO.C,D101*
X155290500Y-68814500D02*
X162590500Y-68814500D01*
X155290500Y-74314500D02*
X162590500Y-74314500D01*
X162590500Y-74314500D02*
X162590500Y-73164500D01*
G04 #@! TO.C,U201*
X153428000Y-67705500D02*
X152703000Y-67705500D01*
X152703000Y-67705500D02*
X152703000Y-66980500D01*
X156198000Y-63485500D02*
X156923000Y-63485500D01*
X156923000Y-63485500D02*
X156923000Y-64210500D01*
X153428000Y-63485500D02*
X152703000Y-63485500D01*
X152703000Y-63485500D02*
X152703000Y-64210500D01*
X156198000Y-67705500D02*
X156923000Y-67705500D01*
G04 #@! TO.C,CH301*
X148831600Y-64742800D02*
X149531600Y-64742800D01*
X149531600Y-64742800D02*
X149531600Y-65442800D01*
X146011600Y-68962800D02*
X145311600Y-68962800D01*
X145311600Y-68962800D02*
X145311600Y-68262800D01*
X148831600Y-68962800D02*
X149531600Y-68962800D01*
X149531600Y-68962800D02*
X149531600Y-68262800D01*
X146011600Y-64742800D02*
X145311600Y-64742800D01*
G04 #@! TO.C,U302*
X139017200Y-66480000D02*
X138867200Y-66480000D01*
X136219807Y-70080701D02*
X136219807Y-70980701D01*
X139017200Y-66480000D02*
X139017200Y-67080000D01*
X136217200Y-67080000D02*
X136217200Y-66480000D01*
X139017200Y-67880000D02*
X139017200Y-69280000D01*
X136217200Y-67880000D02*
X136217200Y-69280000D01*
X139017200Y-70080000D02*
X139017200Y-70680000D01*
X139017200Y-70680000D02*
X138867200Y-70680000D01*
X136217200Y-66480000D02*
X136367200Y-66480000D01*
G04 #@! TO.C,R204*
X146928100Y-56218858D02*
X146928100Y-55744342D01*
X145883100Y-56218858D02*
X145883100Y-55744342D01*
G04 #@! TO.C,R301*
X145629100Y-62822858D02*
X145629100Y-62348342D01*
X146674100Y-62822858D02*
X146674100Y-62348342D01*
G04 #@! TO.C,R302*
X142934458Y-64653900D02*
X142459942Y-64653900D01*
X142934458Y-65698900D02*
X142459942Y-65698900D01*
G04 #@! TO.C,R304*
X137938742Y-64450700D02*
X138413258Y-64450700D01*
X137938742Y-65495700D02*
X138413258Y-65495700D01*
D11*
G04 #@! TO.C,DIAL101*
X150340500Y-84742000D02*
G75*
G02X167540500Y-84742000I8600000J0D01*
G01*
X167540500Y-84742000D02*
X167540500Y-95842000D01*
X167540500Y-95842000D02*
X150340500Y-95842000D01*
X150340500Y-95842000D02*
X150340500Y-84742000D01*
D12*
G04 #@! TO.C,MOD101*
X169976500Y-99831500D02*
X169976500Y-101451500D01*
X169976500Y-101451500D02*
X171616500Y-101451500D01*
X188046500Y-99821500D02*
X188046500Y-101451500D01*
X188046500Y-101451500D02*
X186416500Y-101451500D01*
X169926500Y-76851500D02*
X169926500Y-75811500D01*
X169926500Y-75811500D02*
X172626500Y-75811500D01*
X188076500Y-76881500D02*
X188076500Y-75831500D01*
X188076500Y-75831500D02*
X185426500Y-75831500D01*
G04 #@! TO.C,U301*
X170545400Y-74699800D02*
X171020400Y-74699800D01*
X171020400Y-74699800D02*
X171345400Y-74399800D01*
X171345400Y-74399800D02*
X171540400Y-74399800D01*
X170870400Y-68149800D02*
X171345400Y-68149800D01*
X171345400Y-68149800D02*
X171345400Y-68599800D01*
X167795400Y-74199800D02*
X167795400Y-74699800D01*
X167795400Y-74699800D02*
X168195400Y-74699800D01*
X167795400Y-68524800D02*
X167795400Y-68149800D01*
X167795400Y-68149800D02*
X168095400Y-68149800D01*
G04 #@! TO.C,H102*
D11*
X95694714Y-116267380D02*
X95694714Y-115267380D01*
X95694714Y-115743571D02*
X96266142Y-115743571D01*
X96266142Y-116267380D02*
X96266142Y-115267380D01*
X97266142Y-116267380D02*
X96694714Y-116267380D01*
X96980428Y-116267380D02*
X96980428Y-115267380D01*
X96885190Y-115410238D01*
X96789952Y-115505476D01*
X96694714Y-115553095D01*
X97885190Y-115267380D02*
X97980428Y-115267380D01*
X98075666Y-115315000D01*
X98123285Y-115362619D01*
X98170904Y-115457857D01*
X98218523Y-115648333D01*
X98218523Y-115886428D01*
X98170904Y-116076904D01*
X98123285Y-116172142D01*
X98075666Y-116219761D01*
X97980428Y-116267380D01*
X97885190Y-116267380D01*
X97789952Y-116219761D01*
X97742333Y-116172142D01*
X97694714Y-116076904D01*
X97647095Y-115886428D01*
X97647095Y-115648333D01*
X97694714Y-115457857D01*
X97742333Y-115362619D01*
X97789952Y-115315000D01*
X97885190Y-115267380D01*
X98599476Y-115362619D02*
X98647095Y-115315000D01*
X98742333Y-115267380D01*
X98980428Y-115267380D01*
X99075666Y-115315000D01*
X99123285Y-115362619D01*
X99170904Y-115457857D01*
X99170904Y-115553095D01*
X99123285Y-115695952D01*
X98551857Y-116267380D01*
X99170904Y-116267380D01*
G04 #@! TO.C,H103*
X182943714Y-55561380D02*
X182943714Y-54561380D01*
X182943714Y-55037571D02*
X183515142Y-55037571D01*
X183515142Y-55561380D02*
X183515142Y-54561380D01*
X184515142Y-55561380D02*
X183943714Y-55561380D01*
X184229428Y-55561380D02*
X184229428Y-54561380D01*
X184134190Y-54704238D01*
X184038952Y-54799476D01*
X183943714Y-54847095D01*
X185134190Y-54561380D02*
X185229428Y-54561380D01*
X185324666Y-54609000D01*
X185372285Y-54656619D01*
X185419904Y-54751857D01*
X185467523Y-54942333D01*
X185467523Y-55180428D01*
X185419904Y-55370904D01*
X185372285Y-55466142D01*
X185324666Y-55513761D01*
X185229428Y-55561380D01*
X185134190Y-55561380D01*
X185038952Y-55513761D01*
X184991333Y-55466142D01*
X184943714Y-55370904D01*
X184896095Y-55180428D01*
X184896095Y-54942333D01*
X184943714Y-54751857D01*
X184991333Y-54656619D01*
X185038952Y-54609000D01*
X185134190Y-54561380D01*
X185800857Y-54561380D02*
X186419904Y-54561380D01*
X186086571Y-54942333D01*
X186229428Y-54942333D01*
X186324666Y-54989952D01*
X186372285Y-55037571D01*
X186419904Y-55132809D01*
X186419904Y-55370904D01*
X186372285Y-55466142D01*
X186324666Y-55513761D01*
X186229428Y-55561380D01*
X185943714Y-55561380D01*
X185848476Y-55513761D01*
X185800857Y-55466142D01*
G04 #@! TO.C,H101*
X182943714Y-116267380D02*
X182943714Y-115267380D01*
X182943714Y-115743571D02*
X183515142Y-115743571D01*
X183515142Y-116267380D02*
X183515142Y-115267380D01*
X184515142Y-116267380D02*
X183943714Y-116267380D01*
X184229428Y-116267380D02*
X184229428Y-115267380D01*
X184134190Y-115410238D01*
X184038952Y-115505476D01*
X183943714Y-115553095D01*
X185134190Y-115267380D02*
X185229428Y-115267380D01*
X185324666Y-115315000D01*
X185372285Y-115362619D01*
X185419904Y-115457857D01*
X185467523Y-115648333D01*
X185467523Y-115886428D01*
X185419904Y-116076904D01*
X185372285Y-116172142D01*
X185324666Y-116219761D01*
X185229428Y-116267380D01*
X185134190Y-116267380D01*
X185038952Y-116219761D01*
X184991333Y-116172142D01*
X184943714Y-116076904D01*
X184896095Y-115886428D01*
X184896095Y-115648333D01*
X184943714Y-115457857D01*
X184991333Y-115362619D01*
X185038952Y-115315000D01*
X185134190Y-115267380D01*
X186419904Y-116267380D02*
X185848476Y-116267380D01*
X186134190Y-116267380D02*
X186134190Y-115267380D01*
X186038952Y-115410238D01*
X185943714Y-115505476D01*
X185848476Y-115553095D01*
G04 #@! TO.C,H104*
X95821714Y-55561380D02*
X95821714Y-54561380D01*
X95821714Y-55037571D02*
X96393142Y-55037571D01*
X96393142Y-55561380D02*
X96393142Y-54561380D01*
X97393142Y-55561380D02*
X96821714Y-55561380D01*
X97107428Y-55561380D02*
X97107428Y-54561380D01*
X97012190Y-54704238D01*
X96916952Y-54799476D01*
X96821714Y-54847095D01*
X98012190Y-54561380D02*
X98107428Y-54561380D01*
X98202666Y-54609000D01*
X98250285Y-54656619D01*
X98297904Y-54751857D01*
X98345523Y-54942333D01*
X98345523Y-55180428D01*
X98297904Y-55370904D01*
X98250285Y-55466142D01*
X98202666Y-55513761D01*
X98107428Y-55561380D01*
X98012190Y-55561380D01*
X97916952Y-55513761D01*
X97869333Y-55466142D01*
X97821714Y-55370904D01*
X97774095Y-55180428D01*
X97774095Y-54942333D01*
X97821714Y-54751857D01*
X97869333Y-54656619D01*
X97916952Y-54609000D01*
X98012190Y-54561380D01*
X99202666Y-54894714D02*
X99202666Y-55561380D01*
X98964571Y-54513761D02*
X98726476Y-55228047D01*
X99345523Y-55228047D01*
G04 #@! TO.C,R105*
X162075952Y-77160380D02*
X161742619Y-76684190D01*
X161504523Y-77160380D02*
X161504523Y-76160380D01*
X161885476Y-76160380D01*
X161980714Y-76208000D01*
X162028333Y-76255619D01*
X162075952Y-76350857D01*
X162075952Y-76493714D01*
X162028333Y-76588952D01*
X161980714Y-76636571D01*
X161885476Y-76684190D01*
X161504523Y-76684190D01*
X163028333Y-77160380D02*
X162456904Y-77160380D01*
X162742619Y-77160380D02*
X162742619Y-76160380D01*
X162647380Y-76303238D01*
X162552142Y-76398476D01*
X162456904Y-76446095D01*
X163647380Y-76160380D02*
X163742619Y-76160380D01*
X163837857Y-76208000D01*
X163885476Y-76255619D01*
X163933095Y-76350857D01*
X163980714Y-76541333D01*
X163980714Y-76779428D01*
X163933095Y-76969904D01*
X163885476Y-77065142D01*
X163837857Y-77112761D01*
X163742619Y-77160380D01*
X163647380Y-77160380D01*
X163552142Y-77112761D01*
X163504523Y-77065142D01*
X163456904Y-76969904D01*
X163409285Y-76779428D01*
X163409285Y-76541333D01*
X163456904Y-76350857D01*
X163504523Y-76255619D01*
X163552142Y-76208000D01*
X163647380Y-76160380D01*
X164885476Y-76160380D02*
X164409285Y-76160380D01*
X164361666Y-76636571D01*
X164409285Y-76588952D01*
X164504523Y-76541333D01*
X164742619Y-76541333D01*
X164837857Y-76588952D01*
X164885476Y-76636571D01*
X164933095Y-76731809D01*
X164933095Y-76969904D01*
X164885476Y-77065142D01*
X164837857Y-77112761D01*
X164742619Y-77160380D01*
X164504523Y-77160380D01*
X164409285Y-77112761D01*
X164361666Y-77065142D01*
G04 #@! TO.C,SWPWR301*
X166068857Y-61313961D02*
X166211714Y-61361580D01*
X166449809Y-61361580D01*
X166545047Y-61313961D01*
X166592666Y-61266342D01*
X166640285Y-61171104D01*
X166640285Y-61075866D01*
X166592666Y-60980628D01*
X166545047Y-60933009D01*
X166449809Y-60885390D01*
X166259333Y-60837771D01*
X166164095Y-60790152D01*
X166116476Y-60742533D01*
X166068857Y-60647295D01*
X166068857Y-60552057D01*
X166116476Y-60456819D01*
X166164095Y-60409200D01*
X166259333Y-60361580D01*
X166497428Y-60361580D01*
X166640285Y-60409200D01*
X166973619Y-60361580D02*
X167211714Y-61361580D01*
X167402190Y-60647295D01*
X167592666Y-61361580D01*
X167830761Y-60361580D01*
X168211714Y-61361580D02*
X168211714Y-60361580D01*
X168592666Y-60361580D01*
X168687904Y-60409200D01*
X168735523Y-60456819D01*
X168783142Y-60552057D01*
X168783142Y-60694914D01*
X168735523Y-60790152D01*
X168687904Y-60837771D01*
X168592666Y-60885390D01*
X168211714Y-60885390D01*
X169116476Y-60361580D02*
X169354571Y-61361580D01*
X169545047Y-60647295D01*
X169735523Y-61361580D01*
X169973619Y-60361580D01*
X170926000Y-61361580D02*
X170592666Y-60885390D01*
X170354571Y-61361580D02*
X170354571Y-60361580D01*
X170735523Y-60361580D01*
X170830761Y-60409200D01*
X170878380Y-60456819D01*
X170926000Y-60552057D01*
X170926000Y-60694914D01*
X170878380Y-60790152D01*
X170830761Y-60837771D01*
X170735523Y-60885390D01*
X170354571Y-60885390D01*
X171259333Y-60361580D02*
X171878380Y-60361580D01*
X171545047Y-60742533D01*
X171687904Y-60742533D01*
X171783142Y-60790152D01*
X171830761Y-60837771D01*
X171878380Y-60933009D01*
X171878380Y-61171104D01*
X171830761Y-61266342D01*
X171783142Y-61313961D01*
X171687904Y-61361580D01*
X171402190Y-61361580D01*
X171306952Y-61313961D01*
X171259333Y-61266342D01*
X172497428Y-60361580D02*
X172592666Y-60361580D01*
X172687904Y-60409200D01*
X172735523Y-60456819D01*
X172783142Y-60552057D01*
X172830761Y-60742533D01*
X172830761Y-60980628D01*
X172783142Y-61171104D01*
X172735523Y-61266342D01*
X172687904Y-61313961D01*
X172592666Y-61361580D01*
X172497428Y-61361580D01*
X172402190Y-61313961D01*
X172354571Y-61266342D01*
X172306952Y-61171104D01*
X172259333Y-60980628D01*
X172259333Y-60742533D01*
X172306952Y-60552057D01*
X172354571Y-60456819D01*
X172402190Y-60409200D01*
X172497428Y-60361580D01*
X173783142Y-61361580D02*
X173211714Y-61361580D01*
X173497428Y-61361580D02*
X173497428Y-60361580D01*
X173402190Y-60504438D01*
X173306952Y-60599676D01*
X173211714Y-60647295D01*
G04 #@! TO.C,D102*
X111796723Y-108610780D02*
X111796723Y-107610780D01*
X112034819Y-107610780D01*
X112177676Y-107658400D01*
X112272914Y-107753638D01*
X112320533Y-107848876D01*
X112368152Y-108039352D01*
X112368152Y-108182209D01*
X112320533Y-108372685D01*
X112272914Y-108467923D01*
X112177676Y-108563161D01*
X112034819Y-108610780D01*
X111796723Y-108610780D01*
X113320533Y-108610780D02*
X112749104Y-108610780D01*
X113034819Y-108610780D02*
X113034819Y-107610780D01*
X112939580Y-107753638D01*
X112844342Y-107848876D01*
X112749104Y-107896495D01*
X113939580Y-107610780D02*
X114034819Y-107610780D01*
X114130057Y-107658400D01*
X114177676Y-107706019D01*
X114225295Y-107801257D01*
X114272914Y-107991733D01*
X114272914Y-108229828D01*
X114225295Y-108420304D01*
X114177676Y-108515542D01*
X114130057Y-108563161D01*
X114034819Y-108610780D01*
X113939580Y-108610780D01*
X113844342Y-108563161D01*
X113796723Y-108515542D01*
X113749104Y-108420304D01*
X113701485Y-108229828D01*
X113701485Y-107991733D01*
X113749104Y-107801257D01*
X113796723Y-107706019D01*
X113844342Y-107658400D01*
X113939580Y-107610780D01*
X114653866Y-107706019D02*
X114701485Y-107658400D01*
X114796723Y-107610780D01*
X115034819Y-107610780D01*
X115130057Y-107658400D01*
X115177676Y-107706019D01*
X115225295Y-107801257D01*
X115225295Y-107896495D01*
X115177676Y-108039352D01*
X114606247Y-108610780D01*
X115225295Y-108610780D01*
X109622914Y-110510780D02*
X109051485Y-110510780D01*
X109337200Y-110510780D02*
X109337200Y-109510780D01*
X109241961Y-109653638D01*
X109146723Y-109748876D01*
X109051485Y-109796495D01*
G04 #@! TO.C,D103*
X129627523Y-101290380D02*
X129627523Y-100290380D01*
X129865619Y-100290380D01*
X130008476Y-100338000D01*
X130103714Y-100433238D01*
X130151333Y-100528476D01*
X130198952Y-100718952D01*
X130198952Y-100861809D01*
X130151333Y-101052285D01*
X130103714Y-101147523D01*
X130008476Y-101242761D01*
X129865619Y-101290380D01*
X129627523Y-101290380D01*
X131151333Y-101290380D02*
X130579904Y-101290380D01*
X130865619Y-101290380D02*
X130865619Y-100290380D01*
X130770380Y-100433238D01*
X130675142Y-100528476D01*
X130579904Y-100576095D01*
X131770380Y-100290380D02*
X131865619Y-100290380D01*
X131960857Y-100338000D01*
X132008476Y-100385619D01*
X132056095Y-100480857D01*
X132103714Y-100671333D01*
X132103714Y-100909428D01*
X132056095Y-101099904D01*
X132008476Y-101195142D01*
X131960857Y-101242761D01*
X131865619Y-101290380D01*
X131770380Y-101290380D01*
X131675142Y-101242761D01*
X131627523Y-101195142D01*
X131579904Y-101099904D01*
X131532285Y-100909428D01*
X131532285Y-100671333D01*
X131579904Y-100480857D01*
X131627523Y-100385619D01*
X131675142Y-100338000D01*
X131770380Y-100290380D01*
X132437047Y-100290380D02*
X133056095Y-100290380D01*
X132722761Y-100671333D01*
X132865619Y-100671333D01*
X132960857Y-100718952D01*
X133008476Y-100766571D01*
X133056095Y-100861809D01*
X133056095Y-101099904D01*
X133008476Y-101195142D01*
X132960857Y-101242761D01*
X132865619Y-101290380D01*
X132579904Y-101290380D01*
X132484666Y-101242761D01*
X132437047Y-101195142D01*
G04 #@! TO.C,D104*
X149566523Y-101290380D02*
X149566523Y-100290380D01*
X149804619Y-100290380D01*
X149947476Y-100338000D01*
X150042714Y-100433238D01*
X150090333Y-100528476D01*
X150137952Y-100718952D01*
X150137952Y-100861809D01*
X150090333Y-101052285D01*
X150042714Y-101147523D01*
X149947476Y-101242761D01*
X149804619Y-101290380D01*
X149566523Y-101290380D01*
X151090333Y-101290380D02*
X150518904Y-101290380D01*
X150804619Y-101290380D02*
X150804619Y-100290380D01*
X150709380Y-100433238D01*
X150614142Y-100528476D01*
X150518904Y-100576095D01*
X151709380Y-100290380D02*
X151804619Y-100290380D01*
X151899857Y-100338000D01*
X151947476Y-100385619D01*
X151995095Y-100480857D01*
X152042714Y-100671333D01*
X152042714Y-100909428D01*
X151995095Y-101099904D01*
X151947476Y-101195142D01*
X151899857Y-101242761D01*
X151804619Y-101290380D01*
X151709380Y-101290380D01*
X151614142Y-101242761D01*
X151566523Y-101195142D01*
X151518904Y-101099904D01*
X151471285Y-100909428D01*
X151471285Y-100671333D01*
X151518904Y-100480857D01*
X151566523Y-100385619D01*
X151614142Y-100338000D01*
X151709380Y-100290380D01*
X152899857Y-100623714D02*
X152899857Y-101290380D01*
X152661761Y-100242761D02*
X152423666Y-100957047D01*
X153042714Y-100957047D01*
G04 #@! TO.C,D105*
X168727380Y-104179476D02*
X167727380Y-104179476D01*
X167727380Y-103941380D01*
X167775000Y-103798523D01*
X167870238Y-103703285D01*
X167965476Y-103655666D01*
X168155952Y-103608047D01*
X168298809Y-103608047D01*
X168489285Y-103655666D01*
X168584523Y-103703285D01*
X168679761Y-103798523D01*
X168727380Y-103941380D01*
X168727380Y-104179476D01*
X168727380Y-102655666D02*
X168727380Y-103227095D01*
X168727380Y-102941380D02*
X167727380Y-102941380D01*
X167870238Y-103036619D01*
X167965476Y-103131857D01*
X168013095Y-103227095D01*
X167727380Y-102036619D02*
X167727380Y-101941380D01*
X167775000Y-101846142D01*
X167822619Y-101798523D01*
X167917857Y-101750904D01*
X168108333Y-101703285D01*
X168346428Y-101703285D01*
X168536904Y-101750904D01*
X168632142Y-101798523D01*
X168679761Y-101846142D01*
X168727380Y-101941380D01*
X168727380Y-102036619D01*
X168679761Y-102131857D01*
X168632142Y-102179476D01*
X168536904Y-102227095D01*
X168346428Y-102274714D01*
X168108333Y-102274714D01*
X167917857Y-102227095D01*
X167822619Y-102179476D01*
X167775000Y-102131857D01*
X167727380Y-102036619D01*
X167727380Y-100798523D02*
X167727380Y-101274714D01*
X168203571Y-101322333D01*
X168155952Y-101274714D01*
X168108333Y-101179476D01*
X168108333Y-100941380D01*
X168155952Y-100846142D01*
X168203571Y-100798523D01*
X168298809Y-100750904D01*
X168536904Y-100750904D01*
X168632142Y-100798523D01*
X168679761Y-100846142D01*
X168727380Y-100941380D01*
X168727380Y-101179476D01*
X168679761Y-101274714D01*
X168632142Y-101322333D01*
G04 #@! TO.C,C203*
X149452152Y-62274742D02*
X149404533Y-62322361D01*
X149261676Y-62369980D01*
X149166438Y-62369980D01*
X149023580Y-62322361D01*
X148928342Y-62227123D01*
X148880723Y-62131885D01*
X148833104Y-61941409D01*
X148833104Y-61798552D01*
X148880723Y-61608076D01*
X148928342Y-61512838D01*
X149023580Y-61417600D01*
X149166438Y-61369980D01*
X149261676Y-61369980D01*
X149404533Y-61417600D01*
X149452152Y-61465219D01*
X149833104Y-61465219D02*
X149880723Y-61417600D01*
X149975961Y-61369980D01*
X150214057Y-61369980D01*
X150309295Y-61417600D01*
X150356914Y-61465219D01*
X150404533Y-61560457D01*
X150404533Y-61655695D01*
X150356914Y-61798552D01*
X149785485Y-62369980D01*
X150404533Y-62369980D01*
X151023580Y-61369980D02*
X151118819Y-61369980D01*
X151214057Y-61417600D01*
X151261676Y-61465219D01*
X151309295Y-61560457D01*
X151356914Y-61750933D01*
X151356914Y-61989028D01*
X151309295Y-62179504D01*
X151261676Y-62274742D01*
X151214057Y-62322361D01*
X151118819Y-62369980D01*
X151023580Y-62369980D01*
X150928342Y-62322361D01*
X150880723Y-62274742D01*
X150833104Y-62179504D01*
X150785485Y-61989028D01*
X150785485Y-61750933D01*
X150833104Y-61560457D01*
X150880723Y-61465219D01*
X150928342Y-61417600D01*
X151023580Y-61369980D01*
X151690247Y-61369980D02*
X152309295Y-61369980D01*
X151975961Y-61750933D01*
X152118819Y-61750933D01*
X152214057Y-61798552D01*
X152261676Y-61846171D01*
X152309295Y-61941409D01*
X152309295Y-62179504D01*
X152261676Y-62274742D01*
X152214057Y-62322361D01*
X152118819Y-62369980D01*
X151833104Y-62369980D01*
X151737866Y-62322361D01*
X151690247Y-62274742D01*
G04 #@! TO.C,R303*
X140965180Y-69699047D02*
X140488990Y-70032380D01*
X140965180Y-70270476D02*
X139965180Y-70270476D01*
X139965180Y-69889523D01*
X140012800Y-69794285D01*
X140060419Y-69746666D01*
X140155657Y-69699047D01*
X140298514Y-69699047D01*
X140393752Y-69746666D01*
X140441371Y-69794285D01*
X140488990Y-69889523D01*
X140488990Y-70270476D01*
X139965180Y-69365714D02*
X139965180Y-68746666D01*
X140346133Y-69080000D01*
X140346133Y-68937142D01*
X140393752Y-68841904D01*
X140441371Y-68794285D01*
X140536609Y-68746666D01*
X140774704Y-68746666D01*
X140869942Y-68794285D01*
X140917561Y-68841904D01*
X140965180Y-68937142D01*
X140965180Y-69222857D01*
X140917561Y-69318095D01*
X140869942Y-69365714D01*
X139965180Y-68127619D02*
X139965180Y-68032380D01*
X140012800Y-67937142D01*
X140060419Y-67889523D01*
X140155657Y-67841904D01*
X140346133Y-67794285D01*
X140584228Y-67794285D01*
X140774704Y-67841904D01*
X140869942Y-67889523D01*
X140917561Y-67937142D01*
X140965180Y-68032380D01*
X140965180Y-68127619D01*
X140917561Y-68222857D01*
X140869942Y-68270476D01*
X140774704Y-68318095D01*
X140584228Y-68365714D01*
X140346133Y-68365714D01*
X140155657Y-68318095D01*
X140060419Y-68270476D01*
X140012800Y-68222857D01*
X139965180Y-68127619D01*
X139965180Y-67460952D02*
X139965180Y-66841904D01*
X140346133Y-67175238D01*
X140346133Y-67032380D01*
X140393752Y-66937142D01*
X140441371Y-66889523D01*
X140536609Y-66841904D01*
X140774704Y-66841904D01*
X140869942Y-66889523D01*
X140917561Y-66937142D01*
X140965180Y-67032380D01*
X140965180Y-67318095D01*
X140917561Y-67413333D01*
X140869942Y-67460952D01*
G04 #@! TO.C,AMP101*
X143946904Y-94019666D02*
X144423095Y-94019666D01*
X143851666Y-94305380D02*
X144185000Y-93305380D01*
X144518333Y-94305380D01*
X144851666Y-94305380D02*
X144851666Y-93305380D01*
X145185000Y-94019666D01*
X145518333Y-93305380D01*
X145518333Y-94305380D01*
X145994523Y-94305380D02*
X145994523Y-93305380D01*
X146375476Y-93305380D01*
X146470714Y-93353000D01*
X146518333Y-93400619D01*
X146565952Y-93495857D01*
X146565952Y-93638714D01*
X146518333Y-93733952D01*
X146470714Y-93781571D01*
X146375476Y-93829190D01*
X145994523Y-93829190D01*
X147518333Y-94305380D02*
X146946904Y-94305380D01*
X147232619Y-94305380D02*
X147232619Y-93305380D01*
X147137380Y-93448238D01*
X147042142Y-93543476D01*
X146946904Y-93591095D01*
X148137380Y-93305380D02*
X148232619Y-93305380D01*
X148327857Y-93353000D01*
X148375476Y-93400619D01*
X148423095Y-93495857D01*
X148470714Y-93686333D01*
X148470714Y-93924428D01*
X148423095Y-94114904D01*
X148375476Y-94210142D01*
X148327857Y-94257761D01*
X148232619Y-94305380D01*
X148137380Y-94305380D01*
X148042142Y-94257761D01*
X147994523Y-94210142D01*
X147946904Y-94114904D01*
X147899285Y-93924428D01*
X147899285Y-93686333D01*
X147946904Y-93495857D01*
X147994523Y-93400619D01*
X148042142Y-93353000D01*
X148137380Y-93305380D01*
X149423095Y-94305380D02*
X148851666Y-94305380D01*
X149137380Y-94305380D02*
X149137380Y-93305380D01*
X149042142Y-93448238D01*
X148946904Y-93543476D01*
X148851666Y-93591095D01*
G04 #@! TO.C,SW103*
X173736285Y-104417761D02*
X173879142Y-104465380D01*
X174117238Y-104465380D01*
X174212476Y-104417761D01*
X174260095Y-104370142D01*
X174307714Y-104274904D01*
X174307714Y-104179666D01*
X174260095Y-104084428D01*
X174212476Y-104036809D01*
X174117238Y-103989190D01*
X173926761Y-103941571D01*
X173831523Y-103893952D01*
X173783904Y-103846333D01*
X173736285Y-103751095D01*
X173736285Y-103655857D01*
X173783904Y-103560619D01*
X173831523Y-103513000D01*
X173926761Y-103465380D01*
X174164857Y-103465380D01*
X174307714Y-103513000D01*
X174641047Y-103465380D02*
X174879142Y-104465380D01*
X175069619Y-103751095D01*
X175260095Y-104465380D01*
X175498190Y-103465380D01*
X176402952Y-104465380D02*
X175831523Y-104465380D01*
X176117238Y-104465380D02*
X176117238Y-103465380D01*
X176022000Y-103608238D01*
X175926761Y-103703476D01*
X175831523Y-103751095D01*
X177022000Y-103465380D02*
X177117238Y-103465380D01*
X177212476Y-103513000D01*
X177260095Y-103560619D01*
X177307714Y-103655857D01*
X177355333Y-103846333D01*
X177355333Y-104084428D01*
X177307714Y-104274904D01*
X177260095Y-104370142D01*
X177212476Y-104417761D01*
X177117238Y-104465380D01*
X177022000Y-104465380D01*
X176926761Y-104417761D01*
X176879142Y-104370142D01*
X176831523Y-104274904D01*
X176783904Y-104084428D01*
X176783904Y-103846333D01*
X176831523Y-103655857D01*
X176879142Y-103560619D01*
X176926761Y-103513000D01*
X177022000Y-103465380D01*
X177688666Y-103465380D02*
X178307714Y-103465380D01*
X177974380Y-103846333D01*
X178117238Y-103846333D01*
X178212476Y-103893952D01*
X178260095Y-103941571D01*
X178307714Y-104036809D01*
X178307714Y-104274904D01*
X178260095Y-104370142D01*
X178212476Y-104417761D01*
X178117238Y-104465380D01*
X177831523Y-104465380D01*
X177736285Y-104417761D01*
X177688666Y-104370142D01*
G04 #@! TO.C,SW102*
X153670285Y-104417761D02*
X153813142Y-104465380D01*
X154051238Y-104465380D01*
X154146476Y-104417761D01*
X154194095Y-104370142D01*
X154241714Y-104274904D01*
X154241714Y-104179666D01*
X154194095Y-104084428D01*
X154146476Y-104036809D01*
X154051238Y-103989190D01*
X153860761Y-103941571D01*
X153765523Y-103893952D01*
X153717904Y-103846333D01*
X153670285Y-103751095D01*
X153670285Y-103655857D01*
X153717904Y-103560619D01*
X153765523Y-103513000D01*
X153860761Y-103465380D01*
X154098857Y-103465380D01*
X154241714Y-103513000D01*
X154575047Y-103465380D02*
X154813142Y-104465380D01*
X155003619Y-103751095D01*
X155194095Y-104465380D01*
X155432190Y-103465380D01*
X156336952Y-104465380D02*
X155765523Y-104465380D01*
X156051238Y-104465380D02*
X156051238Y-103465380D01*
X155956000Y-103608238D01*
X155860761Y-103703476D01*
X155765523Y-103751095D01*
X156956000Y-103465380D02*
X157051238Y-103465380D01*
X157146476Y-103513000D01*
X157194095Y-103560619D01*
X157241714Y-103655857D01*
X157289333Y-103846333D01*
X157289333Y-104084428D01*
X157241714Y-104274904D01*
X157194095Y-104370142D01*
X157146476Y-104417761D01*
X157051238Y-104465380D01*
X156956000Y-104465380D01*
X156860761Y-104417761D01*
X156813142Y-104370142D01*
X156765523Y-104274904D01*
X156717904Y-104084428D01*
X156717904Y-103846333D01*
X156765523Y-103655857D01*
X156813142Y-103560619D01*
X156860761Y-103513000D01*
X156956000Y-103465380D01*
X157670285Y-103560619D02*
X157717904Y-103513000D01*
X157813142Y-103465380D01*
X158051238Y-103465380D01*
X158146476Y-103513000D01*
X158194095Y-103560619D01*
X158241714Y-103655857D01*
X158241714Y-103751095D01*
X158194095Y-103893952D01*
X157622666Y-104465380D01*
X158241714Y-104465380D01*
G04 #@! TO.C,SW101*
X133604285Y-104417761D02*
X133747142Y-104465380D01*
X133985238Y-104465380D01*
X134080476Y-104417761D01*
X134128095Y-104370142D01*
X134175714Y-104274904D01*
X134175714Y-104179666D01*
X134128095Y-104084428D01*
X134080476Y-104036809D01*
X133985238Y-103989190D01*
X133794761Y-103941571D01*
X133699523Y-103893952D01*
X133651904Y-103846333D01*
X133604285Y-103751095D01*
X133604285Y-103655857D01*
X133651904Y-103560619D01*
X133699523Y-103513000D01*
X133794761Y-103465380D01*
X134032857Y-103465380D01*
X134175714Y-103513000D01*
X134509047Y-103465380D02*
X134747142Y-104465380D01*
X134937619Y-103751095D01*
X135128095Y-104465380D01*
X135366190Y-103465380D01*
X136270952Y-104465380D02*
X135699523Y-104465380D01*
X135985238Y-104465380D02*
X135985238Y-103465380D01*
X135890000Y-103608238D01*
X135794761Y-103703476D01*
X135699523Y-103751095D01*
X136890000Y-103465380D02*
X136985238Y-103465380D01*
X137080476Y-103513000D01*
X137128095Y-103560619D01*
X137175714Y-103655857D01*
X137223333Y-103846333D01*
X137223333Y-104084428D01*
X137175714Y-104274904D01*
X137128095Y-104370142D01*
X137080476Y-104417761D01*
X136985238Y-104465380D01*
X136890000Y-104465380D01*
X136794761Y-104417761D01*
X136747142Y-104370142D01*
X136699523Y-104274904D01*
X136651904Y-104084428D01*
X136651904Y-103846333D01*
X136699523Y-103655857D01*
X136747142Y-103560619D01*
X136794761Y-103513000D01*
X136890000Y-103465380D01*
X138175714Y-104465380D02*
X137604285Y-104465380D01*
X137890000Y-104465380D02*
X137890000Y-103465380D01*
X137794761Y-103608238D01*
X137699523Y-103703476D01*
X137604285Y-103751095D01*
G04 #@! TO.C,C103*
X145946952Y-99319142D02*
X145899333Y-99366761D01*
X145756476Y-99414380D01*
X145661238Y-99414380D01*
X145518380Y-99366761D01*
X145423142Y-99271523D01*
X145375523Y-99176285D01*
X145327904Y-98985809D01*
X145327904Y-98842952D01*
X145375523Y-98652476D01*
X145423142Y-98557238D01*
X145518380Y-98462000D01*
X145661238Y-98414380D01*
X145756476Y-98414380D01*
X145899333Y-98462000D01*
X145946952Y-98509619D01*
X146899333Y-99414380D02*
X146327904Y-99414380D01*
X146613619Y-99414380D02*
X146613619Y-98414380D01*
X146518380Y-98557238D01*
X146423142Y-98652476D01*
X146327904Y-98700095D01*
X147518380Y-98414380D02*
X147613619Y-98414380D01*
X147708857Y-98462000D01*
X147756476Y-98509619D01*
X147804095Y-98604857D01*
X147851714Y-98795333D01*
X147851714Y-99033428D01*
X147804095Y-99223904D01*
X147756476Y-99319142D01*
X147708857Y-99366761D01*
X147613619Y-99414380D01*
X147518380Y-99414380D01*
X147423142Y-99366761D01*
X147375523Y-99319142D01*
X147327904Y-99223904D01*
X147280285Y-99033428D01*
X147280285Y-98795333D01*
X147327904Y-98604857D01*
X147375523Y-98509619D01*
X147423142Y-98462000D01*
X147518380Y-98414380D01*
X148185047Y-98414380D02*
X148804095Y-98414380D01*
X148470761Y-98795333D01*
X148613619Y-98795333D01*
X148708857Y-98842952D01*
X148756476Y-98890571D01*
X148804095Y-98985809D01*
X148804095Y-99223904D01*
X148756476Y-99319142D01*
X148708857Y-99366761D01*
X148613619Y-99414380D01*
X148327904Y-99414380D01*
X148232666Y-99366761D01*
X148185047Y-99319142D01*
G04 #@! TO.C,C201*
X158342152Y-64368742D02*
X158294533Y-64416361D01*
X158151676Y-64463980D01*
X158056438Y-64463980D01*
X157913580Y-64416361D01*
X157818342Y-64321123D01*
X157770723Y-64225885D01*
X157723104Y-64035409D01*
X157723104Y-63892552D01*
X157770723Y-63702076D01*
X157818342Y-63606838D01*
X157913580Y-63511600D01*
X158056438Y-63463980D01*
X158151676Y-63463980D01*
X158294533Y-63511600D01*
X158342152Y-63559219D01*
X158723104Y-63559219D02*
X158770723Y-63511600D01*
X158865961Y-63463980D01*
X159104057Y-63463980D01*
X159199295Y-63511600D01*
X159246914Y-63559219D01*
X159294533Y-63654457D01*
X159294533Y-63749695D01*
X159246914Y-63892552D01*
X158675485Y-64463980D01*
X159294533Y-64463980D01*
X159913580Y-63463980D02*
X160008819Y-63463980D01*
X160104057Y-63511600D01*
X160151676Y-63559219D01*
X160199295Y-63654457D01*
X160246914Y-63844933D01*
X160246914Y-64083028D01*
X160199295Y-64273504D01*
X160151676Y-64368742D01*
X160104057Y-64416361D01*
X160008819Y-64463980D01*
X159913580Y-64463980D01*
X159818342Y-64416361D01*
X159770723Y-64368742D01*
X159723104Y-64273504D01*
X159675485Y-64083028D01*
X159675485Y-63844933D01*
X159723104Y-63654457D01*
X159770723Y-63559219D01*
X159818342Y-63511600D01*
X159913580Y-63463980D01*
X161199295Y-64463980D02*
X160627866Y-64463980D01*
X160913580Y-64463980D02*
X160913580Y-63463980D01*
X160818342Y-63606838D01*
X160723104Y-63702076D01*
X160627866Y-63749695D01*
G04 #@! TO.C,C301*
X146048552Y-60504342D02*
X146000933Y-60551961D01*
X145858076Y-60599580D01*
X145762838Y-60599580D01*
X145619980Y-60551961D01*
X145524742Y-60456723D01*
X145477123Y-60361485D01*
X145429504Y-60171009D01*
X145429504Y-60028152D01*
X145477123Y-59837676D01*
X145524742Y-59742438D01*
X145619980Y-59647200D01*
X145762838Y-59599580D01*
X145858076Y-59599580D01*
X146000933Y-59647200D01*
X146048552Y-59694819D01*
X146381885Y-59599580D02*
X147000933Y-59599580D01*
X146667600Y-59980533D01*
X146810457Y-59980533D01*
X146905695Y-60028152D01*
X146953314Y-60075771D01*
X147000933Y-60171009D01*
X147000933Y-60409104D01*
X146953314Y-60504342D01*
X146905695Y-60551961D01*
X146810457Y-60599580D01*
X146524742Y-60599580D01*
X146429504Y-60551961D01*
X146381885Y-60504342D01*
X147619980Y-59599580D02*
X147715219Y-59599580D01*
X147810457Y-59647200D01*
X147858076Y-59694819D01*
X147905695Y-59790057D01*
X147953314Y-59980533D01*
X147953314Y-60218628D01*
X147905695Y-60409104D01*
X147858076Y-60504342D01*
X147810457Y-60551961D01*
X147715219Y-60599580D01*
X147619980Y-60599580D01*
X147524742Y-60551961D01*
X147477123Y-60504342D01*
X147429504Y-60409104D01*
X147381885Y-60218628D01*
X147381885Y-59980533D01*
X147429504Y-59790057D01*
X147477123Y-59694819D01*
X147524742Y-59647200D01*
X147619980Y-59599580D01*
X148905695Y-60599580D02*
X148334266Y-60599580D01*
X148619980Y-60599580D02*
X148619980Y-59599580D01*
X148524742Y-59742438D01*
X148429504Y-59837676D01*
X148334266Y-59885295D01*
G04 #@! TO.C,C303*
X178585952Y-69445142D02*
X178538333Y-69492761D01*
X178395476Y-69540380D01*
X178300238Y-69540380D01*
X178157380Y-69492761D01*
X178062142Y-69397523D01*
X178014523Y-69302285D01*
X177966904Y-69111809D01*
X177966904Y-68968952D01*
X178014523Y-68778476D01*
X178062142Y-68683238D01*
X178157380Y-68588000D01*
X178300238Y-68540380D01*
X178395476Y-68540380D01*
X178538333Y-68588000D01*
X178585952Y-68635619D01*
X178919285Y-68540380D02*
X179538333Y-68540380D01*
X179205000Y-68921333D01*
X179347857Y-68921333D01*
X179443095Y-68968952D01*
X179490714Y-69016571D01*
X179538333Y-69111809D01*
X179538333Y-69349904D01*
X179490714Y-69445142D01*
X179443095Y-69492761D01*
X179347857Y-69540380D01*
X179062142Y-69540380D01*
X178966904Y-69492761D01*
X178919285Y-69445142D01*
X180157380Y-68540380D02*
X180252619Y-68540380D01*
X180347857Y-68588000D01*
X180395476Y-68635619D01*
X180443095Y-68730857D01*
X180490714Y-68921333D01*
X180490714Y-69159428D01*
X180443095Y-69349904D01*
X180395476Y-69445142D01*
X180347857Y-69492761D01*
X180252619Y-69540380D01*
X180157380Y-69540380D01*
X180062142Y-69492761D01*
X180014523Y-69445142D01*
X179966904Y-69349904D01*
X179919285Y-69159428D01*
X179919285Y-68921333D01*
X179966904Y-68730857D01*
X180014523Y-68635619D01*
X180062142Y-68588000D01*
X180157380Y-68540380D01*
X180824047Y-68540380D02*
X181443095Y-68540380D01*
X181109761Y-68921333D01*
X181252619Y-68921333D01*
X181347857Y-68968952D01*
X181395476Y-69016571D01*
X181443095Y-69111809D01*
X181443095Y-69349904D01*
X181395476Y-69445142D01*
X181347857Y-69492761D01*
X181252619Y-69540380D01*
X180966904Y-69540380D01*
X180871666Y-69492761D01*
X180824047Y-69445142D01*
G04 #@! TO.C,C302*
X177957541Y-73661447D02*
X178005160Y-73709066D01*
X178052779Y-73851923D01*
X178052779Y-73947161D01*
X178005160Y-74090019D01*
X177909922Y-74185257D01*
X177814684Y-74232876D01*
X177624208Y-74280495D01*
X177481351Y-74280495D01*
X177290875Y-74232876D01*
X177195637Y-74185257D01*
X177100399Y-74090019D01*
X177052779Y-73947161D01*
X177052779Y-73851923D01*
X177100399Y-73709066D01*
X177148018Y-73661447D01*
X177052779Y-73328114D02*
X177052779Y-72709066D01*
X177433732Y-73042400D01*
X177433732Y-72899542D01*
X177481351Y-72804304D01*
X177528970Y-72756685D01*
X177624208Y-72709066D01*
X177862303Y-72709066D01*
X177957541Y-72756685D01*
X178005160Y-72804304D01*
X178052779Y-72899542D01*
X178052779Y-73185257D01*
X178005160Y-73280495D01*
X177957541Y-73328114D01*
X177052779Y-72090019D02*
X177052779Y-71994780D01*
X177100399Y-71899542D01*
X177148018Y-71851923D01*
X177243256Y-71804304D01*
X177433732Y-71756685D01*
X177671827Y-71756685D01*
X177862303Y-71804304D01*
X177957541Y-71851923D01*
X178005160Y-71899542D01*
X178052779Y-71994780D01*
X178052779Y-72090019D01*
X178005160Y-72185257D01*
X177957541Y-72232876D01*
X177862303Y-72280495D01*
X177671827Y-72328114D01*
X177433732Y-72328114D01*
X177243256Y-72280495D01*
X177148018Y-72232876D01*
X177100399Y-72185257D01*
X177052779Y-72090019D01*
X177148018Y-71375733D02*
X177100399Y-71328114D01*
X177052779Y-71232876D01*
X177052779Y-70994780D01*
X177100399Y-70899542D01*
X177148018Y-70851923D01*
X177243256Y-70804304D01*
X177338494Y-70804304D01*
X177481351Y-70851923D01*
X178052779Y-71423352D01*
X178052779Y-70804304D01*
G04 #@! TO.C,LS101*
X139771380Y-92273238D02*
X139771380Y-92749428D01*
X138771380Y-92749428D01*
X139723761Y-91987523D02*
X139771380Y-91844666D01*
X139771380Y-91606571D01*
X139723761Y-91511333D01*
X139676142Y-91463714D01*
X139580904Y-91416095D01*
X139485666Y-91416095D01*
X139390428Y-91463714D01*
X139342809Y-91511333D01*
X139295190Y-91606571D01*
X139247571Y-91797047D01*
X139199952Y-91892285D01*
X139152333Y-91939904D01*
X139057095Y-91987523D01*
X138961857Y-91987523D01*
X138866619Y-91939904D01*
X138819000Y-91892285D01*
X138771380Y-91797047D01*
X138771380Y-91558952D01*
X138819000Y-91416095D01*
X139771380Y-90463714D02*
X139771380Y-91035142D01*
X139771380Y-90749428D02*
X138771380Y-90749428D01*
X138914238Y-90844666D01*
X139009476Y-90939904D01*
X139057095Y-91035142D01*
X138771380Y-89844666D02*
X138771380Y-89749428D01*
X138819000Y-89654190D01*
X138866619Y-89606571D01*
X138961857Y-89558952D01*
X139152333Y-89511333D01*
X139390428Y-89511333D01*
X139580904Y-89558952D01*
X139676142Y-89606571D01*
X139723761Y-89654190D01*
X139771380Y-89749428D01*
X139771380Y-89844666D01*
X139723761Y-89939904D01*
X139676142Y-89987523D01*
X139580904Y-90035142D01*
X139390428Y-90082761D01*
X139152333Y-90082761D01*
X138961857Y-90035142D01*
X138866619Y-89987523D01*
X138819000Y-89939904D01*
X138771380Y-89844666D01*
X139771380Y-88558952D02*
X139771380Y-89130380D01*
X139771380Y-88844666D02*
X138771380Y-88844666D01*
X138914238Y-88939904D01*
X139009476Y-89035142D01*
X139057095Y-89130380D01*
G04 #@! TO.C,J101*
X144613380Y-82184714D02*
X145327666Y-82184714D01*
X145470523Y-82232333D01*
X145565761Y-82327571D01*
X145613380Y-82470428D01*
X145613380Y-82565666D01*
X145613380Y-81184714D02*
X145613380Y-81756142D01*
X145613380Y-81470428D02*
X144613380Y-81470428D01*
X144756238Y-81565666D01*
X144851476Y-81660904D01*
X144899095Y-81756142D01*
X144613380Y-80565666D02*
X144613380Y-80470428D01*
X144661000Y-80375190D01*
X144708619Y-80327571D01*
X144803857Y-80279952D01*
X144994333Y-80232333D01*
X145232428Y-80232333D01*
X145422904Y-80279952D01*
X145518142Y-80327571D01*
X145565761Y-80375190D01*
X145613380Y-80470428D01*
X145613380Y-80565666D01*
X145565761Y-80660904D01*
X145518142Y-80708523D01*
X145422904Y-80756142D01*
X145232428Y-80803761D01*
X144994333Y-80803761D01*
X144803857Y-80756142D01*
X144708619Y-80708523D01*
X144661000Y-80660904D01*
X144613380Y-80565666D01*
X145613380Y-79279952D02*
X145613380Y-79851380D01*
X145613380Y-79565666D02*
X144613380Y-79565666D01*
X144756238Y-79660904D01*
X144851476Y-79756142D01*
X144899095Y-79851380D01*
G04 #@! TO.C,BT301*
X140628904Y-78287571D02*
X140771761Y-78335190D01*
X140819380Y-78382809D01*
X140867000Y-78478047D01*
X140867000Y-78620904D01*
X140819380Y-78716142D01*
X140771761Y-78763761D01*
X140676523Y-78811380D01*
X140295571Y-78811380D01*
X140295571Y-77811380D01*
X140628904Y-77811380D01*
X140724142Y-77859000D01*
X140771761Y-77906619D01*
X140819380Y-78001857D01*
X140819380Y-78097095D01*
X140771761Y-78192333D01*
X140724142Y-78239952D01*
X140628904Y-78287571D01*
X140295571Y-78287571D01*
X141152714Y-77811380D02*
X141724142Y-77811380D01*
X141438428Y-78811380D02*
X141438428Y-77811380D01*
X141962238Y-77811380D02*
X142581285Y-77811380D01*
X142247952Y-78192333D01*
X142390809Y-78192333D01*
X142486047Y-78239952D01*
X142533666Y-78287571D01*
X142581285Y-78382809D01*
X142581285Y-78620904D01*
X142533666Y-78716142D01*
X142486047Y-78763761D01*
X142390809Y-78811380D01*
X142105095Y-78811380D01*
X142009857Y-78763761D01*
X141962238Y-78716142D01*
X143200333Y-77811380D02*
X143295571Y-77811380D01*
X143390809Y-77859000D01*
X143438428Y-77906619D01*
X143486047Y-78001857D01*
X143533666Y-78192333D01*
X143533666Y-78430428D01*
X143486047Y-78620904D01*
X143438428Y-78716142D01*
X143390809Y-78763761D01*
X143295571Y-78811380D01*
X143200333Y-78811380D01*
X143105095Y-78763761D01*
X143057476Y-78716142D01*
X143009857Y-78620904D01*
X142962238Y-78430428D01*
X142962238Y-78192333D01*
X143009857Y-78001857D01*
X143057476Y-77906619D01*
X143105095Y-77859000D01*
X143200333Y-77811380D01*
X144486047Y-78811380D02*
X143914619Y-78811380D01*
X144200333Y-78811380D02*
X144200333Y-77811380D01*
X144105095Y-77954238D01*
X144009857Y-78049476D01*
X143914619Y-78097095D01*
G04 #@! TO.C,J201*
X153146285Y-60864380D02*
X153146285Y-61578666D01*
X153098666Y-61721523D01*
X153003428Y-61816761D01*
X152860571Y-61864380D01*
X152765333Y-61864380D01*
X153574857Y-60959619D02*
X153622476Y-60912000D01*
X153717714Y-60864380D01*
X153955809Y-60864380D01*
X154051047Y-60912000D01*
X154098666Y-60959619D01*
X154146285Y-61054857D01*
X154146285Y-61150095D01*
X154098666Y-61292952D01*
X153527238Y-61864380D01*
X154146285Y-61864380D01*
X154765333Y-60864380D02*
X154860571Y-60864380D01*
X154955809Y-60912000D01*
X155003428Y-60959619D01*
X155051047Y-61054857D01*
X155098666Y-61245333D01*
X155098666Y-61483428D01*
X155051047Y-61673904D01*
X155003428Y-61769142D01*
X154955809Y-61816761D01*
X154860571Y-61864380D01*
X154765333Y-61864380D01*
X154670095Y-61816761D01*
X154622476Y-61769142D01*
X154574857Y-61673904D01*
X154527238Y-61483428D01*
X154527238Y-61245333D01*
X154574857Y-61054857D01*
X154622476Y-60959619D01*
X154670095Y-60912000D01*
X154765333Y-60864380D01*
X156051047Y-61864380D02*
X155479619Y-61864380D01*
X155765333Y-61864380D02*
X155765333Y-60864380D01*
X155670095Y-61007238D01*
X155574857Y-61102476D01*
X155479619Y-61150095D01*
G04 #@! TO.C,D301*
X181782980Y-73648676D02*
X180782980Y-73648676D01*
X180782980Y-73410580D01*
X180830600Y-73267723D01*
X180925838Y-73172485D01*
X181021076Y-73124866D01*
X181211552Y-73077247D01*
X181354409Y-73077247D01*
X181544885Y-73124866D01*
X181640123Y-73172485D01*
X181735361Y-73267723D01*
X181782980Y-73410580D01*
X181782980Y-73648676D01*
X180782980Y-72743914D02*
X180782980Y-72124866D01*
X181163933Y-72458200D01*
X181163933Y-72315342D01*
X181211552Y-72220104D01*
X181259171Y-72172485D01*
X181354409Y-72124866D01*
X181592504Y-72124866D01*
X181687742Y-72172485D01*
X181735361Y-72220104D01*
X181782980Y-72315342D01*
X181782980Y-72601057D01*
X181735361Y-72696295D01*
X181687742Y-72743914D01*
X180782980Y-71505819D02*
X180782980Y-71410580D01*
X180830600Y-71315342D01*
X180878219Y-71267723D01*
X180973457Y-71220104D01*
X181163933Y-71172485D01*
X181402028Y-71172485D01*
X181592504Y-71220104D01*
X181687742Y-71267723D01*
X181735361Y-71315342D01*
X181782980Y-71410580D01*
X181782980Y-71505819D01*
X181735361Y-71601057D01*
X181687742Y-71648676D01*
X181592504Y-71696295D01*
X181402028Y-71743914D01*
X181163933Y-71743914D01*
X180973457Y-71696295D01*
X180878219Y-71648676D01*
X180830600Y-71601057D01*
X180782980Y-71505819D01*
X181782980Y-70220104D02*
X181782980Y-70791533D01*
X181782980Y-70505819D02*
X180782980Y-70505819D01*
X180925838Y-70601057D01*
X181021076Y-70696295D01*
X181068695Y-70791533D01*
G04 #@! TO.C,D101*
X159142323Y-68625980D02*
X159142323Y-67625980D01*
X159380419Y-67625980D01*
X159523276Y-67673600D01*
X159618514Y-67768838D01*
X159666133Y-67864076D01*
X159713752Y-68054552D01*
X159713752Y-68197409D01*
X159666133Y-68387885D01*
X159618514Y-68483123D01*
X159523276Y-68578361D01*
X159380419Y-68625980D01*
X159142323Y-68625980D01*
X160666133Y-68625980D02*
X160094704Y-68625980D01*
X160380419Y-68625980D02*
X160380419Y-67625980D01*
X160285180Y-67768838D01*
X160189942Y-67864076D01*
X160094704Y-67911695D01*
X161285180Y-67625980D02*
X161380419Y-67625980D01*
X161475657Y-67673600D01*
X161523276Y-67721219D01*
X161570895Y-67816457D01*
X161618514Y-68006933D01*
X161618514Y-68245028D01*
X161570895Y-68435504D01*
X161523276Y-68530742D01*
X161475657Y-68578361D01*
X161380419Y-68625980D01*
X161285180Y-68625980D01*
X161189942Y-68578361D01*
X161142323Y-68530742D01*
X161094704Y-68435504D01*
X161047085Y-68245028D01*
X161047085Y-68006933D01*
X161094704Y-67816457D01*
X161142323Y-67721219D01*
X161189942Y-67673600D01*
X161285180Y-67625980D01*
X162570895Y-68625980D02*
X161999466Y-68625980D01*
X162285180Y-68625980D02*
X162285180Y-67625980D01*
X162189942Y-67768838D01*
X162094704Y-67864076D01*
X161999466Y-67911695D01*
X155076214Y-70416880D02*
X154504785Y-70416880D01*
X154790500Y-70416880D02*
X154790500Y-69416880D01*
X154695261Y-69559738D01*
X154600023Y-69654976D01*
X154504785Y-69702595D01*
G04 #@! TO.C,U201*
X157543714Y-65035180D02*
X157543714Y-65844704D01*
X157591333Y-65939942D01*
X157638952Y-65987561D01*
X157734190Y-66035180D01*
X157924666Y-66035180D01*
X158019904Y-65987561D01*
X158067523Y-65939942D01*
X158115142Y-65844704D01*
X158115142Y-65035180D01*
X158543714Y-65130419D02*
X158591333Y-65082800D01*
X158686571Y-65035180D01*
X158924666Y-65035180D01*
X159019904Y-65082800D01*
X159067523Y-65130419D01*
X159115142Y-65225657D01*
X159115142Y-65320895D01*
X159067523Y-65463752D01*
X158496095Y-66035180D01*
X159115142Y-66035180D01*
X159734190Y-65035180D02*
X159829428Y-65035180D01*
X159924666Y-65082800D01*
X159972285Y-65130419D01*
X160019904Y-65225657D01*
X160067523Y-65416133D01*
X160067523Y-65654228D01*
X160019904Y-65844704D01*
X159972285Y-65939942D01*
X159924666Y-65987561D01*
X159829428Y-66035180D01*
X159734190Y-66035180D01*
X159638952Y-65987561D01*
X159591333Y-65939942D01*
X159543714Y-65844704D01*
X159496095Y-65654228D01*
X159496095Y-65416133D01*
X159543714Y-65225657D01*
X159591333Y-65130419D01*
X159638952Y-65082800D01*
X159734190Y-65035180D01*
X161019904Y-66035180D02*
X160448476Y-66035180D01*
X160734190Y-66035180D02*
X160734190Y-65035180D01*
X160638952Y-65178038D01*
X160543714Y-65273276D01*
X160448476Y-65320895D01*
G04 #@! TO.C,CH301*
X145677142Y-70588142D02*
X145629523Y-70635761D01*
X145486666Y-70683380D01*
X145391428Y-70683380D01*
X145248571Y-70635761D01*
X145153333Y-70540523D01*
X145105714Y-70445285D01*
X145058095Y-70254809D01*
X145058095Y-70111952D01*
X145105714Y-69921476D01*
X145153333Y-69826238D01*
X145248571Y-69731000D01*
X145391428Y-69683380D01*
X145486666Y-69683380D01*
X145629523Y-69731000D01*
X145677142Y-69778619D01*
X146105714Y-70683380D02*
X146105714Y-69683380D01*
X146105714Y-70159571D02*
X146677142Y-70159571D01*
X146677142Y-70683380D02*
X146677142Y-69683380D01*
X147058095Y-69683380D02*
X147677142Y-69683380D01*
X147343809Y-70064333D01*
X147486666Y-70064333D01*
X147581904Y-70111952D01*
X147629523Y-70159571D01*
X147677142Y-70254809D01*
X147677142Y-70492904D01*
X147629523Y-70588142D01*
X147581904Y-70635761D01*
X147486666Y-70683380D01*
X147200952Y-70683380D01*
X147105714Y-70635761D01*
X147058095Y-70588142D01*
X148296190Y-69683380D02*
X148391428Y-69683380D01*
X148486666Y-69731000D01*
X148534285Y-69778619D01*
X148581904Y-69873857D01*
X148629523Y-70064333D01*
X148629523Y-70302428D01*
X148581904Y-70492904D01*
X148534285Y-70588142D01*
X148486666Y-70635761D01*
X148391428Y-70683380D01*
X148296190Y-70683380D01*
X148200952Y-70635761D01*
X148153333Y-70588142D01*
X148105714Y-70492904D01*
X148058095Y-70302428D01*
X148058095Y-70064333D01*
X148105714Y-69873857D01*
X148153333Y-69778619D01*
X148200952Y-69731000D01*
X148296190Y-69683380D01*
X149581904Y-70683380D02*
X149010476Y-70683380D01*
X149296190Y-70683380D02*
X149296190Y-69683380D01*
X149200952Y-69826238D01*
X149105714Y-69921476D01*
X149010476Y-69969095D01*
G04 #@! TO.C,U302*
X134552187Y-70294986D02*
X135361711Y-70294986D01*
X135456949Y-70247367D01*
X135504568Y-70199748D01*
X135552187Y-70104510D01*
X135552187Y-69914034D01*
X135504568Y-69818796D01*
X135456949Y-69771177D01*
X135361711Y-69723558D01*
X134552187Y-69723558D01*
X134552187Y-69342605D02*
X134552187Y-68723558D01*
X134933140Y-69056891D01*
X134933140Y-68914034D01*
X134980759Y-68818796D01*
X135028378Y-68771177D01*
X135123616Y-68723558D01*
X135361711Y-68723558D01*
X135456949Y-68771177D01*
X135504568Y-68818796D01*
X135552187Y-68914034D01*
X135552187Y-69199748D01*
X135504568Y-69294986D01*
X135456949Y-69342605D01*
X134552187Y-68104510D02*
X134552187Y-68009272D01*
X134599807Y-67914034D01*
X134647426Y-67866415D01*
X134742664Y-67818796D01*
X134933140Y-67771177D01*
X135171235Y-67771177D01*
X135361711Y-67818796D01*
X135456949Y-67866415D01*
X135504568Y-67914034D01*
X135552187Y-68009272D01*
X135552187Y-68104510D01*
X135504568Y-68199748D01*
X135456949Y-68247367D01*
X135361711Y-68294986D01*
X135171235Y-68342605D01*
X134933140Y-68342605D01*
X134742664Y-68294986D01*
X134647426Y-68247367D01*
X134599807Y-68199748D01*
X134552187Y-68104510D01*
X134647426Y-67390224D02*
X134599807Y-67342605D01*
X134552187Y-67247367D01*
X134552187Y-67009272D01*
X134599807Y-66914034D01*
X134647426Y-66866415D01*
X134742664Y-66818796D01*
X134837902Y-66818796D01*
X134980759Y-66866415D01*
X135552187Y-67437843D01*
X135552187Y-66818796D01*
G04 #@! TO.C,R204*
X145587980Y-57354647D02*
X145111790Y-57687980D01*
X145587980Y-57926076D02*
X144587980Y-57926076D01*
X144587980Y-57545123D01*
X144635600Y-57449885D01*
X144683219Y-57402266D01*
X144778457Y-57354647D01*
X144921314Y-57354647D01*
X145016552Y-57402266D01*
X145064171Y-57449885D01*
X145111790Y-57545123D01*
X145111790Y-57926076D01*
X144683219Y-56973695D02*
X144635600Y-56926076D01*
X144587980Y-56830838D01*
X144587980Y-56592742D01*
X144635600Y-56497504D01*
X144683219Y-56449885D01*
X144778457Y-56402266D01*
X144873695Y-56402266D01*
X145016552Y-56449885D01*
X145587980Y-57021314D01*
X145587980Y-56402266D01*
X144587980Y-55783219D02*
X144587980Y-55687980D01*
X144635600Y-55592742D01*
X144683219Y-55545123D01*
X144778457Y-55497504D01*
X144968933Y-55449885D01*
X145207028Y-55449885D01*
X145397504Y-55497504D01*
X145492742Y-55545123D01*
X145540361Y-55592742D01*
X145587980Y-55687980D01*
X145587980Y-55783219D01*
X145540361Y-55878457D01*
X145492742Y-55926076D01*
X145397504Y-55973695D01*
X145207028Y-56021314D01*
X144968933Y-56021314D01*
X144778457Y-55973695D01*
X144683219Y-55926076D01*
X144635600Y-55878457D01*
X144587980Y-55783219D01*
X144921314Y-54592742D02*
X145587980Y-54592742D01*
X144540361Y-54830838D02*
X145254647Y-55068933D01*
X145254647Y-54449885D01*
G04 #@! TO.C,R301*
X145333980Y-63450647D02*
X144857790Y-63783980D01*
X145333980Y-64022076D02*
X144333980Y-64022076D01*
X144333980Y-63641123D01*
X144381600Y-63545885D01*
X144429219Y-63498266D01*
X144524457Y-63450647D01*
X144667314Y-63450647D01*
X144762552Y-63498266D01*
X144810171Y-63545885D01*
X144857790Y-63641123D01*
X144857790Y-64022076D01*
X144333980Y-63117314D02*
X144333980Y-62498266D01*
X144714933Y-62831600D01*
X144714933Y-62688742D01*
X144762552Y-62593504D01*
X144810171Y-62545885D01*
X144905409Y-62498266D01*
X145143504Y-62498266D01*
X145238742Y-62545885D01*
X145286361Y-62593504D01*
X145333980Y-62688742D01*
X145333980Y-62974457D01*
X145286361Y-63069695D01*
X145238742Y-63117314D01*
X144333980Y-61879219D02*
X144333980Y-61783980D01*
X144381600Y-61688742D01*
X144429219Y-61641123D01*
X144524457Y-61593504D01*
X144714933Y-61545885D01*
X144953028Y-61545885D01*
X145143504Y-61593504D01*
X145238742Y-61641123D01*
X145286361Y-61688742D01*
X145333980Y-61783980D01*
X145333980Y-61879219D01*
X145286361Y-61974457D01*
X145238742Y-62022076D01*
X145143504Y-62069695D01*
X144953028Y-62117314D01*
X144714933Y-62117314D01*
X144524457Y-62069695D01*
X144429219Y-62022076D01*
X144381600Y-61974457D01*
X144333980Y-61879219D01*
X145333980Y-60593504D02*
X145333980Y-61164933D01*
X145333980Y-60879219D02*
X144333980Y-60879219D01*
X144476838Y-60974457D01*
X144572076Y-61069695D01*
X144619695Y-61164933D01*
G04 #@! TO.C,R302*
X143149580Y-63501447D02*
X142673390Y-63834780D01*
X143149580Y-64072876D02*
X142149580Y-64072876D01*
X142149580Y-63691923D01*
X142197200Y-63596685D01*
X142244819Y-63549066D01*
X142340057Y-63501447D01*
X142482914Y-63501447D01*
X142578152Y-63549066D01*
X142625771Y-63596685D01*
X142673390Y-63691923D01*
X142673390Y-64072876D01*
X142149580Y-63168114D02*
X142149580Y-62549066D01*
X142530533Y-62882400D01*
X142530533Y-62739542D01*
X142578152Y-62644304D01*
X142625771Y-62596685D01*
X142721009Y-62549066D01*
X142959104Y-62549066D01*
X143054342Y-62596685D01*
X143101961Y-62644304D01*
X143149580Y-62739542D01*
X143149580Y-63025257D01*
X143101961Y-63120495D01*
X143054342Y-63168114D01*
X142149580Y-61930019D02*
X142149580Y-61834780D01*
X142197200Y-61739542D01*
X142244819Y-61691923D01*
X142340057Y-61644304D01*
X142530533Y-61596685D01*
X142768628Y-61596685D01*
X142959104Y-61644304D01*
X143054342Y-61691923D01*
X143101961Y-61739542D01*
X143149580Y-61834780D01*
X143149580Y-61930019D01*
X143101961Y-62025257D01*
X143054342Y-62072876D01*
X142959104Y-62120495D01*
X142768628Y-62168114D01*
X142530533Y-62168114D01*
X142340057Y-62120495D01*
X142244819Y-62072876D01*
X142197200Y-62025257D01*
X142149580Y-61930019D01*
X142244819Y-61215733D02*
X142197200Y-61168114D01*
X142149580Y-61072876D01*
X142149580Y-60834780D01*
X142197200Y-60739542D01*
X142244819Y-60691923D01*
X142340057Y-60644304D01*
X142435295Y-60644304D01*
X142578152Y-60691923D01*
X143149580Y-61263352D01*
X143149580Y-60644304D01*
G04 #@! TO.C,R304*
X137056952Y-63995580D02*
X136723619Y-63519390D01*
X136485523Y-63995580D02*
X136485523Y-62995580D01*
X136866476Y-62995580D01*
X136961714Y-63043200D01*
X137009333Y-63090819D01*
X137056952Y-63186057D01*
X137056952Y-63328914D01*
X137009333Y-63424152D01*
X136961714Y-63471771D01*
X136866476Y-63519390D01*
X136485523Y-63519390D01*
X137390285Y-62995580D02*
X138009333Y-62995580D01*
X137676000Y-63376533D01*
X137818857Y-63376533D01*
X137914095Y-63424152D01*
X137961714Y-63471771D01*
X138009333Y-63567009D01*
X138009333Y-63805104D01*
X137961714Y-63900342D01*
X137914095Y-63947961D01*
X137818857Y-63995580D01*
X137533142Y-63995580D01*
X137437904Y-63947961D01*
X137390285Y-63900342D01*
X138628380Y-62995580D02*
X138723619Y-62995580D01*
X138818857Y-63043200D01*
X138866476Y-63090819D01*
X138914095Y-63186057D01*
X138961714Y-63376533D01*
X138961714Y-63614628D01*
X138914095Y-63805104D01*
X138866476Y-63900342D01*
X138818857Y-63947961D01*
X138723619Y-63995580D01*
X138628380Y-63995580D01*
X138533142Y-63947961D01*
X138485523Y-63900342D01*
X138437904Y-63805104D01*
X138390285Y-63614628D01*
X138390285Y-63376533D01*
X138437904Y-63186057D01*
X138485523Y-63090819D01*
X138533142Y-63043200D01*
X138628380Y-62995580D01*
X139818857Y-63328914D02*
X139818857Y-63995580D01*
X139580761Y-62947961D02*
X139342666Y-63662247D01*
X139961714Y-63662247D01*
G04 #@! TO.C,DIAL101*
X156242095Y-97226380D02*
X156242095Y-96226380D01*
X156480190Y-96226380D01*
X156623047Y-96274000D01*
X156718285Y-96369238D01*
X156765904Y-96464476D01*
X156813523Y-96654952D01*
X156813523Y-96797809D01*
X156765904Y-96988285D01*
X156718285Y-97083523D01*
X156623047Y-97178761D01*
X156480190Y-97226380D01*
X156242095Y-97226380D01*
X157242095Y-97226380D02*
X157242095Y-96226380D01*
X157670666Y-96940666D02*
X158146857Y-96940666D01*
X157575428Y-97226380D02*
X157908761Y-96226380D01*
X158242095Y-97226380D01*
X159051619Y-97226380D02*
X158575428Y-97226380D01*
X158575428Y-96226380D01*
X159908761Y-97226380D02*
X159337333Y-97226380D01*
X159623047Y-97226380D02*
X159623047Y-96226380D01*
X159527809Y-96369238D01*
X159432571Y-96464476D01*
X159337333Y-96512095D01*
X160527809Y-96226380D02*
X160623047Y-96226380D01*
X160718285Y-96274000D01*
X160765904Y-96321619D01*
X160813523Y-96416857D01*
X160861142Y-96607333D01*
X160861142Y-96845428D01*
X160813523Y-97035904D01*
X160765904Y-97131142D01*
X160718285Y-97178761D01*
X160623047Y-97226380D01*
X160527809Y-97226380D01*
X160432571Y-97178761D01*
X160384952Y-97131142D01*
X160337333Y-97035904D01*
X160289714Y-96845428D01*
X160289714Y-96607333D01*
X160337333Y-96416857D01*
X160384952Y-96321619D01*
X160432571Y-96274000D01*
X160527809Y-96226380D01*
X161813523Y-97226380D02*
X161242095Y-97226380D01*
X161527809Y-97226380D02*
X161527809Y-96226380D01*
X161432571Y-96369238D01*
X161337333Y-96464476D01*
X161242095Y-96512095D01*
X152097642Y-92356285D02*
X154383357Y-92356285D01*
X163497642Y-92356285D02*
X165783357Y-92356285D01*
X164640500Y-93499142D02*
X164640500Y-91213428D01*
G04 #@! TO.C,MOD101*
X176210785Y-102803880D02*
X176210785Y-101803880D01*
X176544119Y-102518166D01*
X176877452Y-101803880D01*
X176877452Y-102803880D01*
X177544119Y-101803880D02*
X177734595Y-101803880D01*
X177829833Y-101851500D01*
X177925071Y-101946738D01*
X177972690Y-102137214D01*
X177972690Y-102470547D01*
X177925071Y-102661023D01*
X177829833Y-102756261D01*
X177734595Y-102803880D01*
X177544119Y-102803880D01*
X177448880Y-102756261D01*
X177353642Y-102661023D01*
X177306023Y-102470547D01*
X177306023Y-102137214D01*
X177353642Y-101946738D01*
X177448880Y-101851500D01*
X177544119Y-101803880D01*
X178401261Y-102803880D02*
X178401261Y-101803880D01*
X178639357Y-101803880D01*
X178782214Y-101851500D01*
X178877452Y-101946738D01*
X178925071Y-102041976D01*
X178972690Y-102232452D01*
X178972690Y-102375309D01*
X178925071Y-102565785D01*
X178877452Y-102661023D01*
X178782214Y-102756261D01*
X178639357Y-102803880D01*
X178401261Y-102803880D01*
X179925071Y-102803880D02*
X179353642Y-102803880D01*
X179639357Y-102803880D02*
X179639357Y-101803880D01*
X179544119Y-101946738D01*
X179448880Y-102041976D01*
X179353642Y-102089595D01*
X180544119Y-101803880D02*
X180639357Y-101803880D01*
X180734595Y-101851500D01*
X180782214Y-101899119D01*
X180829833Y-101994357D01*
X180877452Y-102184833D01*
X180877452Y-102422928D01*
X180829833Y-102613404D01*
X180782214Y-102708642D01*
X180734595Y-102756261D01*
X180639357Y-102803880D01*
X180544119Y-102803880D01*
X180448880Y-102756261D01*
X180401261Y-102708642D01*
X180353642Y-102613404D01*
X180306023Y-102422928D01*
X180306023Y-102184833D01*
X180353642Y-101994357D01*
X180401261Y-101899119D01*
X180448880Y-101851500D01*
X180544119Y-101803880D01*
X181829833Y-102803880D02*
X181258404Y-102803880D01*
X181544119Y-102803880D02*
X181544119Y-101803880D01*
X181448880Y-101946738D01*
X181353642Y-102041976D01*
X181258404Y-102089595D01*
G04 #@! TO.C,U301*
X163790380Y-73139085D02*
X164599904Y-73139085D01*
X164695142Y-73091466D01*
X164742761Y-73043847D01*
X164790380Y-72948609D01*
X164790380Y-72758133D01*
X164742761Y-72662895D01*
X164695142Y-72615276D01*
X164599904Y-72567657D01*
X163790380Y-72567657D01*
X163790380Y-72186704D02*
X163790380Y-71567657D01*
X164171333Y-71900990D01*
X164171333Y-71758133D01*
X164218952Y-71662895D01*
X164266571Y-71615276D01*
X164361809Y-71567657D01*
X164599904Y-71567657D01*
X164695142Y-71615276D01*
X164742761Y-71662895D01*
X164790380Y-71758133D01*
X164790380Y-72043847D01*
X164742761Y-72139085D01*
X164695142Y-72186704D01*
X163790380Y-70948609D02*
X163790380Y-70853371D01*
X163838000Y-70758133D01*
X163885619Y-70710514D01*
X163980857Y-70662895D01*
X164171333Y-70615276D01*
X164409428Y-70615276D01*
X164599904Y-70662895D01*
X164695142Y-70710514D01*
X164742761Y-70758133D01*
X164790380Y-70853371D01*
X164790380Y-70948609D01*
X164742761Y-71043847D01*
X164695142Y-71091466D01*
X164599904Y-71139085D01*
X164409428Y-71186704D01*
X164171333Y-71186704D01*
X163980857Y-71139085D01*
X163885619Y-71091466D01*
X163838000Y-71043847D01*
X163790380Y-70948609D01*
X164790380Y-69662895D02*
X164790380Y-70234323D01*
X164790380Y-69948609D02*
X163790380Y-69948609D01*
X163933238Y-70043847D01*
X164028476Y-70139085D01*
X164076095Y-70234323D01*
G04 #@! TD*
M02*
